ISO-10303-21;
HEADER;
FILE_DESCRIPTION (( 'STEP AP203' ),
    '1' );
FILE_NAME ('34ÖáÁ¬½Ó¼þ.STEP',
    '2026-04-25T04:57:45',
    ( '' ),
    ( '' ),
    'SwSTEP 2.0',
    'SolidWorks 2024',
    '' );
FILE_SCHEMA (( 'CONFIG_CONTROL_DESIGN' ));
ENDSEC;

DATA;
#1 = DIRECTION ( 'NONE',  ( 0.000000000000000000, 6.994852725712931474E-17, 1.000000000000000000 ) ) ;
#2 = FACE_BOUND ( 'NONE', #1319, .T. ) ;
#3 = ORIENTED_EDGE ( 'NONE', *, *, #1270, .T. ) ;
#4 = CARTESIAN_POINT ( 'NONE',  ( 5.000000000000006217, -25.06497115745566617, 45.93502884254446172 ) ) ;
#5 = CIRCLE ( 'NONE', #761, 1.250000000000001110 ) ;
#6 = AXIS2_PLACEMENT_3D ( 'NONE', #819, #514, #837 ) ;
#7 = VERTEX_POINT ( 'NONE', #1323 ) ;
#8 = LINE ( 'NONE', #1047, #867 ) ;
#9 = LOCAL_TIME ( 12, 57, 45.00000000000000000, #631 ) ;
#10 = CIRCLE ( 'NONE', #1306, 1.250000000000001110 ) ;
#11 = EDGE_CURVE ( 'NONE', #980, #120, #659, .T. ) ;
#12 = PERSON_AND_ORGANIZATION_ROLE ( 'design_supplier' ) ;
#13 = CIRCLE ( 'NONE', #484, 1.250000000000001110 ) ;
#14 = CARTESIAN_POINT ( 'NONE',  ( 15.00000000000000178, 33.50000000000000000, 10.00000000000000000 ) ) ;
#15 = CARTESIAN_POINT ( 'NONE',  ( -4.999999999999993783, -26.00000000000000355, 32.50000000000000000 ) ) ;
#16 = ORIENTED_EDGE ( 'NONE', *, *, #525, .F. ) ;
#17 = AXIS2_PLACEMENT_3D ( 'NONE', #1218, #299, #266 ) ;
#18 = ORIENTED_EDGE ( 'NONE', *, *, #329, .F. ) ;
#19 = SECURITY_CLASSIFICATION_LEVEL ( 'unclassified' ) ;
#20 = EDGE_CURVE ( 'NONE', #1350, #1249, #1022, .T. ) ;
#21 = CYLINDRICAL_SURFACE ( 'NONE', #476, 1.250000000000001110 ) ;
#22 = DIRECTION ( 'NONE',  ( -6.938893903907225912E-17, 1.000000000000000000, 0.000000000000000000 ) ) ;
#23 = ORIENTED_EDGE ( 'NONE', *, *, #811, .F. ) ;
#24 = VERTEX_POINT ( 'NONE', #1356 ) ;
#25 = FACE_OUTER_BOUND ( 'NONE', #715, .T. ) ;
#26 = DIRECTION ( 'NONE',  ( -1.000000000000000000, 0.000000000000000000, 0.000000000000000000 ) ) ;
#27 = AXIS2_PLACEMENT_3D ( 'NONE', #1321, #979, #357 ) ;
#28 = CIRCLE ( 'NONE', #6, 28.50000000000000355 ) ;
#29 = DIRECTION ( 'NONE',  ( 1.000000000000000000, 1.167602339599774233E-16, -0.000000000000000000 ) ) ;
#30 = EDGE_CURVE ( 'NONE', #733, #1313, #1136, .T. ) ;
#31 = VERTEX_POINT ( 'NONE', #402 ) ;
#32 = EDGE_LOOP ( 'NONE', ( #529, #1188, #969, #209 ) ) ;
#33 = AXIS2_PLACEMENT_3D ( 'NONE', #159, #808, #1030 ) ;
#34 = CARTESIAN_POINT ( 'NONE',  ( 5.000000000000006217, -25.06497115745568749, 19.06497115745552051 ) ) ;
#35 = CARTESIAN_POINT ( 'NONE',  ( 5.000000000000010658, -67.00000000000000000, 32.50000000000000000 ) ) ;
#36 = ORIENTED_EDGE ( 'NONE', *, *, #569, .F. ) ;
#37 = CARTESIAN_POINT ( 'NONE',  ( 57.00000000000000000, 0.000000000000000000, 5.000000000000004441 ) ) ;
#38 = AXIS2_PLACEMENT_3D ( 'NONE', #1095, #157, #479 ) ;
#39 = LINE ( 'NONE', #742, #1146 ) ;
#40 = FACE_OUTER_BOUND ( 'NONE', #409, .T. ) ;
#41 = VERTEX_POINT ( 'NONE', #489 ) ;
#42 = EDGE_CURVE ( 'NONE', #359, #1045, #1272, .T. ) ;
#43 = DIRECTION ( 'NONE',  ( 1.000000000000000000, 1.040834085586084626E-16, -6.155470398627365301E-18 ) ) ;
#44 = ORIENTED_EDGE ( 'NONE', *, *, #1077, .F. ) ;
#45 = DIRECTION ( 'NONE',  ( 0.000000000000000000, 6.994852725712931474E-17, 1.000000000000000000 ) ) ;
#46 = EDGE_CURVE ( 'NONE', #1180, #359, #929, .T. ) ;
#47 = ORIENTED_EDGE ( 'NONE', *, *, #490, .T. ) ;
#48 = AXIS2_PLACEMENT_3D ( 'NONE', #1137, #694, #704 ) ;
#49 = CARTESIAN_POINT ( 'NONE',  ( 57.00000000000000000, -5.000000000000000000, 61.00000000000000000 ) ) ;
#50 = EDGE_LOOP ( 'NONE', ( #492, #829, #399, #1223, #896 ) ) ;
#51 = CARTESIAN_POINT ( 'NONE',  ( 22.99999999999986855, 21.80865704891015966, 5.000000000000002665 ) ) ;
#52 = ORIENTED_EDGE ( 'NONE', *, *, #249, .T. ) ;
#53 = VECTOR ( 'NONE', #1222, 1000.000000000000000 ) ;
#54 = CARTESIAN_POINT ( 'NONE',  ( 20.50000000000002842, 45.19134295108994337, 5.000000000000000888 ) ) ;
#55 = ORIENTED_EDGE ( 'NONE', *, *, #189, .T. ) ;
#56 = DIRECTION ( 'NONE',  ( 0.000000000000000000, -0.000000000000000000, -1.000000000000000000 ) ) ;
#57 = DIRECTION ( 'NONE',  ( -0.000000000000000000, -0.000000000000000000, -1.000000000000000000 ) ) ;
#58 = DATE_AND_TIME ( #1334, #1151 ) ;
#59 = ORIENTED_EDGE ( 'NONE', *, *, #1054, .T. ) ;
#60 = DIRECTION ( 'NONE',  ( 0.000000000000000000, -0.000000000000000000, -1.000000000000000000 ) ) ;
#61 = EDGE_CURVE ( 'NONE', #542, #1207, #1309, .T. ) ;
#62 = CIRCLE ( 'NONE', #1260, 1.249999999999997558 ) ;
#63 = ORIENTED_EDGE ( 'NONE', *, *, #662, .F. ) ;
#64 = CIRCLE ( 'NONE', #237, 12.50000000000000355 ) ;
#65 = DIRECTION ( 'NONE',  ( -1.000000000000000000, 0.000000000000000000, 0.000000000000000000 ) ) ;
#66 = CARTESIAN_POINT ( 'NONE',  ( 0.000000000000000000, -25.06497115745568749, 19.06497115745552051 ) ) ;
#67 = CARTESIAN_POINT ( 'NONE',  ( 5.000000000000008882, -51.93502884254432672, 45.93502884254448304 ) ) ;
#68 = CYLINDRICAL_SURFACE ( 'NONE', #48, 1.250000000000001110 ) ;
#69 = VERTEX_POINT ( 'NONE', #1254 ) ;
#70 = CYLINDRICAL_SURFACE ( 'NONE', #1250, 1.250000000000001110 ) ;
#71 = VERTEX_POINT ( 'NONE', #912 ) ;
#72 = AXIS2_PLACEMENT_3D ( 'NONE', #910, #1340, #382 ) ;
#73 = DIRECTION ( 'NONE',  ( 0.4999999999999902300, -0.8660254037844443697, 0.000000000000000000 ) ) ;
#74 = FACE_BOUND ( 'NONE', #555, .T. ) ;
#75 = CARTESIAN_POINT ( 'NONE',  ( 42.00000000000000000, 33.50000000000000000, 5.000000000000001776 ) ) ;
#76 = ADVANCED_FACE ( 'NONE', ( #1342 ), #84, .F. ) ;
#77 = CARTESIAN_POINT ( 'NONE',  ( -4.999999999999992006, -38.50000000000000711, 32.50000000000000000 ) ) ;
#78 = ORIENTED_EDGE ( 'NONE', *, *, #1230, .T. ) ;
#79 = AXIS2_PLACEMENT_3D ( 'NONE', #917, #180, #204 ) ;
#80 = FACE_OUTER_BOUND ( 'NONE', #562, .T. ) ;
#81 = ORIENTED_EDGE ( 'NONE', *, *, #288, .F. ) ;
#82 = CARTESIAN_POINT ( 'NONE',  ( 0.000000000000000000, -51.93502884254432672, 45.93502884254448304 ) ) ;
#83 = DIRECTION ( 'NONE',  ( -0.000000000000000000, -0.000000000000000000, -1.000000000000000000 ) ) ;
#84 = CYLINDRICAL_SURFACE ( 'NONE', #17, 1.250000000000001110 ) ;
#85 = EDGE_CURVE ( 'NONE', #774, #1058, #188, .T. ) ;
#86 = DIRECTION ( 'NONE',  ( -0.000000000000000000, 1.000000000000000000, -6.994852725712931474E-17 ) ) ;
#87 = VERTEX_POINT ( 'NONE', #1115 ) ;
#88 = CARTESIAN_POINT ( 'NONE',  ( 0.000000000000000000, -25.06497115745568749, 19.06497115745552051 ) ) ;
#89 = ORIENTED_EDGE ( 'NONE', *, *, #348, .F. ) ;
#90 = FACE_BOUND ( 'NONE', #443, .T. ) ;
#91 = CARTESIAN_POINT ( 'NONE',  ( 2.407412430484045364E-32, -26.31497115745566262, 45.93502884254446172 ) ) ;
#92 = LINE ( 'NONE', #182, #143 ) ;
#93 = VECTOR ( 'NONE', #1185, 1000.000000000000000 ) ;
#94 = DIRECTION ( 'NONE',  ( 0.000000000000000000, 0.000000000000000000, -1.000000000000000000 ) ) ;
#95 = VERTEX_POINT ( 'NONE', #606 ) ;
#96 = EDGE_CURVE ( 'NONE', #634, #1229, #92, .T. ) ;
#97 = ORIENTED_EDGE ( 'NONE', *, *, #586, .F. ) ;
#98 = DIRECTION ( 'NONE',  ( 0.000000000000000000, 0.000000000000000000, -1.000000000000000000 ) ) ;
#99 = CARTESIAN_POINT ( 'NONE',  ( -4.999999999999992006, -51.00000000000000711, 32.50000000000000000 ) ) ;
#100 = CARTESIAN_POINT ( 'NONE',  ( 0.000000000000000000, -50.68502884254444041, 19.06497115745563065 ) ) ;
#101 = CIRCLE ( 'NONE', #1220, 1.250000000000001110 ) ;
#102 = CYLINDRICAL_SURFACE ( 'NONE', #728, 1.249999999999997558 ) ;
#103 = ADVANCED_BREP_SHAPE_REPRESENTATION ( '34\X2\8f748fde63a54ef6\X0\', ( #313, #787 ), #1009 ) ;
#104 = ORIENTED_EDGE ( 'NONE', *, *, #280, .T. ) ;
#105 = VECTOR ( 'NONE', #196, 1000.000000000000000 ) ;
#106 = CARTESIAN_POINT ( 'NONE',  ( -4.999999999999993783, -25.06497115745568749, 19.06497115745552051 ) ) ;
#107 = UNCERTAINTY_MEASURE_WITH_UNIT (LENGTH_MEASURE( 1.000000000000000082E-05 ), #992, 'distance_accuracy_value', 'NONE');
#108 = EDGE_LOOP ( 'NONE', ( #503, #531, #156, #368 ) ) ;
#109 = CARTESIAN_POINT ( 'NONE',  ( 0.000000000000000000, 33.50000000000000000, 0.000000000000000000 ) ) ;
#110 = EDGE_CURVE ( 'NONE', #672, #194, #184, .T. ) ;
#111 = DIRECTION ( 'NONE',  ( -6.938893903907225912E-17, 1.000000000000000000, 0.000000000000000000 ) ) ;
#112 = CARTESIAN_POINT ( 'NONE',  ( 16.25000000000000000, 33.50000000000000000, 5.000000000000001776 ) ) ;
#113 = VERTEX_POINT ( 'NONE', #498 ) ;
#114 = ORIENTED_EDGE ( 'NONE', *, *, #567, .T. ) ;
#115 = CC_DESIGN_PERSON_AND_ORGANIZATION_ASSIGNMENT ( #1145, #943, ( #418 ) ) ;
#116 = VECTOR ( 'NONE', #546, 1000.000000000000000 ) ;
#117 = AXIS2_PLACEMENT_3D ( 'NONE', #1206, #585, #995 ) ;
#118 = DIRECTION ( 'NONE',  ( 1.000000000000000000, 9.792793815998106036E-17, -0.000000000000000000 ) ) ;
#119 = DIRECTION ( 'NONE',  ( 0.000000000000000000, 0.000000000000000000, -1.000000000000000000 ) ) ;
#120 = VERTEX_POINT ( 'NONE', #702 ) ;
#121 = AXIS2_PLACEMENT_3D ( 'NONE', #197, #615, #581 ) ;
#122 = CIRCLE ( 'NONE', #295, 1.250000000000001110 ) ;
#123 = ORIENTED_EDGE ( 'NONE', *, *, #667, .F. ) ;
#124 = EDGE_CURVE ( 'NONE', #317, #578, #713, .T. ) ;
#125 = FACE_OUTER_BOUND ( 'NONE', #905, .T. ) ;
#126 = CARTESIAN_POINT ( 'NONE',  ( 0.000000000000000000, -57.00000000000000711, 0.000000000000000000 ) ) ;
#127 = EDGE_LOOP ( 'NONE', ( #419, #1237, #256, #16 ) ) ;
#128 = ORIENTED_EDGE ( 'NONE', *, *, #343, .T. ) ;
#129 = CARTESIAN_POINT ( 'NONE',  ( 2.407412430484045364E-32, -26.31497115745568394, 19.06497115745552051 ) ) ;
#130 = VECTOR ( 'NONE', #1124, 1000.000000000000000 ) ;
#131 = DIRECTION ( 'NONE',  ( 1.000000000000000000, 1.040834085586084503E-16, -6.155470398627365301E-18 ) ) ;
#132 = DIRECTION ( 'NONE',  ( 1.000000000000000000, -0.000000000000000000, 0.000000000000000000 ) ) ;
#133 = EDGE_LOOP ( 'NONE', ( #568, #1026 ) ) ;
#134 = EDGE_CURVE ( 'NONE', #937, #113, #535, .T. ) ;
#135 = ORIENTED_EDGE ( 'NONE', *, *, #415, .F. ) ;
#136 = CARTESIAN_POINT ( 'NONE',  ( 57.00000000000000000, 0.000000000000000000, 51.00000000000000711 ) ) ;
#137 = AXIS2_PLACEMENT_3D ( 'NONE', #378, #94, #601 ) ;
#138 = CARTESIAN_POINT ( 'NONE',  ( 0.000000000000000000, -67.00000000000000000, 61.00000000000000000 ) ) ;
#139 = VECTOR ( 'NONE', #321, 1000.000000000000000 ) ;
#140 = CYLINDRICAL_SURFACE ( 'NONE', #1195, 10.00000000000000178 ) ;
#141 = EDGE_CURVE ( 'NONE', #821, #463, #807, .T. ) ;
#142 = VERTEX_POINT ( 'NONE', #481 ) ;
#143 = VECTOR ( 'NONE', #684, 1000.000000000000000 ) ;
#144 = DIRECTION ( 'NONE',  ( -0.000000000000000000, 1.000000000000000000, -0.000000000000000000 ) ) ;
#145 = AXIS2_PLACEMENT_3D ( 'NONE', #717, #805, #98 ) ;
#146 = LINE ( 'NONE', #327, #874 ) ;
#147 = ORIENTED_EDGE ( 'NONE', *, *, #1110, .F. ) ;
#148 = EDGE_CURVE ( 'NONE', #739, #142, #1081, .T. ) ;
#149 = DIRECTION ( 'NONE',  ( 0.5000000000000051070, 0.8660254037844358210, 0.000000000000000000 ) ) ;
#150 = ORIENTED_EDGE ( 'NONE', *, *, #423, .F. ) ;
#151 = CARTESIAN_POINT ( 'NONE',  ( 36.50000000000005684, 45.19134295108989363, 10.00000000000000000 ) ) ;
#152 = ORIENTED_EDGE ( 'NONE', *, *, #525, .T. ) ;
#153 = CARTESIAN_POINT ( 'NONE',  ( 0.000000000000000000, 0.000000000000000000, 61.00000000000000000 ) ) ;
#154 = ORIENTED_EDGE ( 'NONE', *, *, #162, .F. ) ;
#155 = CARTESIAN_POINT ( 'NONE',  ( 21.75000000000002842, 45.19134295108994337, 5.000000000000000888 ) ) ;
#156 = ORIENTED_EDGE ( 'NONE', *, *, #688, .T. ) ;
#157 = DIRECTION ( 'NONE',  ( 1.000000000000000000, 1.040834085586083640E-16, 6.155470398627365301E-18 ) ) ;
#158 = LINE ( 'NONE', #473, #335 ) ;
#159 = CARTESIAN_POINT ( 'NONE',  ( 35.25000000000005684, 45.19134295108989363, 5.000000000000000888 ) ) ;
#160 = ORIENTED_EDGE ( 'NONE', *, *, #148, .F. ) ;
#161 = DIRECTION ( 'NONE',  ( -1.000000000000000000, -0.000000000000000000, 0.000000000000000000 ) ) ;
#162 = EDGE_CURVE ( 'NONE', #821, #483, #64, .T. ) ;
#163 = LINE ( 'NONE', #1006, #287 ) ;
#164 = ORIENTED_EDGE ( 'NONE', *, *, #1063, .F. ) ;
#165 = CARTESIAN_POINT ( 'NONE',  ( 36.50000000000005684, 45.19134295108989363, 5.000000000000000888 ) ) ;
#166 = FACE_BOUND ( 'NONE', #274, .T. ) ;
#167 = CARTESIAN_POINT ( 'NONE',  ( 21.74999999999986500, 21.80865704891015966, 0.000000000000000000 ) ) ;
#168 = VERTEX_POINT ( 'NONE', #1011 ) ;
#169 = FACE_OUTER_BOUND ( 'NONE', #1103, .T. ) ;
#170 = VECTOR ( 'NONE', #966, 1000.000000000000000 ) ;
#171 = EDGE_LOOP ( 'NONE', ( #478, #330 ) ) ;
#172 = FACE_OUTER_BOUND ( 'NONE', #612, .T. ) ;
#173 = CARTESIAN_POINT ( 'NONE',  ( 0.000000000000000000, -38.50000000000000711, 61.00000000000000000 ) ) ;
#174 = DIRECTION ( 'NONE',  ( 1.000000000000000000, 0.000000000000000000, -0.000000000000000000 ) ) ;
#175 = CARTESIAN_POINT ( 'NONE',  ( 0.000000000000000000, 0.000000000000000000, 0.000000000000000000 ) ) ;
#176 = ORIENTED_EDGE ( 'NONE', *, *, #305, .T. ) ;
#177 = DIRECTION ( 'NONE',  ( 0.000000000000000000, -1.000000000000000000, 0.000000000000000000 ) ) ;
#178 = CIRCLE ( 'NONE', #876, 1.250000000000001110 ) ;
#179 = ORIENTED_EDGE ( 'NONE', *, *, #322, .F. ) ;
#180 = DIRECTION ( 'NONE',  ( -0.000000000000000000, 0.000000000000000000, -1.000000000000000000 ) ) ;
#181 = FACE_OUTER_BOUND ( 'NONE', #722, .T. ) ;
#182 = CARTESIAN_POINT ( 'NONE',  ( 20.50000000000002842, 45.19134295108994337, 10.00000000000000000 ) ) ;
#183 = ORIENTED_EDGE ( 'NONE', *, *, #1154, .T. ) ;
#184 = CIRCLE ( 'NONE', #351, 28.50000000000000355 ) ;
#185 = ORIENTED_EDGE ( 'NONE', *, *, #1211, .T. ) ;
#186 = CARTESIAN_POINT ( 'NONE',  ( 5.000000000000008882, -50.68502884254432672, 45.93502884254448304 ) ) ;
#187 = LINE ( 'NONE', #505, #465 ) ;
#188 = LINE ( 'NONE', #712, #770 ) ;
#189 = EDGE_CURVE ( 'NONE', #1170, #7, #199, .T. ) ;
#190 = MECHANICAL_CONTEXT ( 'NONE', #1046, 'mechanical' ) ;
#191 = VERTEX_POINT ( 'NONE', #1125 ) ;
#192 = CYLINDRICAL_SURFACE ( 'NONE', #1227, 12.50000000000000355 ) ;
#193 = CARTESIAN_POINT ( 'NONE',  ( 42.00000000000000000, 33.50000000000000000, 10.00000000000000000 ) ) ;
#194 = VERTEX_POINT ( 'NONE', #599 ) ;
#195 = FACE_BOUND ( 'NONE', #379, .T. ) ;
#196 = DIRECTION ( 'NONE',  ( -0.000000000000000000, 0.000000000000000000, -1.000000000000000000 ) ) ;
#197 = CARTESIAN_POINT ( 'NONE',  ( 5.000000000000009770, -51.93502884254444041, 19.06497115745563065 ) ) ;
#198 = AXIS2_PLACEMENT_3D ( 'NONE', #1177, #734, #1164 ) ;
#199 = CIRCLE ( 'NONE', #1191, 1.250000000000001110 ) ;
#200 = DATE_AND_TIME ( #1049, #1123 ) ;
#201 = DIRECTION ( 'NONE',  ( 0.000000000000000000, 0.000000000000000000, -1.000000000000000000 ) ) ;
#202 = AXIS2_PLACEMENT_3D ( 'NONE', #441, #638, #646 ) ;
#203 = EDGE_LOOP ( 'NONE', ( #55, #766, #1162, #1052 ) ) ;
#204 = DIRECTION ( 'NONE',  ( -1.000000000000000000, 0.000000000000000000, 0.000000000000000000 ) ) ;
#205 = VECTOR ( 'NONE', #510, 1000.000000000000000 ) ;
#206 = AXIS2_PLACEMENT_3D ( 'NONE', #572, #673, #247 ) ;
#207 = CYLINDRICAL_SURFACE ( 'NONE', #1079, 1.250000000000001110 ) ;
#208 = AXIS2_PLACEMENT_3D ( 'NONE', #1113, #588, #1008 ) ;
#209 = ORIENTED_EDGE ( 'NONE', *, *, #348, .T. ) ;
#210 = DIRECTION ( 'NONE',  ( -0.000000000000000000, -0.000000000000000000, -1.000000000000000000 ) ) ;
#211 = DIRECTION ( 'NONE',  ( -0.000000000000000000, 0.000000000000000000, -1.000000000000000000 ) ) ;
#212 = EDGE_LOOP ( 'NONE', ( #1241, #78 ) ) ;
#213 = ORIENTED_EDGE ( 'NONE', *, *, #30, .T. ) ;
#214 = ADVANCED_FACE ( 'NONE', ( #932 ), #521, .F. ) ;
#215 = CARTESIAN_POINT ( 'NONE',  ( 57.00000000000000000, 0.000000000000000000, 61.00000000000000000 ) ) ;
#216 = CARTESIAN_POINT ( 'NONE',  ( 47.00000000000000000, 0.000000000000000000, 51.00000000000000000 ) ) ;
#217 = VERTEX_POINT ( 'NONE', #100 ) ;
#218 = ORIENTED_EDGE ( 'NONE', *, *, #860, .T. ) ;
#219 = AXIS2_PLACEMENT_3D ( 'NONE', #77, #1236, #507 ) ;
#220 = EDGE_CURVE ( 'NONE', #232, #1014, #939, .T. ) ;
#221 = DIRECTION ( 'NONE',  ( 0.000000000000000000, 6.994852725712931474E-17, 1.000000000000000000 ) ) ;
#222 = DATE_TIME_ROLE ( 'creation_date' ) ;
#223 = DIRECTION ( 'NONE',  ( -1.000000000000000000, 0.000000000000000000, 0.000000000000000000 ) ) ;
#224 = CARTESIAN_POINT ( 'NONE',  ( 40.75000000000000000, 33.50000000000000000, 5.000000000000001776 ) ) ;
#225 = VERTEX_POINT ( 'NONE', #1359 ) ;
#226 = ORIENTED_EDGE ( 'NONE', *, *, #1305, .T. ) ;
#227 = CYLINDRICAL_SURFACE ( 'NONE', #198, 7.500000000000000000 ) ;
#228 = EDGE_CURVE ( 'NONE', #453, #1215, #28, .T. ) ;
#229 = CARTESIAN_POINT ( 'NONE',  ( 28.50000000000000711, 33.49999999999990052, 5.000000000000001776 ) ) ;
#230 = DIRECTION ( 'NONE',  ( -1.000000000000000000, -0.000000000000000000, -0.000000000000000000 ) ) ;
#231 = EDGE_CURVE ( 'NONE', #663, #883, #833, .T. ) ;
#232 = VERTEX_POINT ( 'NONE', #1264 ) ;
#233 = ORIENTED_EDGE ( 'NONE', *, *, #975, .T. ) ;
#234 = AXIS2_PLACEMENT_3D ( 'NONE', #637, #131, #320 ) ;
#235 = DIRECTION ( 'NONE',  ( 0.000000000000000000, 1.000000000000000000, 0.000000000000000000 ) ) ;
#236 = ORIENTED_EDGE ( 'NONE', *, *, #11, .T. ) ;
#237 = AXIS2_PLACEMENT_3D ( 'NONE', #800, #174, #590 ) ;
#238 = DIRECTION ( 'NONE',  ( -0.000000000000000000, -0.000000000000000000, -1.000000000000000000 ) ) ;
#239 = EDGE_CURVE ( 'NONE', #1140, #1203, #707, .T. ) ;
#240 = ORIENTED_EDGE ( 'NONE', *, *, #944, .F. ) ;
#241 = CIRCLE ( 'NONE', #397, 1.249999999999997558 ) ;
#242 = AXIS2_PLACEMENT_3D ( 'NONE', #106, #410, #835 ) ;
#243 = CARTESIAN_POINT ( 'NONE',  ( 47.00000000000000000, -5.000000000000000888, 51.00000000000000000 ) ) ;
#244 = ADVANCED_FACE ( 'NONE', ( #306 ), #1025, .F. ) ;
#245 = EDGE_LOOP ( 'NONE', ( #301, #160 ) ) ;
#246 = VECTOR ( 'NONE', #1029, 1000.000000000000000 ) ;
#247 = DIRECTION ( 'NONE',  ( 0.000000000000000000, -1.000000000000000000, 1.156482317317871478E-16 ) ) ;
#248 = AXIS2_PLACEMENT_3D ( 'NONE', #487, #938, #709 ) ;
#249 = EDGE_CURVE ( 'NONE', #733, #609, #1002, .T. ) ;
#250 = DIRECTION ( 'NONE',  ( 1.000000000000000000, 9.792793815998106036E-17, -0.000000000000000000 ) ) ;
#251 = ORIENTED_EDGE ( 'NONE', *, *, #1270, .F. ) ;
#252 = CARTESIAN_POINT ( 'NONE',  ( 23.00000000000003197, 45.19134295108994337, 5.000000000000000888 ) ) ;
#253 = ORIENTED_EDGE ( 'NONE', *, *, #96, .T. ) ;
#254 = VECTOR ( 'NONE', #257, 1000.000000000000000 ) ;
#255 = CARTESIAN_POINT ( 'NONE',  ( 0.000000000000000000, 0.000000000000000000, 5.000000000000018652 ) ) ;
#256 = ORIENTED_EDGE ( 'NONE', *, *, #790, .F. ) ;
#257 = DIRECTION ( 'NONE',  ( 1.000000000000000000, 1.040834085586084626E-16, -6.155470398627365301E-18 ) ) ;
#258 = CARTESIAN_POINT ( 'NONE',  ( 15.00000000000000178, 33.50000000000000000, 10.00000000000000000 ) ) ;
#259 = APPROVAL_DATE_TIME ( #58, #516 ) ;
#260 = ORIENTED_EDGE ( 'NONE', *, *, #1252, .F. ) ;
#261 = FACE_BOUND ( 'NONE', #1163, .T. ) ;
#262 = ORIENTED_EDGE ( 'NONE', *, *, #547, .F. ) ;
#263 = DIRECTION ( 'NONE',  ( 0.000000000000000000, 1.000000000000000000, 0.000000000000000000 ) ) ;
#264 = LOCAL_TIME ( 12, 57, 45.00000000000000000, #513 ) ;
#265 = FACE_BOUND ( 'NONE', #648, .T. ) ;
#266 = DIRECTION ( 'NONE',  ( -1.000000000000000000, 0.000000000000000000, 0.000000000000000000 ) ) ;
#267 = CIRCLE ( 'NONE', #448, 12.50000000000000355 ) ;
#268 = ADVANCED_FACE ( 'NONE', ( #923 ), #1248, .F. ) ;
#269 = CARTESIAN_POINT ( 'NONE',  ( 35.24999999999989342, 21.80865704891001755, 0.000000000000000000 ) ) ;
#270 = ORIENTED_EDGE ( 'NONE', *, *, #1211, .F. ) ;
#271 = ADVANCED_FACE ( 'NONE', ( #885 ), #540, .F. ) ;
#272 = CIRCLE ( 'NONE', #338, 1.250000000000001110 ) ;
#273 = DIRECTION ( 'NONE',  ( -1.167602339599774233E-16, 1.000000000000000000, 0.000000000000000000 ) ) ;
#274 = EDGE_LOOP ( 'NONE', ( #1018, #958 ) ) ;
#275 = CARTESIAN_POINT ( 'NONE',  ( 35.25000000000005684, 45.19134295108989363, 0.000000000000000000 ) ) ;
#276 = CARTESIAN_POINT ( 'NONE',  ( 35.25000000000005684, 45.19134295108989363, 0.000000000000000000 ) ) ;
#277 = DIRECTION ( 'NONE',  ( 0.000000000000000000, 0.000000000000000000, -1.000000000000000000 ) ) ;
#278 = CARTESIAN_POINT ( 'NONE',  ( 5.000000000000006217, -26.31497115745568394, 19.06497115745552051 ) ) ;
#279 = ORIENTED_EDGE ( 'NONE', *, *, #547, .T. ) ;
#280 = EDGE_CURVE ( 'NONE', #1207, #1215, #39, .T. ) ;
#281 = CARTESIAN_POINT ( 'NONE',  ( -4.999999999999990230, -50.68502884254444041, 19.06497115745563065 ) ) ;
#282 = EDGE_LOOP ( 'NONE', ( #1273, #960 ) ) ;
#283 = CARTESIAN_POINT ( 'NONE',  ( 28.50000000000000711, 33.49999999999990052, 0.000000000000000000 ) ) ;
#284 = CARTESIAN_POINT ( 'NONE',  ( 0.000000000000000000, -57.00000000000000711, 10.00000000000000178 ) ) ;
#285 = CARTESIAN_POINT ( 'NONE',  ( 0.000000000000000000, -38.50000000000000711, 32.50000000000000000 ) ) ;
#286 = ORIENTED_EDGE ( 'NONE', *, *, #738, .F. ) ;
#287 = VECTOR ( 'NONE', #60, 1000.000000000000000 ) ;
#288 = EDGE_CURVE ( 'NONE', #168, #289, #627, .T. ) ;
#289 = VERTEX_POINT ( 'NONE', #551 ) ;
#290 = CARTESIAN_POINT ( 'NONE',  ( 23.00000000000003197, 45.19134295108994337, 0.000000000000000000 ) ) ;
#291 = DIRECTION ( 'NONE',  ( -1.000000000000000000, 0.000000000000000000, 0.000000000000000000 ) ) ;
#292 = CARTESIAN_POINT ( 'NONE',  ( -4.999999999999993783, -26.31497115745568394, 19.06497115745552051 ) ) ;
#293 = DIRECTION ( 'NONE',  ( 0.000000000000000000, -1.000000000000000000, 0.000000000000000000 ) ) ;
#294 = ORIENTED_EDGE ( 'NONE', *, *, #1169, .T. ) ;
#295 = AXIS2_PLACEMENT_3D ( 'NONE', #155, #462, #380 ) ;
#296 = ORIENTED_EDGE ( 'NONE', *, *, #239, .T. ) ;
#297 = CYLINDRICAL_SURFACE ( 'NONE', #79, 1.250000000000001110 ) ;
#298 = FACE_OUTER_BOUND ( 'NONE', #508, .T. ) ;
#299 = DIRECTION ( 'NONE',  ( -0.000000000000000000, -0.000000000000000000, -1.000000000000000000 ) ) ;
#300 = FACE_OUTER_BOUND ( 'NONE', #855, .T. ) ;
#301 = ORIENTED_EDGE ( 'NONE', *, *, #925, .F. ) ;
#302 = CARTESIAN_POINT ( 'NONE',  ( 15.00000000000000178, 33.50000000000000000, 5.000000000000001776 ) ) ;
#303 = AXIS2_PLACEMENT_3D ( 'NONE', #339, #1293, #235 ) ;
#304 = VECTOR ( 'NONE', #1033, 1000.000000000000000 ) ;
#305 = EDGE_CURVE ( 'NONE', #1180, #1084, #660, .T. ) ;
#306 = FACE_OUTER_BOUND ( 'NONE', #603, .T. ) ;
#307 = AXIS2_PLACEMENT_3D ( 'NONE', #953, #1181, #22 ) ;
#308 = ORIENTED_EDGE ( 'NONE', *, *, #415, .T. ) ;
#309 = LINE ( 'NONE', #1020, #1268 ) ;
#310 = AXIS2_PLACEMENT_3D ( 'NONE', #398, #838, #211 ) ;
#311 = ADVANCED_FACE ( 'NONE', ( #1276 ), #21, .F. ) ;
#312 = DIRECTION ( 'NONE',  ( -0.000000000000000000, -0.000000000000000000, -1.000000000000000000 ) ) ;
#313 = MANIFOLD_SOLID_BREP ( 'ÕóÁÐ(Ô²ÖÜ)8', #600 ) ;
#314 = VECTOR ( 'NONE', #1000, 1000.000000000000000 ) ;
#315 = AXIS2_PLACEMENT_3D ( 'NONE', #302, #406, #822 ) ;
#316 = ORIENTED_EDGE ( 'NONE', *, *, #288, .T. ) ;
#317 = VERTEX_POINT ( 'NONE', #1187 ) ;
#318 = DIRECTION ( 'NONE',  ( -1.000000000000000000, 0.000000000000000000, 0.000000000000000000 ) ) ;
#319 = CALENDAR_DATE ( 2026, 25, 4 ) ;
#320 = DIRECTION ( 'NONE',  ( 0.000000000000000000, -5.551115123125793746E-15, 1.000000000000000000 ) ) ;
#321 = DIRECTION ( 'NONE',  ( -9.792793815998104804E-17, 1.000000000000000000, 0.000000000000000000 ) ) ;
#322 = EDGE_CURVE ( 'NONE', #708, #744, #1166, .T. ) ;
#323 = ORIENTED_EDGE ( 'NONE', *, *, #710, .F. ) ;
#324 = ORIENTED_EDGE ( 'NONE', *, *, #1169, .F. ) ;
#325 = DATE_AND_TIME ( #319, #9 ) ;
#326 = DIRECTION ( 'NONE',  ( 0.000000000000000000, -1.000000000000000000, 0.000000000000000000 ) ) ;
#327 = CARTESIAN_POINT ( 'NONE',  ( 57.00000000000000000, -5.000000000000000000, 0.000000000000000000 ) ) ;
#328 = ORIENTED_EDGE ( 'NONE', *, *, #1059, .T. ) ;
#329 = EDGE_CURVE ( 'NONE', #1361, #1140, #1001, .T. ) ;
#330 = ORIENTED_EDGE ( 'NONE', *, *, #42, .F. ) ;
#331 = EDGE_CURVE ( 'NONE', #663, #194, #850, .T. ) ;
#332 = CARTESIAN_POINT ( 'NONE',  ( 57.00000000000000000, 0.000000000000000000, 5.000000000000004441 ) ) ;
#333 = FACE_OUTER_BOUND ( 'NONE', #127, .T. ) ;
#334 = ORIENTED_EDGE ( 'NONE', *, *, #755, .F. ) ;
#335 = VECTOR ( 'NONE', #991, 1000.000000000000000 ) ;
#336 = ORIENTED_EDGE ( 'NONE', *, *, #825, .T. ) ;
#337 = LINE ( 'NONE', #754, #93 ) ;
#338 = AXIS2_PLACEMENT_3D ( 'NONE', #965, #221, #1291 ) ;
#339 = CARTESIAN_POINT ( 'NONE',  ( -4.999999999999993783, -25.06497115745566617, 45.93502884254446172 ) ) ;
#340 = CYLINDRICAL_SURFACE ( 'NONE', #1075, 1.250000000000001110 ) ;
#341 = ORIENTED_EDGE ( 'NONE', *, *, #134, .T. ) ;
#342 = LINE ( 'NONE', #1193, #854 ) ;
#343 = EDGE_CURVE ( 'NONE', #744, #647, #957, .T. ) ;
#344 = CARTESIAN_POINT ( 'NONE',  ( -4.999999999999993783, -26.31497115745566262, 45.93502884254446172 ) ) ;
#345 = ORIENTED_EDGE ( 'NONE', *, *, #889, .F. ) ;
#346 = CARTESIAN_POINT ( 'NONE',  ( 33.99999999999989342, 21.80865704891001755, 0.000000000000000000 ) ) ;
#347 = SECURITY_CLASSIFICATION ( '', '', #19 ) ;
#348 = EDGE_CURVE ( 'NONE', #429, #1313, #62, .T. ) ;
#349 = FACE_BOUND ( 'NONE', #212, .T. ) ;
#350 = EDGE_LOOP ( 'NONE', ( #559, #361, #253, #185 ) ) ;
#351 = AXIS2_PLACEMENT_3D ( 'NONE', #1143, #1349, #506 ) ;
#352 = DIRECTION ( 'NONE',  ( 0.000000000000000000, -1.000000000000000000, 0.000000000000000000 ) ) ;
#353 = VERTEX_POINT ( 'NONE', #527 ) ;
#354 = DIRECTION ( 'NONE',  ( 0.000000000000000000, 1.000000000000000000, 0.000000000000000000 ) ) ;
#355 = ADVANCED_FACE ( 'NONE', ( #1050 ), #946, .F. ) ;
#356 = ORIENTED_EDGE ( 'NONE', *, *, #738, .T. ) ;
#357 = DIRECTION ( 'NONE',  ( 0.000000000000000000, 0.000000000000000000, -1.000000000000000000 ) ) ;
#358 = CARTESIAN_POINT ( 'NONE',  ( 36.00000000000000711, 33.49999999999990052, 0.000000000000000000 ) ) ;
#359 = VERTEX_POINT ( 'NONE', #358 ) ;
#360 = DIRECTION ( 'NONE',  ( 0.000000000000000000, 0.000000000000000000, -1.000000000000000000 ) ) ;
#361 = ORIENTED_EDGE ( 'NONE', *, *, #607, .T. ) ;
#362 = DIRECTION ( 'NONE',  ( 0.000000000000000000, 0.000000000000000000, -1.000000000000000000 ) ) ;
#363 = FACE_BOUND ( 'NONE', #500, .T. ) ;
#364 = DIRECTION ( 'NONE',  ( 0.000000000000000000, 1.000000000000000000, 0.000000000000000000 ) ) ;
#365 = EDGE_CURVE ( 'NONE', #113, #937, #832, .T. ) ;
#366 = AXIS2_PLACEMENT_3D ( 'NONE', #1174, #633, #865 ) ;
#367 = LINE ( 'NONE', #1127, #1172 ) ;
#368 = ORIENTED_EDGE ( 'NONE', *, *, #1154, .F. ) ;
#369 = DIRECTION ( 'NONE',  ( 0.000000000000000000, 0.000000000000000000, -1.000000000000000000 ) ) ;
#370 = VECTOR ( 'NONE', #610, 1000.000000000000000 ) ;
#371 = DIRECTION ( 'NONE',  ( 0.000000000000000000, -0.000000000000000000, -1.000000000000000000 ) ) ;
#372 = ORIENTED_EDGE ( 'NONE', *, *, #889, .T. ) ;
#373 = CARTESIAN_POINT ( 'NONE',  ( 43.25000000000000711, 33.50000000000000000, 10.00000000000000000 ) ) ;
#374 = DIRECTION ( 'NONE',  ( -0.000000000000000000, 1.000000000000000000, -6.994852725712931474E-17 ) ) ;
#375 = DIRECTION ( 'NONE',  ( 0.000000000000000000, 0.000000000000000000, -1.000000000000000000 ) ) ;
#376 = AXIS2_PLACEMENT_3D ( 'NONE', #997, #984, #65 ) ;
#377 = EDGE_CURVE ( 'NONE', #1313, #429, #1116, .T. ) ;
#378 = CARTESIAN_POINT ( 'NONE',  ( 21.75000000000002842, 45.19134295108994337, 0.000000000000000000 ) ) ;
#379 = EDGE_LOOP ( 'NONE', ( #395, #23 ) ) ;
#380 = DIRECTION ( 'NONE',  ( 0.000000000000000000, -1.000000000000000000, 0.000000000000000000 ) ) ;
#381 = ORIENTED_EDGE ( 'NONE', *, *, #239, .F. ) ;
#382 = DIRECTION ( 'NONE',  ( 0.000000000000000000, -1.000000000000000000, 0.000000000000000000 ) ) ;
#383 = CARTESIAN_POINT ( 'NONE',  ( 28.50000000000000711, 33.49999999999990052, 10.00000000000000000 ) ) ;
#384 = DIRECTION ( 'NONE',  ( 0.000000000000000000, 6.994852725712931474E-17, 1.000000000000000000 ) ) ;
#385 = DIRECTION ( 'NONE',  ( 0.000000000000000000, 0.000000000000000000, 1.000000000000000000 ) ) ;
#386 = ORIENTED_EDGE ( 'NONE', *, *, #758, .T. ) ;
#387 = EDGE_CURVE ( 'NONE', #463, #716, #524, .T. ) ;
#388 = CARTESIAN_POINT ( 'NONE',  ( 0.000000000000000000, -67.00000000000000000, 61.00000000000000000 ) ) ;
#389 = CARTESIAN_POINT ( 'NONE',  ( 57.00000000000000000, 33.50000000000000000, 5.000000000000000888 ) ) ;
#390 = ORIENTED_EDGE ( 'NONE', *, *, #305, .F. ) ;
#391 = LINE ( 'NONE', #1036, #1153 ) ;
#392 = CARTESIAN_POINT ( 'NONE',  ( 0.000000000000000000, -10.15728997517871335, 0.000000000000000000 ) ) ;
#393 = DIRECTION ( 'NONE',  ( 1.000000000000000000, 0.000000000000000000, 0.000000000000000000 ) ) ;
#394 = PERSON_AND_ORGANIZATION_ROLE ( 'design_owner' ) ;
#395 = ORIENTED_EDGE ( 'NONE', *, *, #11, .F. ) ;
#396 = CC_DESIGN_DATE_AND_TIME_ASSIGNMENT ( #422, #222, ( #844 ) ) ;
#397 = AXIS2_PLACEMENT_3D ( 'NONE', #763, #737, #119 ) ;
#398 = CARTESIAN_POINT ( 'NONE',  ( 0.000000000000000000, -10.15728997517871335, 61.00000000000000000 ) ) ;
#399 = ORIENTED_EDGE ( 'NONE', *, *, #220, .F. ) ;
#400 = CARTESIAN_POINT ( 'NONE',  ( 35.24999999999989342, 21.80865704891001755, 10.00000000000000000 ) ) ;
#401 = DIRECTION ( 'NONE',  ( 0.000000000000000000, -0.000000000000000000, -1.000000000000000000 ) ) ;
#402 = CARTESIAN_POINT ( 'NONE',  ( 5.000000000000006217, -26.31497115745566262, 45.93502884254446172 ) ) ;
#403 = VERTEX_POINT ( 'NONE', #112 ) ;
#404 = CIRCLE ( 'NONE', #1292, 1.249999999999997558 ) ;
#405 = EDGE_LOOP ( 'NONE', ( #752, #785 ) ) ;
#406 = DIRECTION ( 'NONE',  ( 0.000000000000000000, 6.994852725712931474E-17, 1.000000000000000000 ) ) ;
#407 = ADVANCED_FACE ( 'NONE', ( #125 ), #544, .F. ) ;
#408 = DIRECTION ( 'NONE',  ( -0.5000000000000095479, -0.8660254037844330455, 0.000000000000000000 ) ) ;
#409 = EDGE_LOOP ( 'NONE', ( #1232, #792, #740, #1089 ) ) ;
#410 = DIRECTION ( 'NONE',  ( 1.000000000000000000, 1.102388789572357910E-16, -0.000000000000000000 ) ) ;
#411 = AXIS2_PLACEMENT_3D ( 'NONE', #779, #1073, #1061 ) ;
#412 = AXIS2_PLACEMENT_3D ( 'NONE', #902, #375, #393 ) ;
#413 = APPROVAL ( #1152, 'æœª' ) ;
#414 = DESIGN_CONTEXT ( 'detailed design', #783, 'design' ) ;
#415 = EDGE_CURVE ( 'NONE', #1207, #353, #651, .T. ) ;
#416 = CARTESIAN_POINT ( 'NONE',  ( 57.00000000000000000, -5.000000000000000000, 61.00000000000000000 ) ) ;
#417 = FACE_OUTER_BOUND ( 'NONE', #898, .T. ) ;
#418 = PRODUCT_DEFINITION_FORMATION_WITH_SPECIFIED_SOURCE ( 'ä»', '', #1182, .NOT_KNOWN. ) ;
#419 = ORIENTED_EDGE ( 'NONE', *, *, #1259, .F. ) ;
#420 = CARTESIAN_POINT ( 'NONE',  ( 0.000000000000000000, -50.68502884254432672, 45.93502884254448304 ) ) ;
#421 = AXIS2_PLACEMENT_3D ( 'NONE', #1303, #161, #369 ) ;
#422 = DATE_AND_TIME ( #1324, #1326 ) ;
#423 = EDGE_CURVE ( 'NONE', #24, #686, #5, .T. ) ;
#424 = DIRECTION ( 'NONE',  ( 1.000000000000000000, 0.000000000000000000, -0.000000000000000000 ) ) ;
#425 = AXIS2_PLACEMENT_3D ( 'NONE', #1037, #1245, #824 ) ;
#426 = CARTESIAN_POINT ( 'NONE',  ( -4.999999999999993783, -25.06497115745566617, 45.93502884254446172 ) ) ;
#427 = CIRCLE ( 'NONE', #248, 1.250000000000001110 ) ;
#428 = ORIENTED_EDGE ( 'NONE', *, *, #758, .F. ) ;
#429 = VERTEX_POINT ( 'NONE', #711 ) ;
#430 = PERSON_AND_ORGANIZATION ( #1078, #945 ) ;
#431 = DIRECTION ( 'NONE',  ( -1.000000000000000000, 0.000000000000000000, 0.000000000000000000 ) ) ;
#432 = EDGE_CURVE ( 'NONE', #542, #453, #674, .T. ) ;
#433 = LINE ( 'NONE', #1282, #703 ) ;
#434 = EDGE_LOOP ( 'NONE', ( #260, #1039, #316, #941 ) ) ;
#435 = EDGE_CURVE ( 'NONE', #744, #663, #892, .T. ) ;
#436 = ORIENTED_EDGE ( 'NONE', *, *, #343, .F. ) ;
#437 = CYLINDRICAL_SURFACE ( 'NONE', #961, 1.249999999999997558 ) ;
#438 = AXIS2_PLACEMENT_3D ( 'NONE', #786, #471, #773 ) ;
#439 = DIRECTION ( 'NONE',  ( 0.000000000000000000, 1.000000000000000000, 0.000000000000000000 ) ) ;
#440 = ORIENTED_EDGE ( 'NONE', *, *, #1100, .T. ) ;
#441 = CARTESIAN_POINT ( 'NONE',  ( 35.24999999999989342, 21.80865704891001755, 5.000000000000002665 ) ) ;
#442 = PRODUCT_DEFINITION_SHAPE ( 'NONE', 'NONE',  #844 ) ;
#443 = EDGE_LOOP ( 'NONE', ( #1183, #1307 ) ) ;
#444 = ORIENTED_EDGE ( 'NONE', *, *, #1333, .T. ) ;
#445 = PLANE ( 'NONE',  #1107 ) ;
#446 = CARTESIAN_POINT ( 'NONE',  ( -4.999999999999991118, -51.93502884254432672, 45.93502884254448304 ) ) ;
#447 = LINE ( 'NONE', #1298, #139 ) ;
#448 = AXIS2_PLACEMENT_3D ( 'NONE', #768, #1308, #362 ) ;
#449 = ORIENTED_EDGE ( 'NONE', *, *, #1156, .F. ) ;
#450 = LINE ( 'NONE', #1296, #611 ) ;
#451 = AXIS2_PLACEMENT_3D ( 'NONE', #1201, #477, #1087 ) ;
#452 = CYLINDRICAL_SURFACE ( 'NONE', #307, 12.50000000000000355 ) ;
#453 = VERTEX_POINT ( 'NONE', #1114 ) ;
#454 = FACE_OUTER_BOUND ( 'NONE', #619, .T. ) ;
#455 = ADVANCED_FACE ( 'NONE', ( #181 ), #1341, .F. ) ;
#456 = ADVANCED_FACE ( 'NONE', ( #574 ), #1234, .T. ) ;
#457 = VERTEX_POINT ( 'NONE', #1010 ) ;
#458 = CARTESIAN_POINT ( 'NONE',  ( 47.00000000000000000, 0.000000000000000000, 51.00000000000000000 ) ) ;
#459 = VECTOR ( 'NONE', #977, 1000.000000000000000 ) ;
#460 = VERTEX_POINT ( 'NONE', #91 ) ;
#461 = ADVANCED_FACE ( 'NONE', ( #480 ), #788, .F. ) ;
#462 = DIRECTION ( 'NONE',  ( 0.000000000000000000, 6.994852725712931474E-17, 1.000000000000000000 ) ) ;
#463 = VERTEX_POINT ( 'NONE', #799 ) ;
#464 = DIRECTION ( 'NONE',  ( 0.000000000000000000, -1.000000000000000000, 0.000000000000000000 ) ) ;
#465 = VECTOR ( 'NONE', #497, 1000.000000000000000 ) ;
#466 = DIRECTION ( 'NONE',  ( 1.000000000000000000, 1.102388789572357910E-16, 0.000000000000000000 ) ) ;
#467 = ORIENTED_EDGE ( 'NONE', *, *, #249, .F. ) ;
#468 = EDGE_CURVE ( 'NONE', #708, #191, #187, .T. ) ;
#469 = DIRECTION ( 'NONE',  ( 1.000000000000000000, 1.040834085586084626E-16, -6.155470398627365301E-18 ) ) ;
#470 = ORIENTED_EDGE ( 'NONE', *, *, #1197, .F. ) ;
#471 = DIRECTION ( 'NONE',  ( 0.000000000000000000, 0.000000000000000000, -1.000000000000000000 ) ) ;
#472 = EDGE_CURVE ( 'NONE', #672, #1203, #701, .T. ) ;
#473 = CARTESIAN_POINT ( 'NONE',  ( 47.00000000000000000, 0.000000000000000000, 61.00000000000000000 ) ) ;
#474 = COORDINATED_UNIVERSAL_TIME_OFFSET ( 8, 0, .AHEAD. ) ;
#475 = ORIENTED_EDGE ( 'NONE', *, *, #586, .T. ) ;
#476 = AXIS2_PLACEMENT_3D ( 'NONE', #632, #864, #431 ) ;
#477 = DIRECTION ( 'NONE',  ( 1.000000000000000000, 9.792793815998106036E-17, 0.000000000000000000 ) ) ;
#478 = ORIENTED_EDGE ( 'NONE', *, *, #1059, .F. ) ;
#479 = DIRECTION ( 'NONE',  ( 0.000000000000000000, 1.110223024625155594E-14, -1.000000000000000000 ) ) ;
#480 = FACE_OUTER_BOUND ( 'NONE', #914, .T. ) ;
#481 = CARTESIAN_POINT ( 'NONE',  ( 40.75000000000000000, 33.50000000000000000, 0.000000000000000000 ) ) ;
#482 = VECTOR ( 'NONE', #1167, 1000.000000000000000 ) ;
#483 = VERTEX_POINT ( 'NONE', #1028 ) ;
#484 = AXIS2_PLACEMENT_3D ( 'NONE', #82, #1086, #775 ) ;
#485 = CARTESIAN_POINT ( 'NONE',  ( 0.000000000000000000, 0.000000000000000000, 61.00000000000000000 ) ) ;
#486 = ORIENTED_EDGE ( 'NONE', *, *, #925, .T. ) ;
#487 = CARTESIAN_POINT ( 'NONE',  ( 42.00000000000000000, 33.50000000000000000, 0.000000000000000000 ) ) ;
#488 = CARTESIAN_POINT ( 'NONE',  ( 0.000000000000000000, 0.000000000000000000, 0.000000000000000000 ) ) ;
#489 = CARTESIAN_POINT ( 'NONE',  ( 57.00000000000000000, -5.000000000000000000, 0.000000000000000000 ) ) ;
#490 = EDGE_CURVE ( 'NONE', #883, #672, #1225, .T. ) ;
#491 = CIRCLE ( 'NONE', #1019, 1.249999999999999334 ) ;
#492 = ORIENTED_EDGE ( 'NONE', *, *, #1100, .F. ) ;
#493 = DIRECTION ( 'NONE',  ( 1.000000000000000000, 0.000000000000000000, -0.000000000000000000 ) ) ;
#494 = CARTESIAN_POINT ( 'NONE',  ( -4.999999999999990230, -51.93502884254444041, 19.06497115745563065 ) ) ;
#495 = ORIENTED_EDGE ( 'NONE', *, *, #998, .T. ) ;
#496 = FACE_OUTER_BOUND ( 'NONE', #753, .T. ) ;
#497 = DIRECTION ( 'NONE',  ( -0.000000000000000000, -1.000000000000000000, -0.000000000000000000 ) ) ;
#498 = CARTESIAN_POINT ( 'NONE',  ( 5.000000000000009770, -53.18502884254444041, 19.06497115745563065 ) ) ;
#499 = EDGE_CURVE ( 'NONE', #168, #460, #987, .T. ) ;
#500 = EDGE_LOOP ( 'NONE', ( #796, #1094 ) ) ;
#501 = DIRECTION ( 'NONE',  ( 0.000000000000000000, 0.000000000000000000, -1.000000000000000000 ) ) ;
#502 = DIRECTION ( 'NONE',  ( 0.000000000000000000, 1.000000000000000000, 0.000000000000000000 ) ) ;
#503 = ORIENTED_EDGE ( 'NONE', *, *, #652, .T. ) ;
#504 = CARTESIAN_POINT ( 'NONE',  ( 16.25000000000000000, 33.50000000000000000, 10.00000000000000000 ) ) ;
#505 = CARTESIAN_POINT ( 'NONE',  ( 57.00000000000000000, 0.000000000000000000, 51.00000000000000000 ) ) ;
#506 = DIRECTION ( 'NONE',  ( -1.000000000000000000, 0.000000000000000000, 0.000000000000000000 ) ) ;
#507 = DIRECTION ( 'NONE',  ( -9.130123557772668334E-17, 1.000000000000000000, 0.000000000000000000 ) ) ;
#508 = EDGE_LOOP ( 'NONE', ( #63, #218, #183, #745 ) ) ;
#509 = EDGE_CURVE ( 'NONE', #609, #733, #404, .T. ) ;
#510 = DIRECTION ( 'NONE',  ( 1.000000000000000000, 9.792793815998106036E-17, -0.000000000000000000 ) ) ;
#511 = EDGE_LOOP ( 'NONE', ( #732, #345 ) ) ;
#512 = CARTESIAN_POINT ( 'NONE',  ( 5.000000000000010658, -67.00000000000000000, 61.00000000000000000 ) ) ;
#513 = COORDINATED_UNIVERSAL_TIME_OFFSET ( 8, 0, .AHEAD. ) ;
#514 = DIRECTION ( 'NONE',  ( 1.000000000000000000, 1.023531433704255018E-16, 1.232595164407830946E-32 ) ) ;
#515 = AXIS2_PLACEMENT_3D ( 'NONE', #258, #1096, #291 ) ;
#516 = APPROVAL ( #930, 'æœª' ) ;
#517 = ORIENTED_EDGE ( 'NONE', *, *, #387, .F. ) ;
#518 = AXIS2_PLACEMENT_3D ( 'NONE', #523, #201, #408 ) ;
#519 = DIRECTION ( 'NONE',  ( -1.000000000000000000, 0.000000000000000000, 0.000000000000000000 ) ) ;
#520 = EDGE_CURVE ( 'NONE', #69, #729, #935, .T. ) ;
#521 = PLANE ( 'NONE',  #584 ) ;
#522 = EDGE_LOOP ( 'NONE', ( #1065, #444, #356, #1184 ) ) ;
#523 = CARTESIAN_POINT ( 'NONE',  ( 21.74999999999986500, 21.80865704891015966, 0.000000000000000000 ) ) ;
#524 = CIRCLE ( 'NONE', #411, 12.50000000000000355 ) ;
#525 = EDGE_CURVE ( 'NONE', #1014, #71, #158, .T. ) ;
#526 = PERSON_AND_ORGANIZATION ( #1078, #945 ) ;
#527 = CARTESIAN_POINT ( 'NONE',  ( 0.000000000000000000, -67.00000000000000000, 10.00000000000001599 ) ) ;
#528 = CIRCLE ( 'NONE', #655, 1.249999999999997780 ) ;
#529 = ORIENTED_EDGE ( 'NONE', *, *, #30, .F. ) ;
#530 = AXIS2_PLACEMENT_3D ( 'NONE', #689, #1327, #354 ) ;
#531 = ORIENTED_EDGE ( 'NONE', *, *, #662, .T. ) ;
#532 = ADVANCED_FACE ( 'NONE', ( #1322, #363, #74, #1217, #265, #683, #166, #580 ), #901, .T. ) ;
#533 = APPROVAL_DATE_TIME ( #325, #413 ) ;
#534 = DIRECTION ( 'NONE',  ( -0.000000000000000000, -0.000000000000000000, -1.000000000000000000 ) ) ;
#535 = CIRCLE ( 'NONE', #121, 1.249999999999997558 ) ;
#536 = DIRECTION ( 'NONE',  ( -1.000000000000000000, -8.673617379884034239E-17, 0.000000000000000000 ) ) ;
#537 = ORIENTED_EDGE ( 'NONE', *, *, #569, .T. ) ;
#538 = EDGE_LOOP ( 'NONE', ( #323, #749 ) ) ;
#539 = DIRECTION ( 'NONE',  ( 0.000000000000000000, 0.000000000000000000, 1.000000000000000000 ) ) ;
#540 = CYLINDRICAL_SURFACE ( 'NONE', #721, 1.250000000000001110 ) ;
#541 = CARTESIAN_POINT ( 'NONE',  ( -4.999999999999993783, -23.81497115745568749, 19.06497115745552051 ) ) ;
#542 = VERTEX_POINT ( 'NONE', #173 ) ;
#543 = VERTEX_POINT ( 'NONE', #692 ) ;
#544 = CYLINDRICAL_SURFACE ( 'NONE', #303, 1.249999999999997558 ) ;
#545 = EDGE_LOOP ( 'NONE', ( #680, #104, #571, #878 ) ) ;
#546 = DIRECTION ( 'NONE',  ( -0.000000000000000000, -0.000000000000000000, -1.000000000000000000 ) ) ;
#547 = EDGE_CURVE ( 'NONE', #457, #647, #589, .T. ) ;
#548 = CC_DESIGN_APPROVAL ( #516, ( #844 ) ) ;
#549 = ORIENTED_EDGE ( 'NONE', *, *, #331, .F. ) ;
#550 = VECTOR ( 'NONE', #967, 1000.000000000000000 ) ;
#551 = CARTESIAN_POINT ( 'NONE',  ( 5.000000000000006217, -23.81497115745566617, 45.93502884254446172 ) ) ;
#552 = LINE ( 'NONE', #750, #1354 ) ;
#553 = CC_DESIGN_SECURITY_CLASSIFICATION ( #347, ( #418 ) ) ;
#554 = AXIS2_PLACEMENT_3D ( 'NONE', #1090, #45, #352 ) ;
#555 = EDGE_LOOP ( 'NONE', ( #270, #1031 ) ) ;
#556 = DIRECTION ( 'NONE',  ( -9.792793815998104804E-17, 1.000000000000000000, 0.000000000000000000 ) ) ;
#557 = EDGE_CURVE ( 'NONE', #87, #886, #1253, .T. ) ;
#558 = CARTESIAN_POINT ( 'NONE',  ( 34.00000000000005684, 45.19134295108989363, 5.000000000000000888 ) ) ;
#559 = ORIENTED_EDGE ( 'NONE', *, *, #85, .F. ) ;
#560 = CYLINDRICAL_SURFACE ( 'NONE', #376, 1.250000000000001110 ) ;
#561 = ADVANCED_FACE ( 'NONE', ( #298 ), #70, .F. ) ;
#562 = EDGE_LOOP ( 'NONE', ( #428, #1064, #475, #341 ) ) ;
#563 = DIRECTION ( 'NONE',  ( -0.000000000000000000, -0.000000000000000000, -1.000000000000000000 ) ) ;
#564 = ORIENTED_EDGE ( 'NONE', *, *, #986, .T. ) ;
#565 = CARTESIAN_POINT ( 'NONE',  ( 13.75000000000000178, 33.50000000000000000, 10.00000000000000000 ) ) ;
#566 = CIRCLE ( 'NONE', #137, 1.249999999999997113 ) ;
#567 = EDGE_CURVE ( 'NONE', #24, #120, #1338, .T. ) ;
#568 = ORIENTED_EDGE ( 'NONE', *, *, #873, .F. ) ;
#569 = EDGE_CURVE ( 'NONE', #634, #774, #122, .T. ) ;
#570 = FACE_OUTER_BOUND ( 'NONE', #576, .T. ) ;
#571 = ORIENTED_EDGE ( 'NONE', *, *, #228, .F. ) ;
#572 = CARTESIAN_POINT ( 'NONE',  ( 28.50000000000000711, 33.49999999999990052, 5.000000000000001776 ) ) ;
#573 = AXIS2_PLACEMENT_3D ( 'NONE', #284, #605, #1135 ) ;
#574 = FACE_OUTER_BOUND ( 'NONE', #1080, .T. ) ;
#575 = CYLINDRICAL_SURFACE ( 'NONE', #219, 28.50000000000000355 ) ;
#576 = EDGE_LOOP ( 'NONE', ( #1109, #152, #804, #3, #641, #871 ) ) ;
#577 = LINE ( 'NONE', #281, #53 ) ;
#578 = VERTEX_POINT ( 'NONE', #794 ) ;
#579 = FACE_OUTER_BOUND ( 'NONE', #1310, .T. ) ;
#580 = FACE_OUTER_BOUND ( 'NONE', #1343, .T. ) ;
#581 = DIRECTION ( 'NONE',  ( 0.000000000000000000, -5.551115123125793746E-15, 1.000000000000000000 ) ) ;
#582 = ORIENTED_EDGE ( 'NONE', *, *, #468, .T. ) ;
#583 = VECTOR ( 'NONE', #1316, 1000.000000000000000 ) ;
#584 = AXIS2_PLACEMENT_3D ( 'NONE', #388, #1147, #1129 ) ;
#585 = DIRECTION ( 'NONE',  ( 0.000000000000000000, 6.994852725712931474E-17, 1.000000000000000000 ) ) ;
#586 = EDGE_CURVE ( 'NONE', #217, #937, #577, .T. ) ;
#587 = ORIENTED_EDGE ( 'NONE', *, *, #509, .T. ) ;
#588 = DIRECTION ( 'NONE',  ( -0.000000000000000000, -0.000000000000000000, -1.000000000000000000 ) ) ;
#589 = LINE ( 'NONE', #1142, #881 ) ;
#590 = DIRECTION ( 'NONE',  ( 0.000000000000000000, 0.000000000000000000, -1.000000000000000000 ) ) ;
#591 = APPROVAL_PERSON_ORGANIZATION ( #430, #413, #1275 ) ;
#592 = CARTESIAN_POINT ( 'NONE',  ( 36.49999999999989342, 21.80865704891001755, 5.000000000000002665 ) ) ;
#593 = ORIENTED_EDGE ( 'NONE', *, *, #557, .T. ) ;
#594 = FACE_BOUND ( 'NONE', #983, .T. ) ;
#595 = EDGE_LOOP ( 'NONE', ( #324, #1346 ) ) ;
#596 = ADVANCED_FACE ( 'NONE', ( #1119 ), #1111, .F. ) ;
#597 = PLANE ( 'NONE',  #843 ) ;
#598 = CARTESIAN_POINT ( 'NONE',  ( 57.00000000000000000, 62.00000000000000711, 5.000000000000000000 ) ) ;
#599 = CARTESIAN_POINT ( 'NONE',  ( 57.00000000000000000, 33.50000000000000000, 0.000000000000000000 ) ) ;
#600 = CLOSED_SHELL ( 'NONE', ( #1023, #1277, #407, #271, #697, #268, #913, #244, #862, #1344, #725, #461, #1091, #214, #994, #532, #643, #720, #623, #820, #618, #903, #355, #455, #561, #76, #311, #922, #1144, #1351, #1161, #456, #1289, #596, #1120, #654, #731 ) ) ;
#601 = DIRECTION ( 'NONE',  ( -0.4999999999999988343, 0.8660254037844392627, 0.000000000000000000 ) ) ;
#602 = EDGE_LOOP ( 'NONE', ( #666, #624, #890, #564 ) ) ;
#603 = EDGE_LOOP ( 'NONE', ( #537, #1213, #1007, #1057 ) ) ;
#604 = DIRECTION ( 'NONE',  ( -0.000000000000000000, 0.000000000000000000, -1.000000000000000000 ) ) ;
#605 = DIRECTION ( 'NONE',  ( -1.000000000000000000, 0.000000000000000000, 0.000000000000000000 ) ) ;
#606 = CARTESIAN_POINT ( 'NONE',  ( 5.000000000000004441, -5.000000000000006217, 0.000000000000000000 ) ) ;
#607 = EDGE_CURVE ( 'NONE', #774, #634, #10, .T. ) ;
#608 = PERSON_AND_ORGANIZATION ( #1078, #945 ) ;
#609 = VERTEX_POINT ( 'NONE', #665 ) ;
#610 = DIRECTION ( 'NONE',  ( -0.000000000000000000, -0.000000000000000000, -1.000000000000000000 ) ) ;
#611 = VECTOR ( 'NONE', #144, 1000.000000000000000 ) ;
#612 = EDGE_LOOP ( 'NONE', ( #841, #1339, #853, #921 ) ) ;
#613 = CARTESIAN_POINT ( 'NONE',  ( 15.00000000000000178, 33.50000000000000000, 0.000000000000000000 ) ) ;
#614 = DIRECTION ( 'NONE',  ( -0.000000000000000000, -0.000000000000000000, -1.000000000000000000 ) ) ;
#615 = DIRECTION ( 'NONE',  ( 1.000000000000000000, 1.040834085586084503E-16, -6.155470398627365301E-18 ) ) ;
#616 = CC_DESIGN_PERSON_AND_ORGANIZATION_ASSIGNMENT ( #526, #831, ( #347 ) ) ;
#617 = CIRCLE ( 'NONE', #72, 1.250000000000001110 ) ;
#618 = ADVANCED_FACE ( 'NONE', ( #570 ), #1088, .F. ) ;
#619 = EDGE_LOOP ( 'NONE', ( #294, #812, #782, #656 ) ) ;
#620 = FACE_BOUND ( 'NONE', #133, .T. ) ;
#621 = VECTOR ( 'NONE', #1314, 1000.000000000000000 ) ;
#622 = CIRCLE ( 'NONE', #797, 1.250000000000002220 ) ;
#623 = ADVANCED_FACE ( 'NONE', ( #915 ), #907, .F. ) ;
#624 = ORIENTED_EDGE ( 'NONE', *, *, #944, .T. ) ;
#625 = DIRECTION ( 'NONE',  ( -1.000000000000000000, -9.792793815998106036E-17, 0.000000000000000000 ) ) ;
#626 = PERSON_AND_ORGANIZATION ( #1078, #945 ) ;
#627 = LINE ( 'NONE', #736, #895 ) ;
#628 = ORIENTED_EDGE ( 'NONE', *, *, #280, .F. ) ;
#629 = EDGE_CURVE ( 'NONE', #777, #729, #784, .T. ) ;
#630 = ORIENTED_EDGE ( 'NONE', *, *, #607, .F. ) ;
#631 = COORDINATED_UNIVERSAL_TIME_OFFSET ( 8, 0, .AHEAD. ) ;
#632 = CARTESIAN_POINT ( 'NONE',  ( 21.75000000000002842, 45.19134295108994337, 10.00000000000000000 ) ) ;
#633 = DIRECTION ( 'NONE',  ( 0.000000000000000000, 0.000000000000000000, -1.000000000000000000 ) ) ;
#634 = VERTEX_POINT ( 'NONE', #54 ) ;
#635 = ORIENTED_EDGE ( 'NONE', *, *, #141, .T. ) ;
#636 = CC_DESIGN_PERSON_AND_ORGANIZATION_ASSIGNMENT ( #626, #12, ( #418 ) ) ;
#637 = CARTESIAN_POINT ( 'NONE',  ( 5.000000000000009770, -51.93502884254444041, 19.06497115745563065 ) ) ;
#638 = DIRECTION ( 'NONE',  ( 0.000000000000000000, 6.994852725712931474E-17, 1.000000000000000000 ) ) ;
#639 = VECTOR ( 'NONE', #250, 1000.000000000000000 ) ;
#640 = ORIENTED_EDGE ( 'NONE', *, *, #1252, .T. ) ;
#641 = ORIENTED_EDGE ( 'NONE', *, *, #432, .T. ) ;
#642 = CARTESIAN_POINT ( 'NONE',  ( 36.50000000000005684, 45.19134295108989363, 0.000000000000000000 ) ) ;
#643 = ADVANCED_FACE ( 'NONE', ( #1312, #882, #1231, #1345, #594, #1214, #261, #169 ), #897, .T. ) ;
#644 = DIRECTION ( 'NONE',  ( 0.000000000000000000, -1.000000000000000000, 1.156482317317871478E-16 ) ) ;
#645 = ORIENTED_EDGE ( 'NONE', *, *, #879, .F. ) ;
#646 = DIRECTION ( 'NONE',  ( 0.000000000000000000, -1.000000000000000000, 0.000000000000000000 ) ) ;
#647 = VERTEX_POINT ( 'NONE', #255 ) ;
#648 = EDGE_LOOP ( 'NONE', ( #861, #1352 ) ) ;
#649 = CARTESIAN_POINT ( 'NONE',  ( 43.25000000000000711, 33.50000000000000000, 0.000000000000000000 ) ) ;
#650 = AXIS2_PLACEMENT_3D ( 'NONE', #1042, #312, #1015 ) ;
#651 = LINE ( 'NONE', #138, #583 ) ;
#652 = EDGE_CURVE ( 'NONE', #225, #772, #178, .T. ) ;
#653 = DIRECTION ( 'NONE',  ( 1.167602339599774233E-16, -1.000000000000000000, -0.000000000000000000 ) ) ;
#654 = ADVANCED_FACE ( 'NONE', ( #80 ), #1318, .F. ) ;
#655 = AXIS2_PLACEMENT_3D ( 'NONE', #269, #685, #1117 ) ;
#656 = ORIENTED_EDGE ( 'NONE', *, *, #557, .F. ) ;
#657 = CIRCLE ( 'NONE', #1196, 1.249999999999997780 ) ;
#658 = DIRECTION ( 'NONE',  ( -1.000000000000000000, 0.000000000000000000, 0.000000000000000000 ) ) ;
#659 = CIRCLE ( 'NONE', #880, 1.250000000000001110 ) ;
#660 = CIRCLE ( 'NONE', #1336, 7.500000000000000000 ) ;
#661 = CIRCLE ( 'NONE', #1082, 1.250000000000001110 ) ;
#662 = EDGE_CURVE ( 'NONE', #772, #578, #163, .T. ) ;
#663 = VERTEX_POINT ( 'NONE', #389 ) ;
#664 = CARTESIAN_POINT ( 'NONE',  ( 40.75000000000000000, 33.50000000000000000, 10.00000000000000000 ) ) ;
#665 = CARTESIAN_POINT ( 'NONE',  ( 0.000000000000000000, -23.81497115745568749, 19.06497115745552051 ) ) ;
#666 = ORIENTED_EDGE ( 'NONE', *, *, #1044, .F. ) ;
#667 = EDGE_CURVE ( 'NONE', #716, #463, #1043, .T. ) ;
#668 = DIRECTION ( 'NONE',  ( 0.000000000000000000, -0.000000000000000000, -1.000000000000000000 ) ) ;
#669 = EDGE_CURVE ( 'NONE', #232, #95, #8, .T. ) ;
#670 = ORIENTED_EDGE ( 'NONE', *, *, #998, .F. ) ;
#671 = DIRECTION ( 'NONE',  ( 0.000000000000000000, -1.000000000000000000, 0.000000000000000000 ) ) ;
#672 = VERTEX_POINT ( 'NONE', #109 ) ;
#673 = DIRECTION ( 'NONE',  ( 0.000000000000000000, 6.994852725712931474E-17, 1.000000000000000000 ) ) ;
#674 = LINE ( 'NONE', #806, #130 ) ;
#675 = PERSON_AND_ORGANIZATION ( #1078, #945 ) ;
#676 = ORIENTED_EDGE ( 'NONE', *, *, #42, .T. ) ;
#677 = CC_DESIGN_APPROVAL ( #1297, ( #347 ) ) ;
#678 = DIRECTION ( 'NONE',  ( 0.000000000000000000, 6.994852725712931474E-17, 1.000000000000000000 ) ) ;
#679 = CIRCLE ( 'NONE', #863, 1.250000000000001110 ) ;
#680 = ORIENTED_EDGE ( 'NONE', *, *, #61, .T. ) ;
#681 = DIRECTION ( 'NONE',  ( 1.000000000000000000, 9.792793815998106036E-17, 0.000000000000000000 ) ) ;
#682 = AXIS2_PLACEMENT_3D ( 'NONE', #276, #401, #823 ) ;
#683 = FACE_BOUND ( 'NONE', #171, .T. ) ;
#684 = DIRECTION ( 'NONE',  ( -0.000000000000000000, -0.000000000000000000, -1.000000000000000000 ) ) ;
#685 = DIRECTION ( 'NONE',  ( -0.000000000000000000, 0.000000000000000000, -1.000000000000000000 ) ) ;
#686 = VERTEX_POINT ( 'NONE', #420 ) ;
#687 = AXIS2_PLACEMENT_3D ( 'NONE', #458, #884, #1204 ) ;
#688 = EDGE_CURVE ( 'NONE', #578, #317, #936, .T. ) ;
#689 = CARTESIAN_POINT ( 'NONE',  ( -4.999999999999991118, -51.93502884254432672, 45.93502884254448304 ) ) ;
#690 = EDGE_LOOP ( 'NONE', ( #123, #517 ) ) ;
#691 = FACE_OUTER_BOUND ( 'NONE', #1257, .T. ) ;
#692 = CARTESIAN_POINT ( 'NONE',  ( 13.75000000000000178, 33.50000000000000000, 0.000000000000000000 ) ) ;
#693 = DIRECTION ( 'NONE',  ( 1.000000000000000000, 1.102388789572357910E-16, -0.000000000000000000 ) ) ;
#694 = DIRECTION ( 'NONE',  ( 0.000000000000000000, -0.000000000000000000, -1.000000000000000000 ) ) ;
#695 = ORIENTED_EDGE ( 'NONE', *, *, #472, .T. ) ;
#696 = VECTOR ( 'NONE', #1281, 1000.000000000000000 ) ;
#697 = ADVANCED_FACE ( 'NONE', ( #1262 ), #192, .F. ) ;
#698 = CARTESIAN_POINT ( 'NONE',  ( -4.999999999999991118, -53.18502884254432672, 45.93502884254448304 ) ) ;
#699 = ORIENTED_EDGE ( 'NONE', *, *, #46, .F. ) ;
#700 = DIRECTION ( 'NONE',  ( 0.000000000000000000, 0.000000000000000000, -1.000000000000000000 ) ) ;
#701 = LINE ( 'NONE', #392, #1178 ) ;
#702 = CARTESIAN_POINT ( 'NONE',  ( 5.000000000000008882, -53.18502884254432672, 45.93502884254448304 ) ) ;
#703 = VECTOR ( 'NONE', #230, 1000.000000000000000 ) ;
#704 = DIRECTION ( 'NONE',  ( -1.000000000000000000, 0.000000000000000000, 0.000000000000000000 ) ) ;
#705 = ORIENTED_EDGE ( 'NONE', *, *, #1202, .F. ) ;
#706 = VECTOR ( 'NONE', #563, 1000.000000000000000 ) ;
#707 = LINE ( 'NONE', #726, #304 ) ;
#708 = VERTEX_POINT ( 'NONE', #136 ) ;
#709 = DIRECTION ( 'NONE',  ( 1.000000000000000000, 0.000000000000000000, 0.000000000000000000 ) ) ;
#710 = EDGE_CURVE ( 'NONE', #1265, #777, #272, .T. ) ;
#711 = CARTESIAN_POINT ( 'NONE',  ( 5.000000000000006217, -23.81497115745568749, 19.06497115745552051 ) ) ;
#712 = CARTESIAN_POINT ( 'NONE',  ( 23.00000000000003197, 45.19134295108994337, 10.00000000000000000 ) ) ;
#713 = CIRCLE ( 'NONE', #1200, 1.249999999999998224 ) ;
#714 = DIRECTION ( 'NONE',  ( 0.000000000000000000, 6.994852725712931474E-17, 1.000000000000000000 ) ) ;
#715 = EDGE_LOOP ( 'NONE', ( #336, #1283, #676, #705 ) ) ;
#716 = VERTEX_POINT ( 'NONE', #747 ) ;
#717 = CARTESIAN_POINT ( 'NONE',  ( 0.000000000000000000, -25.06497115745566617, 45.93502884254446172 ) ) ;
#718 = CARTESIAN_POINT ( 'NONE',  ( 33.99999999999989342, 21.80865704891001755, 10.00000000000000000 ) ) ;
#719 = CARTESIAN_POINT ( 'NONE',  ( 36.49999999999989342, 21.80865704891001755, 10.00000000000000000 ) ) ;
#720 = ADVANCED_FACE ( 'NONE', ( #956 ), #445, .F. ) ;
#721 = AXIS2_PLACEMENT_3D ( 'NONE', #446, #756, #439 ) ;
#722 = EDGE_LOOP ( 'NONE', ( #699, #176, #1325, #328 ) ) ;
#723 = CARTESIAN_POINT ( 'NONE',  ( 5.000000000000009770, -50.68502884254444041, 19.06497115745563065 ) ) ;
#724 = AXIS2_PLACEMENT_3D ( 'NONE', #1076, #714, #293 ) ;
#725 = ADVANCED_FACE ( 'NONE', ( #25 ), #227, .F. ) ;
#726 = CARTESIAN_POINT ( 'NONE',  ( 0.000000000000000000, -57.00000000000000711, 0.000000000000000000 ) ) ;
#727 = FACE_BOUND ( 'NONE', #405, .T. ) ;
#728 = AXIS2_PLACEMENT_3D ( 'NONE', #426, #1240, #502 ) ;
#729 = VERTEX_POINT ( 'NONE', #642 ) ;
#730 = DIRECTION ( 'NONE',  ( -0.000000000000000000, -0.000000000000000000, -1.000000000000000000 ) ) ;
#731 = ADVANCED_FACE ( 'NONE', ( #970 ), #437, .F. ) ;
#732 = ORIENTED_EDGE ( 'NONE', *, *, #520, .F. ) ;
#733 = VERTEX_POINT ( 'NONE', #129 ) ;
#734 = DIRECTION ( 'NONE',  ( -0.000000000000000000, -0.000000000000000000, -1.000000000000000000 ) ) ;
#735 = DATE_TIME_ROLE ( 'classification_date' ) ;
#736 = CARTESIAN_POINT ( 'NONE',  ( -4.999999999999993783, -23.81497115745566617, 45.93502884254446172 ) ) ;
#737 = DIRECTION ( 'NONE',  ( 1.000000000000000000, 0.000000000000000000, -0.000000000000000000 ) ) ;
#738 = EDGE_CURVE ( 'NONE', #1265, #69, #337, .T. ) ;
#739 = VERTEX_POINT ( 'NONE', #649 ) ;
#740 = ORIENTED_EDGE ( 'NONE', *, *, #1110, .T. ) ;
#741 = DATE_AND_TIME ( #842, #264 ) ;
#742 = CARTESIAN_POINT ( 'NONE',  ( -4.999999999999989342, -67.00000000000000000, 32.50000000000000000 ) ) ;
#743 = LINE ( 'NONE', #851, #459 ) ;
#744 = VERTEX_POINT ( 'NONE', #37 ) ;
#745 = ORIENTED_EDGE ( 'NONE', *, *, #124, .T. ) ;
#746 = EDGE_CURVE ( 'NONE', #41, #194, #450, .T. ) ;
#747 = CARTESIAN_POINT ( 'NONE',  ( 5.000000000000006217, -26.00000000000000355, 32.50000000000000000 ) ) ;
#748 = DIRECTION ( 'NONE',  ( 1.000000000000000000, 1.102388789572357910E-16, 0.000000000000000000 ) ) ;
#749 = ORIENTED_EDGE ( 'NONE', *, *, #1333, .F. ) ;
#750 = CARTESIAN_POINT ( 'NONE',  ( 5.000000000000010658, -67.00000000000000000, 10.00000000000000178 ) ) ;
#751 = AXIS2_PLACEMENT_3D ( 'NONE', #383, #57, #1105 ) ;
#752 = ORIENTED_EDGE ( 'NONE', *, *, #1063, .T. ) ;
#753 = EDGE_LOOP ( 'NONE', ( #978, #226, #593, #916 ) ) ;
#754 = CARTESIAN_POINT ( 'NONE',  ( 34.00000000000005684, 45.19134295108989363, 10.00000000000000000 ) ) ;
#755 = EDGE_CURVE ( 'NONE', #1140, #95, #342, .T. ) ;
#756 = DIRECTION ( 'NONE',  ( 1.000000000000000000, 9.792793815998106036E-17, -0.000000000000000000 ) ) ;
#757 = CARTESIAN_POINT ( 'NONE',  ( 21.00000000000000711, 33.49999999999990052, 10.00000000000000000 ) ) ;
#758 = EDGE_CURVE ( 'NONE', #1068, #113, #976, .T. ) ;
#759 = ORIENTED_EDGE ( 'NONE', *, *, #755, .T. ) ;
#760 = CARTESIAN_POINT ( 'NONE',  ( -4.999999999999993783, -25.06497115745568749, 19.06497115745552051 ) ) ;
#761 = AXIS2_PLACEMENT_3D ( 'NONE', #1210, #424, #999 ) ;
#762 = AXIS2_PLACEMENT_3D ( 'NONE', #1139, #1, #1238 ) ;
#763 = CARTESIAN_POINT ( 'NONE',  ( 0.000000000000000000, -51.93502884254444041, 19.06497115745563065 ) ) ;
#764 = EDGE_CURVE ( 'NONE', #1035, #543, #1032, .T. ) ;
#765 = CC_DESIGN_APPROVAL ( #413, ( #418 ) ) ;
#766 = ORIENTED_EDGE ( 'NONE', *, *, #879, .T. ) ;
#767 = AXIS2_PLACEMENT_3D ( 'NONE', #49, #273, #988 ) ;
#768 = CARTESIAN_POINT ( 'NONE',  ( 0.000000000000000000, -38.50000000000000711, 32.50000000000000000 ) ) ;
#769 = FACE_BOUND ( 'NONE', #1099, .T. ) ;
#770 = VECTOR ( 'NONE', #815, 1000.000000000000000 ) ;
#771 = EDGE_CURVE ( 'NONE', #217, #1068, #1208, .T. ) ;
#772 = VERTEX_POINT ( 'NONE', #51 ) ;
#773 = DIRECTION ( 'NONE',  ( -1.000000000000000000, 0.000000000000000000, 0.000000000000000000 ) ) ;
#774 = VERTEX_POINT ( 'NONE', #252 ) ;
#775 = DIRECTION ( 'NONE',  ( 0.000000000000000000, 0.000000000000000000, -1.000000000000000000 ) ) ;
#776 = DIRECTION ( 'NONE',  ( -1.000000000000000000, 0.000000000000000000, -0.000000000000000000 ) ) ;
#777 = VERTEX_POINT ( 'NONE', #165 ) ;
#778 = DIRECTION ( 'NONE',  ( 0.000000000000000000, 6.994852725712931474E-17, 1.000000000000000000 ) ) ;
#779 = CARTESIAN_POINT ( 'NONE',  ( 5.000000000000007105, -38.50000000000000711, 32.50000000000000000 ) ) ;
#780 = CIRCLE ( 'NONE', #687, 10.00000000000000178 ) ;
#781 = COORDINATED_UNIVERSAL_TIME_OFFSET ( 8, 0, .AHEAD. ) ;
#782 = ORIENTED_EDGE ( 'NONE', *, *, #1048, .T. ) ;
#783 = APPLICATION_CONTEXT ( 'configuration controlled 3d designs of mechanical parts and assemblies' ) ;
#784 = LINE ( 'NONE', #151, #706 ) ;
#785 = ORIENTED_EDGE ( 'NONE', *, *, #423, .T. ) ;
#786 = CARTESIAN_POINT ( 'NONE',  ( 15.00000000000000178, 33.50000000000000000, 0.000000000000000000 ) ) ;
#787 = AXIS2_PLACEMENT_3D ( 'NONE', #175, #385, #1246 ) ;
#788 = CYLINDRICAL_SURFACE ( 'NONE', #515, 1.249999999999999334 ) ;
#789 = DIRECTION ( 'NONE',  ( 1.000000000000000000, 0.000000000000000000, -0.000000000000000000 ) ) ;
#790 = EDGE_CURVE ( 'NONE', #71, #708, #780, .T. ) ;
#791 = CIRCLE ( 'NONE', #839, 7.500000000000000000 ) ;
#792 = ORIENTED_EDGE ( 'NONE', *, *, #802, .F. ) ;
#793 = APPROVAL_PERSON_ORGANIZATION ( #1165, #1297, #1255 ) ;
#794 = CARTESIAN_POINT ( 'NONE',  ( 22.99999999999986855, 21.80865704891015966, 0.000000000000000000 ) ) ;
#795 = AXIS2_PLACEMENT_3D ( 'NONE', #153, #464, #668 ) ;
#796 = ORIENTED_EDGE ( 'NONE', *, *, #1363, .F. ) ;
#797 = AXIS2_PLACEMENT_3D ( 'NONE', #275, #56, #149 ) ;
#798 = DIRECTION ( 'NONE',  ( -0.000000000000000000, -0.000000000000000000, -1.000000000000000000 ) ) ;
#799 = CARTESIAN_POINT ( 'NONE',  ( 5.000000000000007994, -51.00000000000000711, 32.50000000000000000 ) ) ;
#800 = CARTESIAN_POINT ( 'NONE',  ( 0.000000000000000000, -38.50000000000000711, 32.50000000000000000 ) ) ;
#801 = ORIENTED_EDGE ( 'NONE', *, *, #1230, .F. ) ;
#802 = EDGE_CURVE ( 'NONE', #483, #821, #267, .T. ) ;
#803 = DIRECTION ( 'NONE',  ( 0.000000000000000000, 6.994852725712931474E-17, 1.000000000000000000 ) ) ;
#804 = ORIENTED_EDGE ( 'NONE', *, *, #1299, .T. ) ;
#805 = DIRECTION ( 'NONE',  ( 1.000000000000000000, 0.000000000000000000, -0.000000000000000000 ) ) ;
#806 = CARTESIAN_POINT ( 'NONE',  ( -4.999999999999992006, -38.50000000000000711, 61.00000000000000000 ) ) ;
#807 = LINE ( 'NONE', #99, #314 ) ;
#808 = DIRECTION ( 'NONE',  ( 0.000000000000000000, 6.994852725712931474E-17, 1.000000000000000000 ) ) ;
#809 = ORIENTED_EDGE ( 'NONE', *, *, #1054, .F. ) ;
#810 = DIRECTION ( 'NONE',  ( 1.000000000000000000, 1.167602339599774233E-16, -0.000000000000000000 ) ) ;
#811 = EDGE_CURVE ( 'NONE', #120, #980, #101, .T. ) ;
#812 = ORIENTED_EDGE ( 'NONE', *, *, #20, .T. ) ;
#813 = DIRECTION ( 'NONE',  ( -1.000000000000000000, 0.000000000000000000, 0.000000000000000000 ) ) ;
#814 = DIRECTION ( 'NONE',  ( 1.000000000000000000, 0.000000000000000000, -0.000000000000000000 ) ) ;
#815 = DIRECTION ( 'NONE',  ( -0.000000000000000000, -0.000000000000000000, -1.000000000000000000 ) ) ;
#816 = VECTOR ( 'NONE', #870, 1000.000000000000000 ) ;
#817 = FACE_OUTER_BOUND ( 'NONE', #108, .T. ) ;
#818 = EDGE_LOOP ( 'NONE', ( #89, #1279 ) ) ;
#819 = CARTESIAN_POINT ( 'NONE',  ( 5.000000000000007994, -38.50000000000000711, 32.50000000000000000 ) ) ;
#820 = ADVANCED_FACE ( 'NONE', ( #579 ), #1330, .F. ) ;
#821 = VERTEX_POINT ( 'NONE', #1209 ) ;
#822 = DIRECTION ( 'NONE',  ( 0.000000000000000000, -1.000000000000000000, 0.000000000000000000 ) ) ;
#823 = DIRECTION ( 'NONE',  ( 0.5000000000000051070, 0.8660254037844358210, 0.000000000000000000 ) ) ;
#824 = DIRECTION ( 'NONE',  ( -1.000000000000000000, 0.000000000000000000, 0.000000000000000000 ) ) ;
#825 = EDGE_CURVE ( 'NONE', #1084, #1180, #1290, .T. ) ;
#826 = VECTOR ( 'NONE', #83, 1000.000000000000000 ) ;
#827 = COORDINATED_UNIVERSAL_TIME_OFFSET ( 8, 0, .AHEAD. ) ;
#828 = FACE_OUTER_BOUND ( 'NONE', #434, .T. ) ;
#829 = ORIENTED_EDGE ( 'NONE', *, *, #1259, .T. ) ;
#830 = FACE_OUTER_BOUND ( 'NONE', #1317, .T. ) ;
#831 = PERSON_AND_ORGANIZATION_ROLE ( 'classification_officer' ) ;
#832 = CIRCLE ( 'NONE', #234, 1.249999999999997558 ) ;
#833 = CIRCLE ( 'NONE', #762, 28.50000000000000355 ) ;
#834 = ORIENTED_EDGE ( 'NONE', *, *, #652, .F. ) ;
#835 = DIRECTION ( 'NONE',  ( 0.000000000000000000, 1.000000000000000000, 0.000000000000000000 ) ) ;
#836 = CIRCLE ( 'NONE', #202, 1.250000000000001110 ) ;
#837 = DIRECTION ( 'NONE',  ( -9.130123557772668334E-17, 1.000000000000000000, 0.000000000000000000 ) ) ;
#838 = DIRECTION ( 'NONE',  ( 1.000000000000000000, 0.000000000000000000, -0.000000000000000000 ) ) ;
#839 = AXIS2_PLACEMENT_3D ( 'NONE', #283, #700, #1122 ) ;
#840 = ORIENTED_EDGE ( 'NONE', *, *, #1197, .T. ) ;
#841 = ORIENTED_EDGE ( 'NONE', *, *, #331, .T. ) ;
#842 = CALENDAR_DATE ( 2026, 25, 4 ) ;
#843 = AXIS2_PLACEMENT_3D ( 'NONE', #512, #625, #1233 ) ;
#844 = PRODUCT_DEFINITION ( 'æœ', '', #418, #414 ) ;
#845 = DIRECTION ( 'NONE',  ( 0.000000000000000000, -1.000000000000000000, 0.000000000000000000 ) ) ;
#846 = CARTESIAN_POINT ( 'NONE',  ( 36.00000000000000711, 33.49999999999990052, 5.000000000000001776 ) ) ;
#847 = EDGE_CURVE ( 'NONE', #974, #543, #1224, .T. ) ;
#848 = EDGE_LOOP ( 'NONE', ( #467, #213, #1205, #1132 ) ) ;
#849 = EDGE_LOOP ( 'NONE', ( #801, #386, #1295, #97 ) ) ;
#850 = LINE ( 'NONE', #971, #894 ) ;
#851 = CARTESIAN_POINT ( 'NONE',  ( 0.000000000000000000, -10.15728997517871335, 61.00000000000000000 ) ) ;
#852 = EDGE_CURVE ( 'NONE', #1170, #142, #990, .T. ) ;
#853 = ORIENTED_EDGE ( 'NONE', *, *, #490, .F. ) ;
#854 = VECTOR ( 'NONE', #556, 1000.000000000000000 ) ;
#855 = EDGE_LOOP ( 'NONE', ( #645, #59, #989, #486 ) ) ;
#856 = DIRECTION ( 'NONE',  ( 1.000000000000000000, 1.102388789572357910E-16, -0.000000000000000000 ) ) ;
#857 = DIRECTION ( 'NONE',  ( 1.000000000000000000, 1.040834085586083640E-16, 6.155470398627365301E-18 ) ) ;
#858 = FACE_OUTER_BOUND ( 'NONE', #849, .T. ) ;
#859 = EDGE_LOOP ( 'NONE', ( #308, #840, #1284, #628 ) ) ;
#860 = EDGE_CURVE ( 'NONE', #772, #225, #679, .T. ) ;
#861 = ORIENTED_EDGE ( 'NONE', *, *, #124, .F. ) ;
#862 = ADVANCED_FACE ( 'NONE', ( #691 ), #560, .F. ) ;
#863 = AXIS2_PLACEMENT_3D ( 'NONE', #1085, #778, #877 ) ;
#864 = DIRECTION ( 'NONE',  ( -0.000000000000000000, -0.000000000000000000, -1.000000000000000000 ) ) ;
#865 = DIRECTION ( 'NONE',  ( -0.4999999999999988343, 0.8660254037844392627, 0.000000000000000000 ) ) ;
#866 = EDGE_LOOP ( 'NONE', ( #1335, #809 ) ) ;
#867 = VECTOR ( 'NONE', #942, 1000.000000000000000 ) ;
#868 = CARTESIAN_POINT ( 'NONE',  ( 57.00000000000000000, 0.000000000000000000, 61.00000000000000000 ) ) ;
#869 = EDGE_CURVE ( 'NONE', #974, #403, #1337, .T. ) ;
#870 = DIRECTION ( 'NONE',  ( 1.000000000000000000, 1.102388789572357910E-16, -0.000000000000000000 ) ) ;
#871 = ORIENTED_EDGE ( 'NONE', *, *, #1156, .T. ) ;
#872 = CYLINDRICAL_SURFACE ( 'NONE', #1159, 1.250000000000001110 ) ;
#873 = EDGE_CURVE ( 'NONE', #289, #31, #1274, .T. ) ;
#874 = VECTOR ( 'NONE', #29, 1000.000000000000000 ) ;
#875 = ORIENTED_EDGE ( 'NONE', *, *, #499, .T. ) ;
#876 = AXIS2_PLACEMENT_3D ( 'NONE', #1017, #678, #671 ) ;
#877 = DIRECTION ( 'NONE',  ( 0.000000000000000000, -1.000000000000000000, 0.000000000000000000 ) ) ;
#878 = ORIENTED_EDGE ( 'NONE', *, *, #432, .F. ) ;
#879 = EDGE_CURVE ( 'NONE', #7, #739, #899, .T. ) ;
#880 = AXIS2_PLACEMENT_3D ( 'NONE', #67, #893, #364 ) ;
#881 = VECTOR ( 'NONE', #614, 1000.000000000000000 ) ;
#882 = FACE_BOUND ( 'NONE', #595, .T. ) ;
#883 = VERTEX_POINT ( 'NONE', #1104 ) ;
#884 = DIRECTION ( 'NONE',  ( -0.000000000000000000, 1.000000000000000000, -0.000000000000000000 ) ) ;
#885 = FACE_OUTER_BOUND ( 'NONE', #1168, .T. ) ;
#886 = VERTEX_POINT ( 'NONE', #346 ) ;
#887 = CARTESIAN_POINT ( 'NONE',  ( 2.407412430484051659E-32, -53.18502884254444041, 19.06497115745563065 ) ) ;
#888 = CARTESIAN_POINT ( 'NONE',  ( 21.75000000000002842, 45.19134295108994337, 5.000000000000000888 ) ) ;
#889 = EDGE_CURVE ( 'NONE', #729, #69, #622, .T. ) ;
#890 = ORIENTED_EDGE ( 'NONE', *, *, #847, .T. ) ;
#891 = CYLINDRICAL_SURFACE ( 'NONE', #208, 28.50000000000000355 ) ;
#892 = LINE ( 'NONE', #598, #1300 ) ;
#893 = DIRECTION ( 'NONE',  ( 1.000000000000000000, 9.792793815998106036E-17, 0.000000000000000000 ) ) ;
#894 = VECTOR ( 'NONE', #534, 1000.000000000000000 ) ;
#895 = VECTOR ( 'NONE', #857, 1000.000000000000000 ) ;
#896 = ORIENTED_EDGE ( 'NONE', *, *, #1263, .T. ) ;
#897 = PLANE ( 'NONE',  #117 ) ;
#898 = EDGE_LOOP ( 'NONE', ( #695, #1247, #135, #1192, #251, #279, #1288, #47 ) ) ;
#899 = LINE ( 'NONE', #373, #1221 ) ;
#900 = CIRCLE ( 'NONE', #1243, 10.00000000000000178 ) ;
#901 = PLANE ( 'NONE',  #1101 ) ;
#902 = CARTESIAN_POINT ( 'NONE',  ( 42.00000000000000000, 33.50000000000000000, 0.000000000000000000 ) ) ;
#903 = ADVANCED_FACE ( 'NONE', ( #172 ), #891, .T. ) ;
#904 = APPLICATION_PROTOCOL_DEFINITION ( 'international standard', 'config_control_design', 1994, #783 ) ;
#905 = EDGE_LOOP ( 'NONE', ( #1121, #640, #233, #81 ) ) ;
#906 = AXIS2_PLACEMENT_3D ( 'NONE', #285, #789, #919 ) ;
#907 = PLANE ( 'NONE',  #767 ) ;
#908 = ORIENTED_EDGE ( 'NONE', *, *, #472, .F. ) ;
#909 = CIRCLE ( 'NONE', #315, 1.250000000000001110 ) ;
#910 = CARTESIAN_POINT ( 'NONE',  ( 42.00000000000000000, 33.50000000000000000, 5.000000000000001776 ) ) ;
#911 = DIRECTION ( 'NONE',  ( 0.000000000000000000, 0.000000000000000000, -1.000000000000000000 ) ) ;
#912 = CARTESIAN_POINT ( 'NONE',  ( 46.99999999999998579, 0.000000000000000000, 61.00000000000000000 ) ) ;
#913 = ADVANCED_FACE ( 'NONE', ( #454 ), #872, .F. ) ;
#914 = EDGE_LOOP ( 'NONE', ( #1149, #1301, #1092, #926 ) ) ;
#915 = FACE_OUTER_BOUND ( 'NONE', #50, .T. ) ;
#916 = ORIENTED_EDGE ( 'NONE', *, *, #1363, .T. ) ;
#917 = CARTESIAN_POINT ( 'NONE',  ( 35.24999999999989342, 21.80865704891001755, 10.00000000000000000 ) ) ;
#918 = CARTESIAN_POINT ( 'NONE',  ( 0.000000000000000000, -25.06497115745566617, 45.93502884254446172 ) ) ;
#919 = DIRECTION ( 'NONE',  ( 0.000000000000000000, 0.000000000000000000, -1.000000000000000000 ) ) ;
#920 = APPLICATION_PROTOCOL_DEFINITION ( 'international standard', 'config_control_design', 1994, #1046 ) ;
#921 = ORIENTED_EDGE ( 'NONE', *, *, #231, .F. ) ;
#922 = ADVANCED_FACE ( 'NONE', ( #496 ), #297, .F. ) ;
#923 = FACE_OUTER_BOUND ( 'NONE', #203, .T. ) ;
#924 = CARTESIAN_POINT ( 'NONE',  ( 42.00000000000000000, 33.50000000000000000, 10.00000000000000000 ) ) ;
#925 = EDGE_CURVE ( 'NONE', #142, #739, #427, .T. ) ;
#926 = ORIENTED_EDGE ( 'NONE', *, *, #847, .F. ) ;
#927 = FACE_BOUND ( 'NONE', #818, .T. ) ;
#928 = DIRECTION ( 'NONE',  ( 0.000000000000000000, 0.000000000000000000, -1.000000000000000000 ) ) ;
#929 = LINE ( 'NONE', #1106, #1131 ) ;
#930 = APPROVAL_STATUS ( 'not_yet_approved' ) ;
#931 = ORIENTED_EDGE ( 'NONE', *, *, #435, .F. ) ;
#932 = FACE_OUTER_BOUND ( 'NONE', #859, .T. ) ;
#933 = ORIENTED_EDGE ( 'NONE', *, *, #746, .T. ) ;
#934 = CARTESIAN_POINT ( 'NONE',  ( 47.00000000000000000, -5.000000000000000888, 61.00000000000000000 ) ) ;
#935 = CIRCLE ( 'NONE', #682, 1.250000000000002220 ) ;
#936 = CIRCLE ( 'NONE', #518, 1.249999999999998224 ) ;
#937 = VERTEX_POINT ( 'NONE', #723 ) ;
#938 = DIRECTION ( 'NONE',  ( 0.000000000000000000, 0.000000000000000000, -1.000000000000000000 ) ) ;
#939 = LINE ( 'NONE', #416, #1261 ) ;
#940 = AXIS2_PLACEMENT_3D ( 'NONE', #1067, #118, #1055 ) ;
#941 = ORIENTED_EDGE ( 'NONE', *, *, #873, .T. ) ;
#942 = DIRECTION ( 'NONE',  ( -0.000000000000000000, -0.000000000000000000, -1.000000000000000000 ) ) ;
#943 = PERSON_AND_ORGANIZATION_ROLE ( 'creator' ) ;
#944 = EDGE_CURVE ( 'NONE', #403, #974, #909, .T. ) ;
#945 = ORGANIZATION ( 'æœª', 'æœª', '' ) ;
#946 = CYLINDRICAL_SURFACE ( 'NONE', #1190, 1.249999999999999334 ) ;
#947 = AXIS2_PLACEMENT_3D ( 'NONE', #485, #360, #776 ) ;
#948 = CARTESIAN_POINT ( 'NONE',  ( 57.00000000000000000, -5.000000000000000000, 61.00000000000000000 ) ) ;
#949 = ORIENTED_EDGE ( 'NONE', *, *, #387, .T. ) ;
#950 = ORIENTED_EDGE ( 'NONE', *, *, #231, .T. ) ;
#951 = APPROVAL_DATE_TIME ( #741, #1297 ) ;
#952 = DIRECTION ( 'NONE',  ( 1.000000000000000000, 9.792793815998106036E-17, -0.000000000000000000 ) ) ;
#953 = CARTESIAN_POINT ( 'NONE',  ( -4.999999999999992895, -38.50000000000000711, 32.50000000000000000 ) ) ;
#954 = EDGE_LOOP ( 'NONE', ( #1176, #164, #495, #236 ) ) ;
#955 = ORIENTED_EDGE ( 'NONE', *, *, #435, .T. ) ;
#956 = FACE_OUTER_BOUND ( 'NONE', #964, .T. ) ;
#957 = LINE ( 'NONE', #332, #696 ) ;
#958 = ORIENTED_EDGE ( 'NONE', *, *, #764, .F. ) ;
#959 = CARTESIAN_POINT ( 'NONE',  ( 36.49999999999989342, 21.80865704891001755, 0.000000000000000000 ) ) ;
#960 = ORIENTED_EDGE ( 'NONE', *, *, #162, .T. ) ;
#961 = AXIS2_PLACEMENT_3D ( 'NONE', #760, #856, #1066 ) ;
#962 = AXIS2_PLACEMENT_3D ( 'NONE', #88, #493, #501 ) ;
#963 = EDGE_CURVE ( 'NONE', #460, #168, #972, .T. ) ;
#964 = EDGE_LOOP ( 'NONE', ( #179, #582, #440, #933, #549, #931 ) ) ;
#965 = CARTESIAN_POINT ( 'NONE',  ( 35.25000000000005684, 45.19134295108989363, 5.000000000000000888 ) ) ;
#966 = DIRECTION ( 'NONE',  ( -0.000000000000000000, -0.000000000000000000, -1.000000000000000000 ) ) ;
#967 = DIRECTION ( 'NONE',  ( 0.000000000000000000, -0.000000000000000000, -1.000000000000000000 ) ) ;
#968 = APPROVAL_PERSON_ORGANIZATION ( #608, #516, #1357 ) ;
#969 = ORIENTED_EDGE ( 'NONE', *, *, #1186, .T. ) ;
#970 = FACE_OUTER_BOUND ( 'NONE', #32, .T. ) ;
#971 = CARTESIAN_POINT ( 'NONE',  ( 57.00000000000000000, 33.50000000000000000, 10.00000000000000000 ) ) ;
#972 = CIRCLE ( 'NONE', #145, 1.250000000000001110 ) ;
#973 = LINE ( 'NONE', #344, #482 ) ;
#974 = VERTEX_POINT ( 'NONE', #1150 ) ;
#975 = EDGE_CURVE ( 'NONE', #31, #289, #661, .T. ) ;
#976 = LINE ( 'NONE', #1199, #254 ) ;
#977 = DIRECTION ( 'NONE',  ( -0.000000000000000000, -1.000000000000000000, -0.000000000000000000 ) ) ;
#978 = ORIENTED_EDGE ( 'NONE', *, *, #20, .F. ) ;
#979 = DIRECTION ( 'NONE',  ( 1.000000000000000000, 0.000000000000000000, -0.000000000000000000 ) ) ;
#980 = VERTEX_POINT ( 'NONE', #186 ) ;
#981 = CARTESIAN_POINT ( 'NONE',  ( 21.74999999999986500, 21.80865704891015966, 10.00000000000000000 ) ) ;
#982 = CIRCLE ( 'NONE', #366, 1.249999999999997113 ) ;
#983 = EDGE_LOOP ( 'NONE', ( #834, #1219 ) ) ;
#984 = DIRECTION ( 'NONE',  ( -0.000000000000000000, -0.000000000000000000, -1.000000000000000000 ) ) ;
#985 = ORIENTED_EDGE ( 'NONE', *, *, #710, .T. ) ;
#986 = EDGE_CURVE ( 'NONE', #543, #1035, #491, .T. ) ;
#987 = CIRCLE ( 'NONE', #1060, 1.250000000000001110 ) ;
#988 = DIRECTION ( 'NONE',  ( -1.000000000000000000, -1.167602339599774233E-16, 0.000000000000000000 ) ) ;
#989 = ORIENTED_EDGE ( 'NONE', *, *, #852, .T. ) ;
#990 = LINE ( 'NONE', #664, #621 ) ;
#991 = DIRECTION ( 'NONE',  ( 0.000000000000000000, 1.000000000000000000, 0.000000000000000000 ) ) ;
#992 =( LENGTH_UNIT ( ) NAMED_UNIT ( * ) SI_UNIT ( .MILLI., .METRE. ) );
#993 = ORIENTED_EDGE ( 'NONE', *, *, #1311, .F. ) ;
#994 = ADVANCED_FACE ( 'NONE', ( #927, #90, #620, #195, #1347, #830 ), #597, .F. ) ;
#995 = DIRECTION ( 'NONE',  ( 0.000000000000000000, -1.000000000000000000, 6.994852725712931474E-17 ) ) ;
#996 = EDGE_LOOP ( 'NONE', ( #154, #635, #949, #147 ) ) ;
#997 = CARTESIAN_POINT ( 'NONE',  ( 35.25000000000005684, 45.19134295108989363, 10.00000000000000000 ) ) ;
#998 = EDGE_CURVE ( 'NONE', #686, #980, #391, .T. ) ;
#999 = DIRECTION ( 'NONE',  ( 0.000000000000000000, 0.000000000000000000, -1.000000000000000000 ) ) ;
#1000 = DIRECTION ( 'NONE',  ( 1.000000000000000000, 9.792793815998106036E-17, -0.000000000000000000 ) ) ;
#1001 = CIRCLE ( 'NONE', #940, 9.999999999999994671 ) ;
#1002 = CIRCLE ( 'NONE', #962, 1.249999999999997558 ) ;
#1003 = PERSON_AND_ORGANIZATION ( #1078, #945 ) ;
#1004 = ORIENTED_EDGE ( 'NONE', *, *, #669, .F. ) ;
#1005 = CARTESIAN_POINT ( 'NONE',  ( 21.00000000000000711, 33.49999999999990052, 5.000000000000001776 ) ) ;
#1006 = CARTESIAN_POINT ( 'NONE',  ( 22.99999999999986855, 21.80865704891015966, 10.00000000000000000 ) ) ;
#1007 = ORIENTED_EDGE ( 'NONE', *, *, #1315, .T. ) ;
#1008 = DIRECTION ( 'NONE',  ( -1.000000000000000000, 0.000000000000000000, 0.000000000000000000 ) ) ;
#1009 =( GEOMETRIC_REPRESENTATION_CONTEXT ( 3 ) GLOBAL_UNCERTAINTY_ASSIGNED_CONTEXT ( ( #107 ) ) GLOBAL_UNIT_ASSIGNED_CONTEXT ( ( #992, #1228, #1108 ) ) REPRESENTATION_CONTEXT ( 'NONE', 'WORKASPACE' ) );
#1010 = CARTESIAN_POINT ( 'NONE',  ( 0.000000000000000000, 0.000000000000000000, 61.00000000000000000 ) ) ;
#1011 = CARTESIAN_POINT ( 'NONE',  ( 0.000000000000000000, -23.81497115745566617, 45.93502884254446172 ) ) ;
#1012 = CIRCLE ( 'NONE', #421, 10.00000000000000000 ) ;
#1013 = FACE_OUTER_BOUND ( 'NONE', #545, .T. ) ;
#1014 = VERTEX_POINT ( 'NONE', #934 ) ;
#1015 = DIRECTION ( 'NONE',  ( -1.000000000000000000, 0.000000000000000000, 0.000000000000000000 ) ) ;
#1016 = VECTOR ( 'NONE', #693, 1000.000000000000000 ) ;
#1017 = CARTESIAN_POINT ( 'NONE',  ( 21.74999999999986500, 21.80865704891015966, 5.000000000000002665 ) ) ;
#1018 = ORIENTED_EDGE ( 'NONE', *, *, #986, .F. ) ;
#1019 = AXIS2_PLACEMENT_3D ( 'NONE', #613, #1141, #813 ) ;
#1020 = CARTESIAN_POINT ( 'NONE',  ( 5.000000000000010658, -67.00000000000000000, 61.00000000000000000 ) ) ;
#1021 = DIRECTION ( 'NONE',  ( 0.000000000000000000, -1.000000000000000000, 0.000000000000000000 ) ) ;
#1022 = LINE ( 'NONE', #719, #246 ) ;
#1023 = ADVANCED_FACE ( 'NONE', ( #1362 ), #1258, .F. ) ;
#1024 = EDGE_LOOP ( 'NONE', ( #36, #630 ) ) ;
#1025 = CYLINDRICAL_SURFACE ( 'NONE', #650, 1.250000000000001110 ) ;
#1026 = ORIENTED_EDGE ( 'NONE', *, *, #975, .F. ) ;
#1027 = DIRECTION ( 'NONE',  ( 0.000000000000000000, 1.110223024625155594E-14, -1.000000000000000000 ) ) ;
#1028 = CARTESIAN_POINT ( 'NONE',  ( 0.000000000000000000, -26.00000000000000355, 32.50000000000000000 ) ) ;
#1029 = DIRECTION ( 'NONE',  ( -0.000000000000000000, 0.000000000000000000, -1.000000000000000000 ) ) ;
#1030 = DIRECTION ( 'NONE',  ( 0.000000000000000000, -1.000000000000000000, 0.000000000000000000 ) ) ;
#1031 = ORIENTED_EDGE ( 'NONE', *, *, #1315, .F. ) ;
#1032 = CIRCLE ( 'NONE', #438, 1.249999999999999334 ) ;
#1033 = DIRECTION ( 'NONE',  ( -1.000000000000000000, -0.000000000000000000, -0.000000000000000000 ) ) ;
#1034 = FACE_BOUND ( 'NONE', #282, .T. ) ;
#1035 = VERTEX_POINT ( 'NONE', #1266 ) ;
#1036 = CARTESIAN_POINT ( 'NONE',  ( -4.999999999999991118, -50.68502884254432672, 45.93502884254448304 ) ) ;
#1037 = CARTESIAN_POINT ( 'NONE',  ( 28.50000000000000711, 33.49999999999990052, 0.000000000000000000 ) ) ;
#1038 = EDGE_CURVE ( 'NONE', #1215, #1361, #309, .T. ) ;
#1039 = ORIENTED_EDGE ( 'NONE', *, *, #499, .F. ) ;
#1040 = DIRECTION ( 'NONE',  ( 1.000000000000000000, 9.792793815998106036E-17, -0.000000000000000000 ) ) ;
#1041 = VECTOR ( 'NONE', #1302, 1000.000000000000000 ) ;
#1042 = CARTESIAN_POINT ( 'NONE',  ( 21.75000000000002842, 45.19134295108994337, 10.00000000000000000 ) ) ;
#1043 = CIRCLE ( 'NONE', #451, 12.50000000000000355 ) ;
#1044 = EDGE_CURVE ( 'NONE', #403, #1035, #1353, .T. ) ;
#1045 = VERTEX_POINT ( 'NONE', #1242 ) ;
#1046 = APPLICATION_CONTEXT ( 'configuration controlled 3d designs of mechanical parts and assemblies' ) ;
#1047 = CARTESIAN_POINT ( 'NONE',  ( 5.000000000000004441, -5.000000000000006217, 61.00000000000000000 ) ) ;
#1048 = EDGE_CURVE ( 'NONE', #1249, #886, #657, .T. ) ;
#1049 = CALENDAR_DATE ( 2026, 25, 4 ) ;
#1050 = FACE_OUTER_BOUND ( 'NONE', #602, .T. ) ;
#1051 = LINE ( 'NONE', #948, #370 ) ;
#1052 = ORIENTED_EDGE ( 'NONE', *, *, #852, .F. ) ;
#1053 = ORIENTED_EDGE ( 'NONE', *, *, #963, .T. ) ;
#1054 = EDGE_CURVE ( 'NONE', #7, #1170, #617, .T. ) ;
#1055 = DIRECTION ( 'NONE',  ( 8.673617379884040402E-17, -1.000000000000000000, 0.000000000000000000 ) ) ;
#1056 = LINE ( 'NONE', #1278, #550 ) ;
#1057 = ORIENTED_EDGE ( 'NONE', *, *, #96, .F. ) ;
#1058 = VERTEX_POINT ( 'NONE', #290 ) ;
#1059 = EDGE_CURVE ( 'NONE', #1045, #359, #791, .T. ) ;
#1060 = AXIS2_PLACEMENT_3D ( 'NONE', #918, #1348, #928 ) ;
#1061 = DIRECTION ( 'NONE',  ( -6.938893903907225912E-17, 1.000000000000000000, 0.000000000000000000 ) ) ;
#1062 = LINE ( 'NONE', #757, #116 ) ;
#1063 = EDGE_CURVE ( 'NONE', #686, #24, #13, .T. ) ;
#1064 = ORIENTED_EDGE ( 'NONE', *, *, #771, .F. ) ;
#1065 = ORIENTED_EDGE ( 'NONE', *, *, #629, .F. ) ;
#1066 = DIRECTION ( 'NONE',  ( 0.000000000000000000, 1.000000000000000000, 0.000000000000000000 ) ) ;
#1067 = CARTESIAN_POINT ( 'NONE',  ( 5.000000000000009770, -57.00000000000000711, 10.00000000000000178 ) ) ;
#1068 = VERTEX_POINT ( 'NONE', #887 ) ;
#1069 = DIRECTION ( 'NONE',  ( 0.000000000000000000, 1.000000000000000000, 0.000000000000000000 ) ) ;
#1070 = ORIENTED_EDGE ( 'NONE', *, *, #228, .T. ) ;
#1071 = AXIS2_PLACEMENT_3D ( 'NONE', #1179, #466, #326 ) ;
#1072 = ORIENTED_EDGE ( 'NONE', *, *, #825, .F. ) ;
#1073 = DIRECTION ( 'NONE',  ( 1.000000000000000000, 9.792793815998106036E-17, 0.000000000000000000 ) ) ;
#1074 = CARTESIAN_POINT ( 'NONE',  ( -4.999999999999990230, -51.93502884254444041, 19.06497115745563065 ) ) ;
#1075 = AXIS2_PLACEMENT_3D ( 'NONE', #1074, #43, #1286 ) ;
#1076 = CARTESIAN_POINT ( 'NONE',  ( 35.24999999999989342, 21.80865704891001755, 5.000000000000002665 ) ) ;
#1077 = EDGE_CURVE ( 'NONE', #1203, #353, #1012, .T. ) ;
#1078 = PERSON ( 'æœª', 'æœª', 'æœª', ('æœª'), ('æœª'), ('æœª') ) ;
#1079 = AXIS2_PLACEMENT_3D ( 'NONE', #924, #238, #658 ) ;
#1080 = EDGE_LOOP ( 'NONE', ( #44, #381, #18, #470 ) ) ;
#1081 = CIRCLE ( 'NONE', #412, 1.250000000000001110 ) ;
#1082 = AXIS2_PLACEMENT_3D ( 'NONE', #4, #1134, #1027 ) ;
#1083 = CARTESIAN_POINT ( 'NONE',  ( 0.000000000000000000, -67.00000000000000000, 32.50000000000000000 ) ) ;
#1084 = VERTEX_POINT ( 'NONE', #1005 ) ;
#1085 = CARTESIAN_POINT ( 'NONE',  ( 21.74999999999986500, 21.80865704891015966, 5.000000000000002665 ) ) ;
#1086 = DIRECTION ( 'NONE',  ( 1.000000000000000000, 0.000000000000000000, -0.000000000000000000 ) ) ;
#1087 = DIRECTION ( 'NONE',  ( -6.938893903907225912E-17, 1.000000000000000000, 0.000000000000000000 ) ) ;
#1088 = PLANE ( 'NONE',  #947 ) ;
#1089 = ORIENTED_EDGE ( 'NONE', *, *, #667, .T. ) ;
#1090 = CARTESIAN_POINT ( 'NONE',  ( 15.00000000000000178, 33.50000000000000000, 5.000000000000001776 ) ) ;
#1091 = ADVANCED_FACE ( 'NONE', ( #769, #349, #2, #727, #1034, #417 ), #1148, .F. ) ;
#1092 = ORIENTED_EDGE ( 'NONE', *, *, #764, .T. ) ;
#1093 = DIRECTION ( 'NONE',  ( -1.000000000000000000, 0.000000000000000000, 0.000000000000000000 ) ) ;
#1094 = ORIENTED_EDGE ( 'NONE', *, *, #1048, .F. ) ;
#1095 = CARTESIAN_POINT ( 'NONE',  ( 5.000000000000006217, -25.06497115745566617, 45.93502884254446172 ) ) ;
#1096 = DIRECTION ( 'NONE',  ( -0.000000000000000000, -0.000000000000000000, -1.000000000000000000 ) ) ;
#1097 = PRODUCT_RELATED_PRODUCT_CATEGORY ( 'detail', '', ( #1182 ) ) ;
#1098 = PERSON_AND_ORGANIZATION_ROLE ( 'creator' ) ;
#1099 = EDGE_LOOP ( 'NONE', ( #587, #52 ) ) ;
#1100 = EDGE_CURVE ( 'NONE', #191, #41, #1051, .T. ) ;
#1101 = AXIS2_PLACEMENT_3D ( 'NONE', #488, #911, #1331 ) ;
#1102 = DIRECTION ( 'NONE',  ( 0.000000000000000000, 1.000000000000000000, 0.000000000000000000 ) ) ;
#1103 = EDGE_LOOP ( 'NONE', ( #950, #993, #436, #955 ) ) ;
#1104 = CARTESIAN_POINT ( 'NONE',  ( 0.000000000000000000, 33.50000000000000000, 5.000000000000002665 ) ) ;
#1105 = DIRECTION ( 'NONE',  ( -1.000000000000000000, 0.000000000000000000, 0.000000000000000000 ) ) ;
#1106 = CARTESIAN_POINT ( 'NONE',  ( 36.00000000000000711, 33.49999999999990052, 10.00000000000000000 ) ) ;
#1107 = AXIS2_PLACEMENT_3D ( 'NONE', #868, #318, #539 ) ;
#1108 =( NAMED_UNIT ( * ) SI_UNIT ( $, .STERADIAN. ) SOLID_ANGLE_UNIT ( ) );
#1109 = ORIENTED_EDGE ( 'NONE', *, *, #220, .T. ) ;
#1110 = EDGE_CURVE ( 'NONE', #483, #716, #1155, .T. ) ;
#1111 = CYLINDRICAL_SURFACE ( 'NONE', #530, 1.250000000000001110 ) ;
#1112 = ORIENTED_EDGE ( 'NONE', *, *, #1038, .T. ) ;
#1113 = CARTESIAN_POINT ( 'NONE',  ( 28.50000000000000000, 33.50000000000000000, 10.00000000000000000 ) ) ;
#1114 = CARTESIAN_POINT ( 'NONE',  ( 5.000000000000007994, -38.50000000000000711, 61.00000000000000000 ) ) ;
#1115 = CARTESIAN_POINT ( 'NONE',  ( 33.99999999999989342, 21.80865704891001755, 5.000000000000002665 ) ) ;
#1116 = CIRCLE ( 'NONE', #1071, 1.249999999999997558 ) ;
#1117 = DIRECTION ( 'NONE',  ( 0.4999999999999902300, -0.8660254037844443697, 0.000000000000000000 ) ) ;
#1118 = ORIENTED_EDGE ( 'NONE', *, *, #322, .T. ) ;
#1119 = FACE_OUTER_BOUND ( 'NONE', #954, .T. ) ;
#1120 = ADVANCED_FACE ( 'NONE', ( #828 ), #102, .F. ) ;
#1121 = ORIENTED_EDGE ( 'NONE', *, *, #963, .F. ) ;
#1122 = DIRECTION ( 'NONE',  ( -1.000000000000000000, 0.000000000000000000, 0.000000000000000000 ) ) ;
#1123 = LOCAL_TIME ( 12, 57, 45.00000000000000000, #827 ) ;
#1124 = DIRECTION ( 'NONE',  ( 1.000000000000000000, 9.792793815998106036E-17, -0.000000000000000000 ) ) ;
#1125 = CARTESIAN_POINT ( 'NONE',  ( 57.00000000000000000, -5.000000000000000000, 51.00000000000000711 ) ) ;
#1126 = AXIS2_PLACEMENT_3D ( 'NONE', #494, #469, #1102 ) ;
#1127 = CARTESIAN_POINT ( 'NONE',  ( 0.000000000000000000, 62.00000000000000711, 5.000000000000000000 ) ) ;
#1128 = ORIENTED_EDGE ( 'NONE', *, *, #329, .T. ) ;
#1129 = DIRECTION ( 'NONE',  ( 0.000000000000000000, -0.000000000000000000, 1.000000000000000000 ) ) ;
#1130 = CARTESIAN_POINT ( 'NONE',  ( 5.000000000000009770, -57.00000000000000711, 0.000000000000000000 ) ) ;
#1131 = VECTOR ( 'NONE', #1226, 1000.000000000000000 ) ;
#1132 = ORIENTED_EDGE ( 'NONE', *, *, #1186, .F. ) ;
#1133 = CC_DESIGN_PERSON_AND_ORGANIZATION_ASSIGNMENT ( #1003, #394, ( #1182 ) ) ;
#1134 = DIRECTION ( 'NONE',  ( 1.000000000000000000, 1.040834085586083640E-16, 6.155470398627365301E-18 ) ) ;
#1135 = DIRECTION ( 'NONE',  ( 0.000000000000000000, 0.000000000000000000, 1.000000000000000000 ) ) ;
#1136 = LINE ( 'NONE', #292, #1016 ) ;
#1137 = CARTESIAN_POINT ( 'NONE',  ( 21.74999999999986500, 21.80865704891015966, 10.00000000000000000 ) ) ;
#1138 = ORIENTED_EDGE ( 'NONE', *, *, #629, .T. ) ;
#1139 = CARTESIAN_POINT ( 'NONE',  ( 28.50000000000000000, 33.50000000000000000, 5.000000000000001776 ) ) ;
#1140 = VERTEX_POINT ( 'NONE', #1130 ) ;
#1141 = DIRECTION ( 'NONE',  ( 0.000000000000000000, 0.000000000000000000, -1.000000000000000000 ) ) ;
#1142 = CARTESIAN_POINT ( 'NONE',  ( 0.000000000000000000, 0.000000000000000000, 61.00000000000000000 ) ) ;
#1143 = CARTESIAN_POINT ( 'NONE',  ( 28.50000000000000000, 33.50000000000000000, 0.000000000000000000 ) ) ;
#1144 = ADVANCED_FACE ( 'NONE', ( #300 ), #207, .F. ) ;
#1145 = PERSON_AND_ORGANIZATION ( #1078, #945 ) ;
#1146 = VECTOR ( 'NONE', #952, 1000.000000000000000 ) ;
#1147 = DIRECTION ( 'NONE',  ( 0.000000000000000000, 1.000000000000000000, 0.000000000000000000 ) ) ;
#1148 = PLANE ( 'NONE',  #310 ) ;
#1149 = ORIENTED_EDGE ( 'NONE', *, *, #869, .T. ) ;
#1150 = CARTESIAN_POINT ( 'NONE',  ( 13.75000000000000178, 33.50000000000000000, 5.000000000000001776 ) ) ;
#1151 = LOCAL_TIME ( 12, 57, 45.00000000000000000, #781 ) ;
#1152 = APPROVAL_STATUS ( 'not_yet_approved' ) ;
#1153 = VECTOR ( 'NONE', #1040, 1000.000000000000000 ) ;
#1154 = EDGE_CURVE ( 'NONE', #225, #317, #1056, .T. ) ;
#1155 = LINE ( 'NONE', #15, #205 ) ;
#1156 = EDGE_CURVE ( 'NONE', #453, #232, #447, .T. ) ;
#1157 = ORIENTED_EDGE ( 'NONE', *, *, #869, .F. ) ;
#1158 = CARTESIAN_POINT ( 'NONE',  ( 35.24999999999989342, 21.80865704891001755, 0.000000000000000000 ) ) ;
#1159 = AXIS2_PLACEMENT_3D ( 'NONE', #400, #1251, #519 ) ;
#1160 = DIRECTION ( 'NONE',  ( 1.000000000000000000, 9.792793815998106036E-17, -0.000000000000000000 ) ) ;
#1161 = ADVANCED_FACE ( 'NONE', ( #333 ), #140, .T. ) ;
#1162 = ORIENTED_EDGE ( 'NONE', *, *, #148, .T. ) ;
#1163 = EDGE_LOOP ( 'NONE', ( #1157, #240 ) ) ;
#1164 = DIRECTION ( 'NONE',  ( -1.000000000000000000, 0.000000000000000000, 0.000000000000000000 ) ) ;
#1165 = PERSON_AND_ORGANIZATION ( #1078, #945 ) ;
#1166 = LINE ( 'NONE', #215, #170 ) ;
#1167 = DIRECTION ( 'NONE',  ( 1.000000000000000000, 1.040834085586083640E-16, 6.155470398627365301E-18 ) ) ;
#1168 = EDGE_LOOP ( 'NONE', ( #150, #114, #1328, #670 ) ) ;
#1169 = EDGE_CURVE ( 'NONE', #87, #1350, #836, .T. ) ;
#1170 = VERTEX_POINT ( 'NONE', #224 ) ;
#1171 = APPROVAL_STATUS ( 'not_yet_approved' ) ;
#1172 = VECTOR ( 'NONE', #86, 1000.000000000000000 ) ;
#1173 = DIRECTION ( 'NONE',  ( -0.000000000000000000, -0.000000000000000000, -1.000000000000000000 ) ) ;
#1174 = CARTESIAN_POINT ( 'NONE',  ( 21.75000000000002842, 45.19134295108994337, 0.000000000000000000 ) ) ;
#1175 = ORIENTED_EDGE ( 'NONE', *, *, #790, .T. ) ;
#1176 = ORIENTED_EDGE ( 'NONE', *, *, #567, .F. ) ;
#1177 = CARTESIAN_POINT ( 'NONE',  ( 28.50000000000000711, 33.49999999999990052, 10.00000000000000000 ) ) ;
#1178 = VECTOR ( 'NONE', #1021, 1000.000000000000000 ) ;
#1179 = CARTESIAN_POINT ( 'NONE',  ( 5.000000000000006217, -25.06497115745568749, 19.06497115745552051 ) ) ;
#1180 = VERTEX_POINT ( 'NONE', #846 ) ;
#1181 = DIRECTION ( 'NONE',  ( 1.000000000000000000, 9.792793815998106036E-17, -0.000000000000000000 ) ) ;
#1182 = PRODUCT ( '34\X2\8f748fde63a54ef6\X0\', '34\X2\8f748fde63a54ef6\X0\', '', ( #190 ) ) ;
#1183 = ORIENTED_EDGE ( 'NONE', *, *, #134, .F. ) ;
#1184 = ORIENTED_EDGE ( 'NONE', *, *, #520, .T. ) ;
#1185 = DIRECTION ( 'NONE',  ( -0.000000000000000000, -0.000000000000000000, -1.000000000000000000 ) ) ;
#1186 = EDGE_CURVE ( 'NONE', #609, #429, #1294, .T. ) ;
#1187 = CARTESIAN_POINT ( 'NONE',  ( 20.49999999999986500, 21.80865704891015966, 0.000000000000000000 ) ) ;
#1188 = ORIENTED_EDGE ( 'NONE', *, *, #509, .F. ) ;
#1189 = CARTESIAN_POINT ( 'NONE',  ( 20.50000000000002842, 45.19134295108994337, 0.000000000000000000 ) ) ;
#1190 = AXIS2_PLACEMENT_3D ( 'NONE', #14, #1173, #223 ) ;
#1191 = AXIS2_PLACEMENT_3D ( 'NONE', #75, #384, #1235 ) ;
#1192 = ORIENTED_EDGE ( 'NONE', *, *, #61, .F. ) ;
#1193 = CARTESIAN_POINT ( 'NONE',  ( 5.000000000000010658, -67.00000000000000000, 0.000000000000000000 ) ) ;
#1194 = DIRECTION ( 'NONE',  ( 0.000000000000000000, 0.000000000000000000, 1.000000000000000000 ) ) ;
#1195 = AXIS2_PLACEMENT_3D ( 'NONE', #216, #1069, #1194 ) ;
#1196 = AXIS2_PLACEMENT_3D ( 'NONE', #1158, #604, #73 ) ;
#1197 = EDGE_CURVE ( 'NONE', #353, #1361, #552, .T. ) ;
#1198 = ORIENTED_EDGE ( 'NONE', *, *, #746, .F. ) ;
#1199 = CARTESIAN_POINT ( 'NONE',  ( -4.999999999999990230, -53.18502884254444041, 19.06497115745563065 ) ) ;
#1200 = AXIS2_PLACEMENT_3D ( 'NONE', #167, #277, #1332 ) ;
#1201 = CARTESIAN_POINT ( 'NONE',  ( 5.000000000000007105, -38.50000000000000711, 32.50000000000000000 ) ) ;
#1202 = EDGE_CURVE ( 'NONE', #1084, #1045, #1062, .T. ) ;
#1203 = VERTEX_POINT ( 'NONE', #126 ) ;
#1204 = DIRECTION ( 'NONE',  ( 0.000000000000000000, 0.000000000000000000, -1.000000000000000000 ) ) ;
#1205 = ORIENTED_EDGE ( 'NONE', *, *, #377, .T. ) ;
#1206 = CARTESIAN_POINT ( 'NONE',  ( 57.00000000000000000, 62.00000000000000711, 5.000000000000000000 ) ) ;
#1207 = VERTEX_POINT ( 'NONE', #1083 ) ;
#1208 = CIRCLE ( 'NONE', #27, 1.249999999999997558 ) ;
#1209 = CARTESIAN_POINT ( 'NONE',  ( 1.925929944387235853E-31, -51.00000000000000711, 32.50000000000000000 ) ) ;
#1210 = CARTESIAN_POINT ( 'NONE',  ( 0.000000000000000000, -51.93502884254432672, 45.93502884254448304 ) ) ;
#1211 = EDGE_CURVE ( 'NONE', #1229, #1058, #982, .T. ) ;
#1212 = CARTESIAN_POINT ( 'NONE',  ( 5.000000000000010658, -67.00000000000000000, 10.00000000000001599 ) ) ;
#1213 = ORIENTED_EDGE ( 'NONE', *, *, #85, .T. ) ;
#1214 = FACE_BOUND ( 'NONE', #1280, .T. ) ;
#1215 = VERTEX_POINT ( 'NONE', #35 ) ;
#1216 = CARTESIAN_POINT ( 'NONE',  ( 5.000000000000008882, -51.93502884254432672, 45.93502884254448304 ) ) ;
#1217 = FACE_BOUND ( 'NONE', #511, .T. ) ;
#1218 = CARTESIAN_POINT ( 'NONE',  ( 35.25000000000005684, 45.19134295108989363, 10.00000000000000000 ) ) ;
#1219 = ORIENTED_EDGE ( 'NONE', *, *, #860, .F. ) ;
#1220 = AXIS2_PLACEMENT_3D ( 'NONE', #1216, #681, #263 ) ;
#1221 = VECTOR ( 'NONE', #798, 1000.000000000000000 ) ;
#1222 = DIRECTION ( 'NONE',  ( 1.000000000000000000, 1.040834085586084626E-16, -6.155470398627365301E-18 ) ) ;
#1223 = ORIENTED_EDGE ( 'NONE', *, *, #669, .T. ) ;
#1224 = LINE ( 'NONE', #565, #1041 ) ;
#1225 = LINE ( 'NONE', #1355, #826 ) ;
#1226 = DIRECTION ( 'NONE',  ( -0.000000000000000000, -0.000000000000000000, -1.000000000000000000 ) ) ;
#1227 = AXIS2_PLACEMENT_3D ( 'NONE', #1269, #1160, #111 ) ;
#1228 =( NAMED_UNIT ( * ) PLANE_ANGLE_UNIT ( ) SI_UNIT ( $, .RADIAN. ) );
#1229 = VERTEX_POINT ( 'NONE', #1189 ) ;
#1230 = EDGE_CURVE ( 'NONE', #1068, #217, #241, .T. ) ;
#1231 = FACE_BOUND ( 'NONE', #1024, .T. ) ;
#1232 = ORIENTED_EDGE ( 'NONE', *, *, #141, .F. ) ;
#1233 = DIRECTION ( 'NONE',  ( 9.792793815998106036E-17, -1.000000000000000000, 0.000000000000000000 ) ) ;
#1234 = CYLINDRICAL_SURFACE ( 'NONE', #573, 10.00000000000000178 ) ;
#1235 = DIRECTION ( 'NONE',  ( 0.000000000000000000, -1.000000000000000000, 0.000000000000000000 ) ) ;
#1236 = DIRECTION ( 'NONE',  ( 1.000000000000000000, 9.792793815998106036E-17, -0.000000000000000000 ) ) ;
#1237 = ORIENTED_EDGE ( 'NONE', *, *, #468, .F. ) ;
#1238 = DIRECTION ( 'NONE',  ( 0.000000000000000000, -1.000000000000000000, 6.086749038515111812E-17 ) ) ;
#1239 = CC_DESIGN_DATE_AND_TIME_ASSIGNMENT ( #200, #735, ( #347 ) ) ;
#1240 = DIRECTION ( 'NONE',  ( 1.000000000000000000, 1.040834085586083640E-16, 6.155470398627365301E-18 ) ) ;
#1241 = ORIENTED_EDGE ( 'NONE', *, *, #771, .T. ) ;
#1242 = CARTESIAN_POINT ( 'NONE',  ( 21.00000000000000711, 33.49999999999990052, 0.000000000000000000 ) ) ;
#1243 = AXIS2_PLACEMENT_3D ( 'NONE', #243, #653, #536 ) ;
#1244 = DIRECTION ( 'NONE',  ( 0.000000000000000000, 0.000000000000000000, -1.000000000000000000 ) ) ;
#1245 = DIRECTION ( 'NONE',  ( 0.000000000000000000, 0.000000000000000000, -1.000000000000000000 ) ) ;
#1246 = DIRECTION ( 'NONE',  ( 1.000000000000000000, 0.000000000000000000, 0.000000000000000000 ) ) ;
#1247 = ORIENTED_EDGE ( 'NONE', *, *, #1077, .T. ) ;
#1248 = CYLINDRICAL_SURFACE ( 'NONE', #1320, 1.250000000000001110 ) ;
#1249 = VERTEX_POINT ( 'NONE', #959 ) ;
#1250 = AXIS2_PLACEMENT_3D ( 'NONE', #981, #371, #1093 ) ;
#1251 = DIRECTION ( 'NONE',  ( -0.000000000000000000, 0.000000000000000000, -1.000000000000000000 ) ) ;
#1252 = EDGE_CURVE ( 'NONE', #460, #31, #973, .T. ) ;
#1253 = LINE ( 'NONE', #718, #105 ) ;
#1254 = CARTESIAN_POINT ( 'NONE',  ( 34.00000000000005684, 45.19134295108989363, 0.000000000000000000 ) ) ;
#1255 = APPROVAL_ROLE ( '' ) ;
#1256 = DIRECTION ( 'NONE',  ( -0.000000000000000000, -0.000000000000000000, -1.000000000000000000 ) ) ;
#1257 = EDGE_LOOP ( 'NONE', ( #985, #1138, #372, #286 ) ) ;
#1258 = CYLINDRICAL_SURFACE ( 'NONE', #242, 1.249999999999997558 ) ;
#1259 = EDGE_CURVE ( 'NONE', #191, #1014, #900, .T. ) ;
#1260 = AXIS2_PLACEMENT_3D ( 'NONE', #34, #748, #845 ) ;
#1261 = VECTOR ( 'NONE', #810, 1000.000000000000000 ) ;
#1262 = FACE_OUTER_BOUND ( 'NONE', #996, .T. ) ;
#1263 = EDGE_CURVE ( 'NONE', #95, #41, #146, .T. ) ;
#1264 = CARTESIAN_POINT ( 'NONE',  ( 5.000000000000004441, -5.000000000000006217, 61.00000000000000000 ) ) ;
#1265 = VERTEX_POINT ( 'NONE', #558 ) ;
#1266 = CARTESIAN_POINT ( 'NONE',  ( 16.25000000000000000, 33.50000000000000000, 0.000000000000000000 ) ) ;
#1267 = CIRCLE ( 'NONE', #33, 1.250000000000001110 ) ;
#1268 = VECTOR ( 'NONE', #210, 1000.000000000000000 ) ;
#1269 = CARTESIAN_POINT ( 'NONE',  ( -4.999999999999992895, -38.50000000000000711, 32.50000000000000000 ) ) ;
#1270 = EDGE_CURVE ( 'NONE', #457, #542, #743, .T. ) ;
#1271 = ORIENTED_EDGE ( 'NONE', *, *, #1299, .F. ) ;
#1272 = CIRCLE ( 'NONE', #425, 7.500000000000000000 ) ;
#1273 = ORIENTED_EDGE ( 'NONE', *, *, #802, .T. ) ;
#1274 = CIRCLE ( 'NONE', #38, 1.250000000000001110 ) ;
#1275 = APPROVAL_ROLE ( '' ) ;
#1276 = FACE_OUTER_BOUND ( 'NONE', #350, .T. ) ;
#1277 = ADVANCED_FACE ( 'NONE', ( #858 ), #340, .F. ) ;
#1278 = CARTESIAN_POINT ( 'NONE',  ( 20.49999999999986500, 21.80865704891015966, 10.00000000000000000 ) ) ;
#1279 = ORIENTED_EDGE ( 'NONE', *, *, #377, .F. ) ;
#1280 = EDGE_LOOP ( 'NONE', ( #1072, #390 ) ) ;
#1281 = DIRECTION ( 'NONE',  ( -1.000000000000000000, 0.000000000000000000, 0.000000000000000000 ) ) ;
#1282 = CARTESIAN_POINT ( 'NONE',  ( 0.000000000000000000, 0.000000000000000000, 61.00000000000000000 ) ) ;
#1283 = ORIENTED_EDGE ( 'NONE', *, *, #46, .T. ) ;
#1284 = ORIENTED_EDGE ( 'NONE', *, *, #1038, .F. ) ;
#1285 = DIRECTION ( 'NONE',  ( 0.000000000000000000, 6.994852725712931474E-17, 1.000000000000000000 ) ) ;
#1286 = DIRECTION ( 'NONE',  ( 0.000000000000000000, 1.000000000000000000, 0.000000000000000000 ) ) ;
#1287 = ORIENTED_EDGE ( 'NONE', *, *, #110, .T. ) ;
#1288 = ORIENTED_EDGE ( 'NONE', *, *, #1311, .T. ) ;
#1289 = ADVANCED_FACE ( 'NONE', ( #40 ), #452, .F. ) ;
#1290 = CIRCLE ( 'NONE', #206, 7.500000000000000000 ) ;
#1291 = DIRECTION ( 'NONE',  ( 0.000000000000000000, -1.000000000000000000, 0.000000000000000000 ) ) ;
#1292 = AXIS2_PLACEMENT_3D ( 'NONE', #66, #814, #1244 ) ;
#1293 = DIRECTION ( 'NONE',  ( 1.000000000000000000, 1.040834085586083640E-16, 6.155470398627365301E-18 ) ) ;
#1294 = LINE ( 'NONE', #541, #816 ) ;
#1295 = ORIENTED_EDGE ( 'NONE', *, *, #365, .T. ) ;
#1296 = CARTESIAN_POINT ( 'NONE',  ( 57.00000000000000000, 0.000000000000000000, 0.000000000000000000 ) ) ;
#1297 = APPROVAL ( #1171, 'æœª' ) ;
#1298 = CARTESIAN_POINT ( 'NONE',  ( 5.000000000000010658, -67.00000000000000000, 61.00000000000000000 ) ) ;
#1299 = EDGE_CURVE ( 'NONE', #71, #457, #433, .T. ) ;
#1300 = VECTOR ( 'NONE', #374, 1000.000000000000000 ) ;
#1301 = ORIENTED_EDGE ( 'NONE', *, *, #1044, .T. ) ;
#1302 = DIRECTION ( 'NONE',  ( -0.000000000000000000, -0.000000000000000000, -1.000000000000000000 ) ) ;
#1303 = CARTESIAN_POINT ( 'NONE',  ( 0.000000000000000000, -57.00000000000000711, 10.00000000000000178 ) ) ;
#1304 = CIRCLE ( 'NONE', #724, 1.250000000000001110 ) ;
#1305 = EDGE_CURVE ( 'NONE', #1350, #87, #1304, .T. ) ;
#1306 = AXIS2_PLACEMENT_3D ( 'NONE', #888, #803, #177 ) ;
#1307 = ORIENTED_EDGE ( 'NONE', *, *, #365, .F. ) ;
#1308 = DIRECTION ( 'NONE',  ( 1.000000000000000000, 0.000000000000000000, -0.000000000000000000 ) ) ;
#1309 = CIRCLE ( 'NONE', #906, 28.50000000000000355 ) ;
#1310 = EDGE_LOOP ( 'NONE', ( #1271, #1175, #1118, #128, #262 ) ) ;
#1311 = EDGE_CURVE ( 'NONE', #647, #883, #367, .T. ) ;
#1312 = FACE_BOUND ( 'NONE', #866, .T. ) ;
#1313 = VERTEX_POINT ( 'NONE', #278 ) ;
#1314 = DIRECTION ( 'NONE',  ( -0.000000000000000000, -0.000000000000000000, -1.000000000000000000 ) ) ;
#1315 = EDGE_CURVE ( 'NONE', #1058, #1229, #566, .T. ) ;
#1316 = DIRECTION ( 'NONE',  ( -0.000000000000000000, -0.000000000000000000, -1.000000000000000000 ) ) ;
#1317 = EDGE_LOOP ( 'NONE', ( #1112, #1128, #759, #1004, #449, #1070 ) ) ;
#1318 = CYLINDRICAL_SURFACE ( 'NONE', #1126, 1.250000000000001110 ) ;
#1319 = EDGE_LOOP ( 'NONE', ( #875, #1053 ) ) ;
#1320 = AXIS2_PLACEMENT_3D ( 'NONE', #193, #1256, #26 ) ;
#1321 = CARTESIAN_POINT ( 'NONE',  ( 0.000000000000000000, -51.93502884254444041, 19.06497115745563065 ) ) ;
#1322 = FACE_BOUND ( 'NONE', #245, .T. ) ;
#1323 = CARTESIAN_POINT ( 'NONE',  ( 43.25000000000000711, 33.50000000000000000, 5.000000000000001776 ) ) ;
#1324 = CALENDAR_DATE ( 2026, 25, 4 ) ;
#1325 = ORIENTED_EDGE ( 'NONE', *, *, #1202, .T. ) ;
#1326 = LOCAL_TIME ( 12, 57, 45.00000000000000000, #474 ) ;
#1327 = DIRECTION ( 'NONE',  ( 1.000000000000000000, 9.792793815998106036E-17, -0.000000000000000000 ) ) ;
#1328 = ORIENTED_EDGE ( 'NONE', *, *, #811, .T. ) ;
#1329 = VECTOR ( 'NONE', #730, 1000.000000000000000 ) ;
#1330 = PLANE ( 'NONE',  #795 ) ;
#1331 = DIRECTION ( 'NONE',  ( -1.000000000000000000, 0.000000000000000000, -0.000000000000000000 ) ) ;
#1332 = DIRECTION ( 'NONE',  ( -0.5000000000000095479, -0.8660254037844330455, 0.000000000000000000 ) ) ;
#1333 = EDGE_CURVE ( 'NONE', #777, #1265, #1267, .T. ) ;
#1334 = CALENDAR_DATE ( 2026, 25, 4 ) ;
#1335 = ORIENTED_EDGE ( 'NONE', *, *, #189, .F. ) ;
#1336 = AXIS2_PLACEMENT_3D ( 'NONE', #229, #1285, #644 ) ;
#1337 = CIRCLE ( 'NONE', #554, 1.250000000000001110 ) ;
#1338 = LINE ( 'NONE', #698, #639 ) ;
#1339 = ORIENTED_EDGE ( 'NONE', *, *, #110, .F. ) ;
#1340 = DIRECTION ( 'NONE',  ( 0.000000000000000000, 6.994852725712931474E-17, 1.000000000000000000 ) ) ;
#1341 = CYLINDRICAL_SURFACE ( 'NONE', #751, 7.500000000000000000 ) ;
#1342 = FACE_OUTER_BOUND ( 'NONE', #522, .T. ) ;
#1343 = EDGE_LOOP ( 'NONE', ( #334, #296, #908, #1287, #1198, #1358 ) ) ;
#1344 = ADVANCED_FACE ( 'NONE', ( #817 ), #68, .F. ) ;
#1345 = FACE_BOUND ( 'NONE', #538, .T. ) ;
#1346 = ORIENTED_EDGE ( 'NONE', *, *, #1305, .F. ) ;
#1347 = FACE_BOUND ( 'NONE', #690, .T. ) ;
#1348 = DIRECTION ( 'NONE',  ( 1.000000000000000000, 0.000000000000000000, -0.000000000000000000 ) ) ;
#1349 = DIRECTION ( 'NONE',  ( 0.000000000000000000, 0.000000000000000000, -1.000000000000000000 ) ) ;
#1350 = VERTEX_POINT ( 'NONE', #592 ) ;
#1351 = ADVANCED_FACE ( 'NONE', ( #1013 ), #575, .T. ) ;
#1352 = ORIENTED_EDGE ( 'NONE', *, *, #688, .F. ) ;
#1353 = LINE ( 'NONE', #504, #1329 ) ;
#1354 = VECTOR ( 'NONE', #132, 1000.000000000000000 ) ;
#1355 = CARTESIAN_POINT ( 'NONE',  ( 3.469446951953614189E-15, 33.50000000000000000, 10.00000000000000000 ) ) ;
#1356 = CARTESIAN_POINT ( 'NONE',  ( 2.407412430484051659E-32, -53.18502884254432672, 45.93502884254448304 ) ) ;
#1357 = APPROVAL_ROLE ( '' ) ;
#1358 = ORIENTED_EDGE ( 'NONE', *, *, #1263, .F. ) ;
#1359 = CARTESIAN_POINT ( 'NONE',  ( 20.49999999999986500, 21.80865704891015966, 5.000000000000002665 ) ) ;
#1360 = CC_DESIGN_PERSON_AND_ORGANIZATION_ASSIGNMENT ( #675, #1098, ( #844 ) ) ;
#1361 = VERTEX_POINT ( 'NONE', #1212 ) ;
#1362 = FACE_OUTER_BOUND ( 'NONE', #848, .T. ) ;
#1363 = EDGE_CURVE ( 'NONE', #886, #1249, #528, .T. ) ;
#1364 = SHAPE_DEFINITION_REPRESENTATION ( #442, #103 ) ;
ENDSEC;
END-ISO-10303-21;
