ISO-10303-21;
HEADER;
FILE_DESCRIPTION (( 'STEP AP203' ),
    '1' );
FILE_NAME ('56ÖáÁ¬½Ó¼þ.STEP',
    '2026-04-25T05:03:17',
    ( '' ),
    ( '' ),
    'SwSTEP 2.0',
    'SolidWorks 2024',
    '' );
FILE_SCHEMA (( 'CONFIG_CONTROL_DESIGN' ));
ENDSEC;

DATA;
#1 = VERTEX_POINT ( 'NONE', #878 ) ;
#2 = AXIS2_PLACEMENT_3D ( 'NONE', #1092, #8, #213 ) ;
#3 = CARTESIAN_POINT ( 'NONE',  ( 3.999999999999999112, 38.50000000000002132, 49.75000000000000000 ) ) ;
#4 = EDGE_LOOP ( 'NONE', ( #459, #278, #353, #552 ) ) ;
#5 = CIRCLE ( 'NONE', #613, 1.250000000000002220 ) ;
#6 = FACE_BOUND ( 'NONE', #1046, .T. ) ;
#7 = EDGE_CURVE ( 'NONE', #39, #1367, #260, .T. ) ;
#8 = DIRECTION ( 'NONE',  ( -1.000000000000000000, -0.000000000000000000, -0.000000000000000000 ) ) ;
#9 = EDGE_CURVE ( 'NONE', #132, #537, #1195, .T. ) ;
#10 = CARTESIAN_POINT ( 'NONE',  ( 57.00000000000000000, 38.50000000000001421, 15.00000000000000711 ) ) ;
#11 = ORIENTED_EDGE ( 'NONE', *, *, #185, .F. ) ;
#12 = DIRECTION ( 'NONE',  ( -1.000000000000000000, -0.000000000000000000, -0.000000000000000000 ) ) ;
#13 = CARTESIAN_POINT ( 'NONE',  ( 28.49999999999999289, 0.000000000000000000, 16.00000000000000355 ) ) ;
#14 = CC_DESIGN_DATE_AND_TIME_ASSIGNMENT ( #1023, #1061, ( #1086 ) ) ;
#15 = VECTOR ( 'NONE', #777, 1000.000000000000000 ) ;
#16 = VERTEX_POINT ( 'NONE', #1323 ) ;
#17 = CIRCLE ( 'NONE', #206, 1.250000000000001110 ) ;
#18 = FACE_OUTER_BOUND ( 'NONE', #922, .T. ) ;
#19 = ORIENTED_EDGE ( 'NONE', *, *, #694, .T. ) ;
#20 = CARTESIAN_POINT ( 'NONE',  ( 0.000000000000000000, 26.80865704891002110, 23.00000000000011724 ) ) ;
#21 = DIRECTION ( 'NONE',  ( 0.000000000000000000, 0.8660254037844394848, 0.4999999999999985012 ) ) ;
#22 = CARTESIAN_POINT ( 'NONE',  ( 0.000000000000000000, 38.50000000000001421, 28.50000000000000355 ) ) ;
#23 =( NAMED_UNIT ( * ) PLANE_ANGLE_UNIT ( ) SI_UNIT ( $, .RADIAN. ) );
#24 = EDGE_LOOP ( 'NONE', ( #1361, #461, #960, #11 ) ) ;
#25 = EDGE_CURVE ( 'NONE', #1054, #743, #868, .T. ) ;
#26 = CARTESIAN_POINT ( 'NONE',  ( 57.00000000000000000, 26.80865704891017032, 35.25000000000013500 ) ) ;
#27 = DIRECTION ( 'NONE',  ( 0.000000000000000000, 0.000000000000000000, -1.000000000000000000 ) ) ;
#28 = CARTESIAN_POINT ( 'NONE',  ( 57.00000000000000000, 26.80865704891017032, 36.50000000000014211 ) ) ;
#29 = CARTESIAN_POINT ( 'NONE',  ( 41.93502884254456831, 0.000000000000000000, 16.31497115745577275 ) ) ;
#30 = VERTEX_POINT ( 'NONE', #758 ) ;
#31 = EDGE_CURVE ( 'NONE', #303, #1364, #717, .T. ) ;
#32 = DIRECTION ( 'NONE',  ( -1.000000000000000000, -0.000000000000000000, -0.000000000000000000 ) ) ;
#33 = EDGE_LOOP ( 'NONE', ( #124, #654, #1095, #832, #1336, #1258 ) ) ;
#34 = ADVANCED_FACE ( 'NONE', ( #1202 ), #1194, .F. ) ;
#35 = CYLINDRICAL_SURFACE ( 'NONE', #1049, 1.250000000000004663 ) ;
#36 = FACE_OUTER_BOUND ( 'NONE', #833, .T. ) ;
#37 = CIRCLE ( 'NONE', #648, 1.250000000000001110 ) ;
#38 = FACE_BOUND ( 'NONE', #1330, .T. ) ;
#39 = VERTEX_POINT ( 'NONE', #437 ) ;
#40 = LOCAL_TIME ( 13, 3, 17.00000000000000000, #602 ) ;
#41 = FACE_OUTER_BOUND ( 'NONE', #1229, .T. ) ;
#42 = CIRCLE ( 'NONE', #228, 1.250000000000004663 ) ;
#43 = LINE ( 'NONE', #346, #119 ) ;
#44 = CARTESIAN_POINT ( 'NONE',  ( 0.000000000000000000, 38.50000000000001421, 16.25000000000001066 ) ) ;
#45 = CARTESIAN_POINT ( 'NONE',  ( 0.000000000000000000, 50.19134295108990074, 22.99999999999995381 ) ) ;
#46 = ORIENTED_EDGE ( 'NONE', *, *, #1348, .T. ) ;
#47 = APPLICATION_PROTOCOL_DEFINITION ( 'international standard', 'config_control_design', 1994, #926 ) ;
#48 = ORIENTED_EDGE ( 'NONE', *, *, #138, .T. ) ;
#49 = AXIS2_PLACEMENT_3D ( 'NONE', #490, #381, #275 ) ;
#50 = CIRCLE ( 'NONE', #1031, 1.250000000000007994 ) ;
#51 = CARTESIAN_POINT ( 'NONE',  ( 3.999999999999999112, 38.50000000000000711, 5.999999999999998224 ) ) ;
#52 = EDGE_CURVE ( 'NONE', #39, #657, #1069, .T. ) ;
#53 = DIRECTION ( 'NONE',  ( 0.000000000000000000, 0.000000000000000000, 1.000000000000000000 ) ) ;
#54 = EDGE_CURVE ( 'NONE', #1064, #1210, #782, .T. ) ;
#55 = ORIENTED_EDGE ( 'NONE', *, *, #310, .T. ) ;
#56 = EDGE_LOOP ( 'NONE', ( #1077, #393, #511, #448 ) ) ;
#57 = DIRECTION ( 'NONE',  ( -0.000000000000000000, -1.000000000000000000, -0.000000000000000000 ) ) ;
#58 = CARTESIAN_POINT ( 'NONE',  ( 3.999999999999996447, 3.999999999999994227, 0.000000000000000000 ) ) ;
#59 = ORIENTED_EDGE ( 'NONE', *, *, #336, .T. ) ;
#60 = EDGE_CURVE ( 'NONE', #1003, #450, #1239, .T. ) ;
#61 = VERTEX_POINT ( 'NONE', #45 ) ;
#62 = FACE_BOUND ( 'NONE', #928, .T. ) ;
#63 = AXIS2_PLACEMENT_3D ( 'NONE', #324, #1388, #959 ) ;
#64 = CARTESIAN_POINT ( 'NONE',  ( 28.49999999999999289, 57.00000000000000000, 16.00000000000000355 ) ) ;
#65 = EDGE_CURVE ( 'NONE', #1309, #160, #513, .T. ) ;
#66 = DIRECTION ( 'NONE',  ( 0.000000000000000000, 0.000000000000000000, 1.000000000000000000 ) ) ;
#67 = AXIS2_PLACEMENT_3D ( 'NONE', #748, #1318, #1186 ) ;
#68 = CARTESIAN_POINT ( 'NONE',  ( 57.00000000000000000, 50.19134295108995047, 33.99999999999997158 ) ) ;
#69 = APPLICATION_PROTOCOL_DEFINITION ( 'international standard', 'config_control_design', 1994, #1314 ) ;
#70 = CIRCLE ( 'NONE', #875, 1.250000000000007994 ) ;
#71 = ORIENTED_EDGE ( 'NONE', *, *, #745, .T. ) ;
#72 = VERTEX_POINT ( 'NONE', #281 ) ;
#73 = CARTESIAN_POINT ( 'NONE',  ( 0.000000000000000000, 26.80865704891002110, 21.75000000000011369 ) ) ;
#74 = CARTESIAN_POINT ( 'NONE',  ( 15.06497115745553117, 0.000000000000000000, 41.93502884254432672 ) ) ;
#75 = APPROVAL_ROLE ( '' ) ;
#76 = ORIENTED_EDGE ( 'NONE', *, *, #577, .T. ) ;
#77 = CARTESIAN_POINT ( 'NONE',  ( 0.000000000000000000, 0.000000000000000000, 57.00000000000000000 ) ) ;
#78 = ORIENTED_EDGE ( 'NONE', *, *, #101, .F. ) ;
#79 = FACE_OUTER_BOUND ( 'NONE', #863, .T. ) ;
#80 = DIRECTION ( 'NONE',  ( -0.000000000000000000, -1.000000000000000000, -0.000000000000000000 ) ) ;
#81 = PERSON_AND_ORGANIZATION ( #1140, #105 ) ;
#82 = EDGE_CURVE ( 'NONE', #1222, #132, #709, .T. ) ;
#83 = ORIENTED_EDGE ( 'NONE', *, *, #423, .T. ) ;
#84 = DIRECTION ( 'NONE',  ( -1.000000000000000000, -0.000000000000000000, -0.000000000000000000 ) ) ;
#85 = ORIENTED_EDGE ( 'NONE', *, *, #187, .F. ) ;
#86 = DIRECTION ( 'NONE',  ( 0.000000000000000000, 1.000000000000000000, -2.775557561562888984E-15 ) ) ;
#87 = CARTESIAN_POINT ( 'NONE',  ( 15.06497115745553117, 0.000000000000000000, 41.93502884254432672 ) ) ;
#88 = VECTOR ( 'NONE', #337, 1000.000000000000000 ) ;
#89 = EDGE_LOOP ( 'NONE', ( #1102, #1317 ) ) ;
#90 = CC_DESIGN_PERSON_AND_ORGANIZATION_ASSIGNMENT ( #1350, #1273, ( #685 ) ) ;
#91 = EDGE_CURVE ( 'NONE', #710, #775, #1259, .T. ) ;
#92 = CARTESIAN_POINT ( 'NONE',  ( 57.00000000000000000, 38.50000000000001421, 15.00000000000000711 ) ) ;
#93 = VERTEX_POINT ( 'NONE', #394 ) ;
#94 = ADVANCED_BREP_SHAPE_REPRESENTATION ( '56\X2\8f748fde63a54ef6\X0\', ( #149, #179 ), #523 ) ;
#95 = DIRECTION ( 'NONE',  ( 0.000000000000000000, -1.000000000000000000, 0.000000000000000000 ) ) ;
#96 = CARTESIAN_POINT ( 'NONE',  ( 41.93502884254456831, 3.999999999999996447, 13.81497115745576210 ) ) ;
#97 = ORIENTED_EDGE ( 'NONE', *, *, #344, .T. ) ;
#98 = ORIENTED_EDGE ( 'NONE', *, *, #735, .T. ) ;
#99 = DIRECTION ( 'NONE',  ( 0.000000000000000000, -1.000000000000000000, 0.000000000000000000 ) ) ;
#100 = ORIENTED_EDGE ( 'NONE', *, *, #1305, .T. ) ;
#101 = EDGE_CURVE ( 'NONE', #683, #525, #873, .T. ) ;
#102 = CARTESIAN_POINT ( 'NONE',  ( 3.999999999999996447, 3.999999999999994227, 57.00000000000000000 ) ) ;
#103 = CIRCLE ( 'NONE', #178, 1.250000000000007994 ) ;
#104 = DIRECTION ( 'NONE',  ( 0.000000000000000000, -1.000000000000000000, 0.000000000000000000 ) ) ;
#105 = ORGANIZATION ( 'æœª', 'æœª', '' ) ;
#106 = ORIENTED_EDGE ( 'NONE', *, *, #826, .T. ) ;
#107 = CIRCLE ( 'NONE', #181, 1.250000000000007994 ) ;
#108 = CARTESIAN_POINT ( 'NONE',  ( 15.06497115745562887, 0.000000000000000000, 16.31497115745557736 ) ) ;
#109 = EDGE_LOOP ( 'NONE', ( #325, #609, #71, #969 ) ) ;
#110 = ADVANCED_FACE ( 'NONE', ( #36 ), #159, .F. ) ;
#111 = DIRECTION ( 'NONE',  ( -1.000000000000000000, 0.000000000000000000, -0.000000000000000000 ) ) ;
#112 = EDGE_CURVE ( 'NONE', #16, #845, #283, .T. ) ;
#113 = DIRECTION ( 'NONE',  ( -1.156482317317872465E-16, -1.000000000000000000, 0.000000000000000000 ) ) ;
#114 = AXIS2_PLACEMENT_3D ( 'NONE', #917, #1356, #815 ) ;
#115 = DIRECTION ( 'NONE',  ( -1.000000000000000000, 0.000000000000000000, -0.000000000000000000 ) ) ;
#116 = AXIS2_PLACEMENT_3D ( 'NONE', #435, #1075, #536 ) ;
#117 = LINE ( 'NONE', #562, #15 ) ;
#118 = VERTEX_POINT ( 'NONE', #703 ) ;
#119 = VECTOR ( 'NONE', #605, 1000.000000000000000 ) ;
#120 = ADVANCED_FACE ( 'NONE', ( #274 ), #927, .F. ) ;
#121 = DIRECTION ( 'NONE',  ( 0.000000000000000000, 0.000000000000000000, 1.000000000000000000 ) ) ;
#122 = DIRECTION ( 'NONE',  ( 0.000000000000000000, 0.000000000000000000, -1.000000000000000000 ) ) ;
#123 = CARTESIAN_POINT ( 'NONE',  ( 57.00000000000000000, 38.50000000000001421, 0.000000000000000000 ) ) ;
#124 = ORIENTED_EDGE ( 'NONE', *, *, #1348, .F. ) ;
#125 = DIRECTION ( 'NONE',  ( 0.000000000000000000, -1.000000000000000000, 0.000000000000000000 ) ) ;
#126 = DIRECTION ( 'NONE',  ( -1.000000000000000000, -0.000000000000000000, -0.000000000000000000 ) ) ;
#127 = FACE_OUTER_BOUND ( 'NONE', #4, .T. ) ;
#128 = ORIENTED_EDGE ( 'NONE', *, *, #625, .T. ) ;
#129 = EDGE_CURVE ( 'NONE', #1405, #233, #371, .T. ) ;
#130 = CIRCLE ( 'NONE', #932, 28.50000000000000355 ) ;
#131 = FACE_OUTER_BOUND ( 'NONE', #294, .T. ) ;
#132 = VERTEX_POINT ( 'NONE', #44 ) ;
#133 = DIRECTION ( 'NONE',  ( 0.000000000000000000, -1.000000000000000000, 0.000000000000000000 ) ) ;
#134 = CARTESIAN_POINT ( 'NONE',  ( 41.93502884254437646, 0.000000000000000000, 41.93502884254442620 ) ) ;
#135 = DIRECTION ( 'NONE',  ( 1.000000000000000000, 1.387778780781445676E-16, 0.000000000000000000 ) ) ;
#136 = EDGE_CURVE ( 'NONE', #1008, #1048, #809, .T. ) ;
#137 = ORIENTED_EDGE ( 'NONE', *, *, #185, .T. ) ;
#138 = EDGE_CURVE ( 'NONE', #382, #993, #1137, .T. ) ;
#139 = ORIENTED_EDGE ( 'NONE', *, *, #433, .T. ) ;
#140 = AXIS2_PLACEMENT_3D ( 'NONE', #843, #80, #1160 ) ;
#141 = CARTESIAN_POINT ( 'NONE',  ( 10.00000000000000000, 61.00000000000002842, 29.74999999999991829 ) ) ;
#142 = DIRECTION ( 'NONE',  ( -1.000000000000000000, -0.000000000000000000, -0.000000000000000000 ) ) ;
#143 = CARTESIAN_POINT ( 'NONE',  ( 57.00000000000000000, 26.80865704891017032, 35.25000000000013500 ) ) ;
#144 = CARTESIAN_POINT ( 'NONE',  ( 57.00000000000000000, 50.19134295108995047, 36.49999999999997868 ) ) ;
#145 = FACE_OUTER_BOUND ( 'NONE', #950, .T. ) ;
#146 = EDGE_LOOP ( 'NONE', ( #19, #501 ) ) ;
#147 = DIRECTION ( 'NONE',  ( 1.000000000000000000, 1.217349807703022116E-16, 0.000000000000000000 ) ) ;
#148 = ORIENTED_EDGE ( 'NONE', *, *, #855, .T. ) ;
#149 = MANIFOLD_SOLID_BREP ( 'ÕóÁÐ(Ô²ÖÜ)3', #1284 ) ;
#150 = ADVANCED_FACE ( 'NONE', ( #127 ), #464, .F. ) ;
#151 = LINE ( 'NONE', #902, #1221 ) ;
#152 = CARTESIAN_POINT ( 'NONE',  ( 3.999999999999996447, 38.50000000000001421, 42.00000000000000000 ) ) ;
#153 = ORIENTED_EDGE ( 'NONE', *, *, #694, .F. ) ;
#154 = APPROVAL_ROLE ( '' ) ;
#155 = CARTESIAN_POINT ( 'NONE',  ( 3.999999999999999112, 38.50000000000002132, 51.00000000000000711 ) ) ;
#156 = PRODUCT_RELATED_PRODUCT_CATEGORY ( 'detail', '', ( #1114 ) ) ;
#157 = ADVANCED_FACE ( 'NONE', ( #369 ), #489, .F. ) ;
#158 = DIRECTION ( 'NONE',  ( 0.000000000000000000, 0.000000000000000000, -1.000000000000000000 ) ) ;
#159 = CYLINDRICAL_SURFACE ( 'NONE', #958, 12.50000000000000000 ) ;
#160 = VERTEX_POINT ( 'NONE', #1244 ) ;
#161 = ORIENTED_EDGE ( 'NONE', *, *, #351, .T. ) ;
#162 = EDGE_LOOP ( 'NONE', ( #482, #870, #854, #518 ) ) ;
#163 = AXIS2_PLACEMENT_3D ( 'NONE', #1335, #911, #379 ) ;
#164 = AXIS2_PLACEMENT_3D ( 'NONE', #527, #740, #827 ) ;
#165 = DIRECTION ( 'NONE',  ( -1.000000000000000000, 8.260587980841936314E-17, 0.000000000000000000 ) ) ;
#166 = AXIS2_PLACEMENT_3D ( 'NONE', #198, #284, #643 ) ;
#167 = AXIS2_PLACEMENT_3D ( 'NONE', #250, #142, #1327 ) ;
#168 = CARTESIAN_POINT ( 'NONE',  ( 28.50000000000000000, 57.00000000000000000, 28.50000000000000000 ) ) ;
#169 = CIRCLE ( 'NONE', #1233, 1.250000000000004663 ) ;
#170 = ORIENTED_EDGE ( 'NONE', *, *, #1099, .F. ) ;
#171 = ORIENTED_EDGE ( 'NONE', *, *, #689, .T. ) ;
#172 = ORIENTED_EDGE ( 'NONE', *, *, #1028, .T. ) ;
#173 = DIRECTION ( 'NONE',  ( -1.000000000000000000, 8.260587980841936314E-17, 0.000000000000000000 ) ) ;
#174 = CYLINDRICAL_SURFACE ( 'NONE', #140, 1.250000000000007994 ) ;
#175 = ORIENTED_EDGE ( 'NONE', *, *, #1278, .T. ) ;
#176 = EDGE_CURVE ( 'NONE', #929, #933, #1417, .T. ) ;
#177 = ORIENTED_EDGE ( 'NONE', *, *, #396, .F. ) ;
#178 = AXIS2_PLACEMENT_3D ( 'NONE', #457, #672, #886 ) ;
#179 = AXIS2_PLACEMENT_3D ( 'NONE', #1246, #1176, #315 ) ;
#180 = CARTESIAN_POINT ( 'NONE',  ( 0.000000000000000000, 38.50000000000001421, 43.25000000000001421 ) ) ;
#181 = AXIS2_PLACEMENT_3D ( 'NONE', #997, #1097, #1117 ) ;
#182 = DIRECTION ( 'NONE',  ( -0.000000000000000000, -1.000000000000000000, -0.000000000000000000 ) ) ;
#183 = PERSON_AND_ORGANIZATION ( #1140, #105 ) ;
#184 = ORIENTED_EDGE ( 'NONE', *, *, #1413, .F. ) ;
#185 = EDGE_CURVE ( 'NONE', #209, #61, #1012, .T. ) ;
#186 = APPROVAL ( #208, 'æœª' ) ;
#187 = EDGE_CURVE ( 'NONE', #618, #504, #236, .T. ) ;
#188 = EDGE_LOOP ( 'NONE', ( #184, #446, #652, #660 ) ) ;
#189 = DIRECTION ( 'NONE',  ( 0.000000000000000000, -0.000000000000000000, 1.000000000000000000 ) ) ;
#190 = VECTOR ( 'NONE', #1236, 1000.000000000000000 ) ;
#191 = AXIS2_PLACEMENT_3D ( 'NONE', #1272, #1384, #1052 ) ;
#192 = DIRECTION ( 'NONE',  ( 0.000000000000000000, 0.000000000000000000, -1.000000000000000000 ) ) ;
#193 = CALENDAR_DATE ( 2026, 25, 4 ) ;
#194 = VECTOR ( 'NONE', #706, 1000.000000000000000 ) ;
#195 = ORIENTED_EDGE ( 'NONE', *, *, #91, .T. ) ;
#196 = CARTESIAN_POINT ( 'NONE',  ( 10.00000000000000000, 38.50000000000002132, 49.75000000000000000 ) ) ;
#197 = EDGE_LOOP ( 'NONE', ( #1357, #857, #563, #436 ) ) ;
#198 = CARTESIAN_POINT ( 'NONE',  ( 57.00000000000000000, 38.50000000000001421, 28.50000000000000355 ) ) ;
#199 = DIRECTION ( 'NONE',  ( -0.000000000000000000, -1.000000000000000000, 0.000000000000000000 ) ) ;
#200 = PERSON_AND_ORGANIZATION_ROLE ( 'design_supplier' ) ;
#201 = ORIENTED_EDGE ( 'NONE', *, *, #974, .T. ) ;
#202 = CARTESIAN_POINT ( 'NONE',  ( 15.06497115745562887, 3.999999999999989786, 15.06497115745557203 ) ) ;
#203 = ORIENTED_EDGE ( 'NONE', *, *, #221, .F. ) ;
#204 = EDGE_CURVE ( 'NONE', #1124, #1006, #355, .T. ) ;
#205 = CARTESIAN_POINT ( 'NONE',  ( 3.999999999999996447, 26.80865704891002110, 21.75000000000011369 ) ) ;
#206 = AXIS2_PLACEMENT_3D ( 'NONE', #155, #603, #1025 ) ;
#207 = DIRECTION ( 'NONE',  ( 0.000000000000000000, 0.000000000000000000, 1.000000000000000000 ) ) ;
#208 = APPROVAL_STATUS ( 'not_yet_approved' ) ;
#209 = VERTEX_POINT ( 'NONE', #1113 ) ;
#210 = CYLINDRICAL_SURFACE ( 'NONE', #362, 1.250000000000004663 ) ;
#211 = ORIENTED_EDGE ( 'NONE', *, *, #837, .T. ) ;
#212 = CARTESIAN_POINT ( 'NONE',  ( 4.000000000000023981, 38.50000000000001421, 0.000000000000000000 ) ) ;
#213 = DIRECTION ( 'NONE',  ( 0.000000000000000000, 0.000000000000000000, 1.000000000000000000 ) ) ;
#214 = ORIENTED_EDGE ( 'NONE', *, *, #9, .F. ) ;
#215 = CARTESIAN_POINT ( 'NONE',  ( 15.06497115745562887, 57.00000000000000000, 13.81497115745556847 ) ) ;
#216 = EDGE_LOOP ( 'NONE', ( #905, #1380 ) ) ;
#217 = DIRECTION ( 'NONE',  ( -1.000000000000000000, -0.000000000000000000, -0.000000000000000000 ) ) ;
#218 = DIRECTION ( 'NONE',  ( 1.000000000000000000, 0.000000000000000000, 0.000000000000000000 ) ) ;
#219 = EDGE_LOOP ( 'NONE', ( #1024, #85 ) ) ;
#220 = EDGE_LOOP ( 'NONE', ( #936, #1001 ) ) ;
#221 = EDGE_CURVE ( 'NONE', #845, #16, #894, .T. ) ;
#222 = DIRECTION ( 'NONE',  ( 1.000000000000000000, 0.000000000000000000, 0.000000000000000000 ) ) ;
#223 = EDGE_LOOP ( 'NONE', ( #330, #1014, #943, #1072 ) ) ;
#224 = CARTESIAN_POINT ( 'NONE',  ( 0.000000000000000000, 38.50000000000000711, 7.250000000000002665 ) ) ;
#225 = AXIS2_PLACEMENT_3D ( 'NONE', #1240, #466, #1230 ) ;
#226 = FACE_OUTER_BOUND ( 'NONE', #587, .T. ) ;
#227 = CIRCLE ( 'NONE', #387, 1.250000000000004885 ) ;
#228 = AXIS2_PLACEMENT_3D ( 'NONE', #659, #1178, #639 ) ;
#229 = EDGE_CURVE ( 'NONE', #484, #72, #1005, .T. ) ;
#230 = CARTESIAN_POINT ( 'NONE',  ( 15.06497115745553117, 57.00000000000000000, 43.18502884254432672 ) ) ;
#231 = APPROVAL ( #493, 'æœª' ) ;
#232 = DIRECTION ( 'NONE',  ( -0.000000000000000000, -1.000000000000000000, -0.000000000000000000 ) ) ;
#233 = VERTEX_POINT ( 'NONE', #1339 ) ;
#234 = CYLINDRICAL_SURFACE ( 'NONE', #360, 1.250000000000004663 ) ;
#235 = CYLINDRICAL_SURFACE ( 'NONE', #348, 1.250000000000004663 ) ;
#236 = CIRCLE ( 'NONE', #163, 12.50000000000000000 ) ;
#237 = DIRECTION ( 'NONE',  ( -1.000000000000000000, -0.000000000000000000, -0.000000000000000000 ) ) ;
#238 = DIRECTION ( 'NONE',  ( -1.000000000000000000, -0.000000000000000000, -0.000000000000000000 ) ) ;
#239 = EDGE_LOOP ( 'NONE', ( #309, #1156 ) ) ;
#240 = VECTOR ( 'NONE', #1281, 1000.000000000000000 ) ;
#241 = AXIS2_PLACEMENT_3D ( 'NONE', #887, #895, #268 ) ;
#242 = CARTESIAN_POINT ( 'NONE',  ( 0.000000000000000000, 61.00000000000002842, 29.74999999999991829 ) ) ;
#243 = EDGE_CURVE ( 'NONE', #1371, #160, #363, .T. ) ;
#244 = CARTESIAN_POINT ( 'NONE',  ( 57.00000000000000000, 38.50000000000001421, 40.74999999999999289 ) ) ;
#245 = CARTESIAN_POINT ( 'NONE',  ( 3.999999999999996447, 3.999999999999994227, 0.000000000000000000 ) ) ;
#246 = CYLINDRICAL_SURFACE ( 'NONE', #836, 1.250000000000007994 ) ;
#247 = ORIENTED_EDGE ( 'NONE', *, *, #957, .T. ) ;
#248 = CARTESIAN_POINT ( 'NONE',  ( 57.00000000000000000, 50.19134295108990074, 21.74999999999995026 ) ) ;
#249 = ADVANCED_FACE ( 'NONE', ( #810 ), #269, .F. ) ;
#250 = CARTESIAN_POINT ( 'NONE',  ( 10.00000000000000000, 38.50000000000000711, 5.999999999999998224 ) ) ;
#251 = DIRECTION ( 'NONE',  ( 0.000000000000000000, 0.000000000000000000, -1.000000000000000000 ) ) ;
#252 = ORIENTED_EDGE ( 'NONE', *, *, #1037, .T. ) ;
#253 = CIRCLE ( 'NONE', #1041, 1.250000000000002220 ) ;
#254 = DIRECTION ( 'NONE',  ( 0.000000000000000000, -0.8660254037844332675, 0.5000000000000092149 ) ) ;
#255 = ORIENTED_EDGE ( 'NONE', *, *, #625, .F. ) ;
#256 = CARTESIAN_POINT ( 'NONE',  ( 4.000000000000000888, 61.00000000000002842, 28.49999999999991473 ) ) ;
#257 = CARTESIAN_POINT ( 'NONE',  ( 41.93502884254437646, 3.999999999999996447, 41.93502884254442620 ) ) ;
#258 = CARTESIAN_POINT ( 'NONE',  ( 10.00000000000000000, 38.50000000000002132, 52.25000000000002132 ) ) ;
#259 = ORIENTED_EDGE ( 'NONE', *, *, #801, .T. ) ;
#260 = CIRCLE ( 'NONE', #1167, 1.250000000000004663 ) ;
#261 = ADVANCED_FACE ( 'NONE', ( #1251 ), #174, .F. ) ;
#262 = CARTESIAN_POINT ( 'NONE',  ( 57.00000000000000000, 50.19134295108995047, 35.24999999999997868 ) ) ;
#263 = VERTEX_POINT ( 'NONE', #392 ) ;
#264 = CIRCLE ( 'NONE', #1353, 12.50000000000000000 ) ;
#265 = AXIS2_PLACEMENT_3D ( 'NONE', #205, #767, #649 ) ;
#266 = DIRECTION ( 'NONE',  ( -1.000000000000000000, -0.000000000000000000, -0.000000000000000000 ) ) ;
#267 = CIRCLE ( 'NONE', #634, 1.250000000000007994 ) ;
#268 = DIRECTION ( 'NONE',  ( 0.000000000000000000, -1.000000000000000000, 0.000000000000000000 ) ) ;
#269 = CYLINDRICAL_SURFACE ( 'NONE', #114, 12.50000000000000000 ) ;
#270 = CALENDAR_DATE ( 2026, 25, 4 ) ;
#271 = EDGE_CURVE ( 'NONE', #657, #890, #916, .T. ) ;
#272 = CARTESIAN_POINT ( 'NONE',  ( 4.000000000000003553, 50.19134295108990074, 21.74999999999995026 ) ) ;
#273 = CARTESIAN_POINT ( 'NONE',  ( 0.000000000000000000, 38.50000000000001421, 15.00000000000000711 ) ) ;
#274 = FACE_OUTER_BOUND ( 'NONE', #109, .T. ) ;
#275 = DIRECTION ( 'NONE',  ( 0.000000000000000000, 0.000000000000000000, 1.000000000000000000 ) ) ;
#276 = ORIENTED_EDGE ( 'NONE', *, *, #986, .T. ) ;
#277 = CC_DESIGN_PERSON_AND_ORGANIZATION_ASSIGNMENT ( #1293, #912, ( #1086 ) ) ;
#278 = ORIENTED_EDGE ( 'NONE', *, *, #25, .T. ) ;
#279 = CARTESIAN_POINT ( 'NONE',  ( 0.000000000000000000, 0.000000000000000000, 57.00000000000000000 ) ) ;
#280 = FACE_BOUND ( 'NONE', #146, .T. ) ;
#281 = CARTESIAN_POINT ( 'NONE',  ( 0.000000000000000000, 26.80865704891017032, 36.50000000000014211 ) ) ;
#282 = ORIENTED_EDGE ( 'NONE', *, *, #1192, .F. ) ;
#283 = CIRCLE ( 'NONE', #610, 12.50000000000000000 ) ;
#284 = DIRECTION ( 'NONE',  ( -1.000000000000000000, -0.000000000000000000, -0.000000000000000000 ) ) ;
#285 = AXIS2_PLACEMENT_3D ( 'NONE', #402, #57, #1035 ) ;
#286 = ADVANCED_FACE ( 'NONE', ( #1263, #516, #931, #280, #398, #1282 ), #644, .F. ) ;
#287 = CYLINDRICAL_SURFACE ( 'NONE', #846, 1.250000000000007994 ) ;
#288 = ORIENTED_EDGE ( 'NONE', *, *, #876, .T. ) ;
#289 = CARTESIAN_POINT ( 'NONE',  ( 1.592040838891558701E-15, 67.00000000000000000, 0.000000000000000000 ) ) ;
#290 = ADVANCED_FACE ( 'NONE', ( #1060 ), #520, .F. ) ;
#291 = CARTESIAN_POINT ( 'NONE',  ( 41.93502884254437646, 3.999999999999996447, 43.18502884254444041 ) ) ;
#292 = PERSON_AND_ORGANIZATION_ROLE ( 'design_owner' ) ;
#293 = ADVANCED_FACE ( 'NONE', ( #945 ), #287, .F. ) ;
#294 = EDGE_LOOP ( 'NONE', ( #428, #201, #128, #453 ) ) ;
#295 = VECTOR ( 'NONE', #790, 1000.000000000000000 ) ;
#296 = APPROVAL_PERSON_ORGANIZATION ( #81, #186, #154 ) ;
#297 = CIRCLE ( 'NONE', #479, 1.250000000000007994 ) ;
#298 = LINE ( 'NONE', #1383, #240 ) ;
#299 = CIRCLE ( 'NONE', #63, 1.250000000000004663 ) ;
#300 = DIRECTION ( 'NONE',  ( -0.000000000000000000, -1.000000000000000000, -0.000000000000000000 ) ) ;
#301 = ORIENTED_EDGE ( 'NONE', *, *, #101, .T. ) ;
#302 = DIRECTION ( 'NONE',  ( -1.000000000000000000, 0.000000000000000000, 0.000000000000000000 ) ) ;
#303 = VERTEX_POINT ( 'NONE', #628 ) ;
#304 = CARTESIAN_POINT ( 'NONE',  ( 4.000000000000003553, 50.19134295108995047, 35.24999999999997868 ) ) ;
#305 = AXIS2_PLACEMENT_3D ( 'NONE', #74, #199, #831 ) ;
#306 = AXIS2_PLACEMENT_3D ( 'NONE', #543, #104, #1206 ) ;
#307 = CARTESIAN_POINT ( 'NONE',  ( 57.00000000000000000, 38.50000000000001421, 42.00000000000000000 ) ) ;
#308 = AXIS2_PLACEMENT_3D ( 'NONE', #1004, #574, #1011 ) ;
#309 = ORIENTED_EDGE ( 'NONE', *, *, #588, .T. ) ;
#310 = EDGE_CURVE ( 'NONE', #982, #1, #941, .T. ) ;
#311 = DIRECTION ( 'NONE',  ( -1.000000000000000000, 0.000000000000000000, -0.000000000000000000 ) ) ;
#312 = ORIENTED_EDGE ( 'NONE', *, *, #487, .T. ) ;
#313 = LINE ( 'NONE', #744, #575 ) ;
#314 = FACE_OUTER_BOUND ( 'NONE', #763, .T. ) ;
#315 = DIRECTION ( 'NONE',  ( 1.000000000000000000, 0.000000000000000000, 0.000000000000000000 ) ) ;
#316 = VERTEX_POINT ( 'NONE', #291 ) ;
#317 = DIRECTION ( 'NONE',  ( -1.000000000000000000, -0.000000000000000000, -0.000000000000000000 ) ) ;
#318 = ORIENTED_EDGE ( 'NONE', *, *, #974, .F. ) ;
#319 = CC_DESIGN_APPROVAL ( #231, ( #1086 ) ) ;
#320 = DIRECTION ( 'NONE',  ( 0.000000000000000000, 0.000000000000000000, 1.000000000000000000 ) ) ;
#321 = VECTOR ( 'NONE', #326, 1000.000000000000000 ) ;
#322 = FACE_OUTER_BOUND ( 'NONE', #522, .T. ) ;
#323 = ORIENTED_EDGE ( 'NONE', *, *, #901, .T. ) ;
#324 = CARTESIAN_POINT ( 'NONE',  ( 0.000000000000000000, 38.50000000000000711, 5.999999999999998224 ) ) ;
#325 = ORIENTED_EDGE ( 'NONE', *, *, #847, .F. ) ;
#326 = DIRECTION ( 'NONE',  ( -0.000000000000000000, -1.000000000000000000, -0.000000000000000000 ) ) ;
#327 = DIRECTION ( 'NONE',  ( 0.000000000000000000, -0.8660254037844332675, 0.5000000000000092149 ) ) ;
#328 = VECTOR ( 'NONE', #793, 1000.000000000000000 ) ;
#329 = EDGE_CURVE ( 'NONE', #1360, #390, #1070, .T. ) ;
#330 = ORIENTED_EDGE ( 'NONE', *, *, #1278, .F. ) ;
#331 = DIRECTION ( 'NONE',  ( 1.145572106777136491E-16, -1.000000000000000000, 0.000000000000000000 ) ) ;
#332 = EDGE_LOOP ( 'NONE', ( #1141, #425, #769, #1320 ) ) ;
#333 = FACE_BOUND ( 'NONE', #698, .T. ) ;
#334 = CARTESIAN_POINT ( 'NONE',  ( 57.00000000000000000, 50.19134295108995047, 35.24999999999997868 ) ) ;
#335 = EDGE_CURVE ( 'NONE', #118, #877, #404, .T. ) ;
#336 = EDGE_CURVE ( 'NONE', #233, #819, #952, .T. ) ;
#337 = DIRECTION ( 'NONE',  ( -1.000000000000000000, -0.000000000000000000, -0.000000000000000000 ) ) ;
#338 = DIRECTION ( 'NONE',  ( 0.000000000000000000, 0.000000000000000000, 1.000000000000000000 ) ) ;
#339 = ORIENTED_EDGE ( 'NONE', *, *, #1043, .T. ) ;
#340 = LINE ( 'NONE', #417, #730 ) ;
#341 = CARTESIAN_POINT ( 'NONE',  ( 0.000000000000000000, 50.19134295108995047, 36.49999999999997868 ) ) ;
#342 = FACE_BOUND ( 'NONE', #760, .T. ) ;
#343 = ORIENTED_EDGE ( 'NONE', *, *, #729, .T. ) ;
#344 = EDGE_CURVE ( 'NONE', #1375, #877, #1218, .T. ) ;
#345 = CARTESIAN_POINT ( 'NONE',  ( 0.000000000000000000, 26.80865704891002110, 20.50000000000011013 ) ) ;
#346 = CARTESIAN_POINT ( 'NONE',  ( 10.00000000000000000, 38.50000000000000711, 4.749999999999993783 ) ) ;
#347 = AXIS2_PLACEMENT_3D ( 'NONE', #1250, #1058, #378 ) ;
#348 = AXIS2_PLACEMENT_3D ( 'NONE', #1199, #1401, #122 ) ;
#349 = LINE ( 'NONE', #123, #549 ) ;
#350 = ORIENTED_EDGE ( 'NONE', *, *, #1190, .F. ) ;
#351 = EDGE_CURVE ( 'NONE', #1168, #860, #1333, .T. ) ;
#352 = FACE_OUTER_BOUND ( 'NONE', #718, .T. ) ;
#353 = ORIENTED_EDGE ( 'NONE', *, *, #396, .T. ) ;
#354 = DIRECTION ( 'NONE',  ( -1.000000000000000000, 8.260587980841936314E-17, 0.000000000000000000 ) ) ;
#355 = LINE ( 'NONE', #599, #328 ) ;
#356 = ORIENTED_EDGE ( 'NONE', *, *, #642, .F. ) ;
#357 = FACE_OUTER_BOUND ( 'NONE', #544, .T. ) ;
#358 = ORIENTED_EDGE ( 'NONE', *, *, #826, .F. ) ;
#359 = FACE_OUTER_BOUND ( 'NONE', #24, .T. ) ;
#360 = AXIS2_PLACEMENT_3D ( 'NONE', #1091, #1297, #320 ) ;
#361 = EDGE_CURVE ( 'NONE', #30, #1360, #1370, .T. ) ;
#362 = AXIS2_PLACEMENT_3D ( 'NONE', #92, #540, #965 ) ;
#363 = LINE ( 'NONE', #258, #1352 ) ;
#364 = CIRCLE ( 'NONE', #434, 28.50000000000000355 ) ;
#365 = PLANE ( 'NONE',  #225 ) ;
#366 = EDGE_LOOP ( 'NONE', ( #409, #153, #1076, #312 ) ) ;
#367 = DIRECTION ( 'NONE',  ( 0.000000000000000000, 0.000000000000000000, 1.000000000000000000 ) ) ;
#368 = CARTESIAN_POINT ( 'NONE',  ( 4.000000000000023981, 38.50000000000001421, 57.00000000000000000 ) ) ;
#369 = FACE_OUTER_BOUND ( 'NONE', #560, .T. ) ;
#370 = ADVANCED_FACE ( 'NONE', ( #1146 ), #732, .T. ) ;
#371 = CIRCLE ( 'NONE', #442, 1.250000000000007994 ) ;
#372 = SECURITY_CLASSIFICATION_LEVEL ( 'unclassified' ) ;
#373 = CIRCLE ( 'NONE', #1169, 7.499999999999992895 ) ;
#374 = LINE ( 'NONE', #141, #1369 ) ;
#375 = AXIS2_PLACEMENT_3D ( 'NONE', #1243, #590, #1220 ) ;
#376 = LINE ( 'NONE', #1104, #561 ) ;
#377 = AXIS2_PLACEMENT_3D ( 'NONE', #940, #1377, #95 ) ;
#378 = DIRECTION ( 'NONE',  ( 1.000000000000000000, 0.000000000000000000, 0.000000000000000000 ) ) ;
#379 = DIRECTION ( 'NONE',  ( 0.000000000000000000, 0.000000000000000000, -1.000000000000000000 ) ) ;
#380 = EDGE_CURVE ( 'NONE', #504, #618, #264, .T. ) ;
#381 = DIRECTION ( 'NONE',  ( -1.000000000000000000, 0.000000000000000000, 0.000000000000000000 ) ) ;
#382 = VERTEX_POINT ( 'NONE', #58 ) ;
#383 = EDGE_CURVE ( 'NONE', #16, #504, #503, .T. ) ;
#384 = ORIENTED_EDGE ( 'NONE', *, *, #776, .T. ) ;
#385 = CARTESIAN_POINT ( 'NONE',  ( 3.999999999999996447, 3.999999999999994227, 57.00000000000000000 ) ) ;
#386 = CARTESIAN_POINT ( 'NONE',  ( 15.06497115745553117, 57.00000000000000000, 41.93502884254432672 ) ) ;
#387 = AXIS2_PLACEMENT_3D ( 'NONE', #1404, #856, #1295 ) ;
#388 = ORIENTED_EDGE ( 'NONE', *, *, #1154, .F. ) ;
#389 = CIRCLE ( 'NONE', #751, 1.250000000000004663 ) ;
#390 = VERTEX_POINT ( 'NONE', #1373 ) ;
#391 = FACE_BOUND ( 'NONE', #467, .T. ) ;
#392 = CARTESIAN_POINT ( 'NONE',  ( 3.999999999999996447, 38.50000000000001421, 36.00000000000000000 ) ) ;
#393 = ORIENTED_EDGE ( 'NONE', *, *, #329, .T. ) ;
#394 = CARTESIAN_POINT ( 'NONE',  ( 41.93502884254437646, 0.000000000000000000, 40.68502884254441909 ) ) ;
#395 = AXIS2_PLACEMENT_3D ( 'NONE', #22, #903, #897 ) ;
#396 = EDGE_CURVE ( 'NONE', #743, #72, #961, .T. ) ;
#397 = DIRECTION ( 'NONE',  ( -0.000000000000000000, -1.000000000000000000, -0.000000000000000000 ) ) ;
#398 = FACE_BOUND ( 'NONE', #1068, .T. ) ;
#399 = DATE_TIME_ROLE ( 'classification_date' ) ;
#400 = ORIENTED_EDGE ( 'NONE', *, *, #919, .F. ) ;
#401 = ORIENTED_EDGE ( 'NONE', *, *, #799, .T. ) ;
#402 = CARTESIAN_POINT ( 'NONE',  ( 15.06497115745553117, 57.00000000000000000, 41.93502884254432672 ) ) ;
#403 = ADVANCED_FACE ( 'NONE', ( #314 ), #235, .F. ) ;
#404 = LINE ( 'NONE', #420, #829 ) ;
#405 = PERSON_AND_ORGANIZATION ( #1140, #105 ) ;
#406 = EDGE_CURVE ( 'NONE', #1325, #1360, #452, .T. ) ;
#407 = ORIENTED_EDGE ( 'NONE', *, *, #588, .F. ) ;
#408 = LOCAL_TIME ( 13, 3, 17.00000000000000000, #629 ) ;
#409 = ORIENTED_EDGE ( 'NONE', *, *, #957, .F. ) ;
#410 = FACE_OUTER_BOUND ( 'NONE', #601, .T. ) ;
#411 = VECTOR ( 'NONE', #646, 1000.000000000000000 ) ;
#412 = DIRECTION ( 'NONE',  ( -1.000000000000000000, -0.000000000000000000, -0.000000000000000000 ) ) ;
#413 = APPROVAL_STATUS ( 'not_yet_approved' ) ;
#414 = VERTEX_POINT ( 'NONE', #662 ) ;
#415 = DIRECTION ( 'NONE',  ( 1.000000000000000000, 0.000000000000000000, -0.000000000000000000 ) ) ;
#416 = ORIENTED_EDGE ( 'NONE', *, *, #689, .F. ) ;
#417 = CARTESIAN_POINT ( 'NONE',  ( 41.93502884254437646, 57.00000000000000000, 43.18502884254444041 ) ) ;
#418 = AXIS2_PLACEMENT_3D ( 'NONE', #935, #182, #192 ) ;
#419 = VECTOR ( 'NONE', #987, 1000.000000000000000 ) ;
#420 = CARTESIAN_POINT ( 'NONE',  ( 10.00000000000000000, 38.50000000000000711, 7.250000000000002665 ) ) ;
#421 = VECTOR ( 'NONE', #783, 1000.000000000000000 ) ;
#422 = ORIENTED_EDGE ( 'NONE', *, *, #1286, .T. ) ;
#423 = EDGE_CURVE ( 'NONE', #263, #711, #1147, .T. ) ;
#424 = DIRECTION ( 'NONE',  ( 0.000000000000000000, 0.000000000000000000, 1.000000000000000000 ) ) ;
#425 = ORIENTED_EDGE ( 'NONE', *, *, #919, .T. ) ;
#426 = FACE_BOUND ( 'NONE', #1149, .T. ) ;
#427 = DIRECTION ( 'NONE',  ( -1.000000000000000000, 8.260587980841936314E-17, 0.000000000000000000 ) ) ;
#428 = ORIENTED_EDGE ( 'NONE', *, *, #1305, .F. ) ;
#429 = CARTESIAN_POINT ( 'NONE',  ( 3.999999999999996447, 38.50000000000001421, 15.00000000000000711 ) ) ;
#430 = ORIENTED_EDGE ( 'NONE', *, *, #204, .F. ) ;
#431 = CC_DESIGN_APPROVAL ( #1180, ( #685 ) ) ;
#432 = FACE_OUTER_BOUND ( 'NONE', #647, .T. ) ;
#433 = EDGE_CURVE ( 'NONE', #1364, #303, #784, .T. ) ;
#434 = AXIS2_PLACEMENT_3D ( 'NONE', #533, #1321, #1198 ) ;
#435 = CARTESIAN_POINT ( 'NONE',  ( 41.93502884254456831, 57.00000000000000000, 15.06497115745576743 ) ) ;
#436 = ORIENTED_EDGE ( 'NONE', *, *, #1226, .T. ) ;
#437 = CARTESIAN_POINT ( 'NONE',  ( 15.06497115745553117, 3.999999999999989786, 43.18502884254432672 ) ) ;
#438 = FACE_OUTER_BOUND ( 'NONE', #33, .T. ) ;
#439 = ORIENTED_EDGE ( 'NONE', *, *, #735, .F. ) ;
#440 = ADVANCED_FACE ( 'NONE', ( #322 ), #1322, .F. ) ;
#441 = LINE ( 'NONE', #1212, #906 ) ;
#442 = AXIS2_PLACEMENT_3D ( 'NONE', #152, #821, #708 ) ;
#443 = CARTESIAN_POINT ( 'NONE',  ( 57.00000000000000000, 38.50000000000001421, 42.00000000000000000 ) ) ;
#444 = AXIS2_PLACEMENT_3D ( 'NONE', #443, #746, #874 ) ;
#445 = VERTEX_POINT ( 'NONE', #566 ) ;
#446 = ORIENTED_EDGE ( 'NONE', *, *, #1010, .T. ) ;
#447 = VECTOR ( 'NONE', #1039, 1000.000000000000000 ) ;
#448 = ORIENTED_EDGE ( 'NONE', *, *, #1216, .T. ) ;
#449 = FACE_OUTER_BOUND ( 'NONE', #1387, .T. ) ;
#450 = VERTEX_POINT ( 'NONE', #341 ) ;
#451 = DIRECTION ( 'NONE',  ( -1.000000000000000000, 8.260587980841936314E-17, 0.000000000000000000 ) ) ;
#452 = LINE ( 'NONE', #882, #737 ) ;
#453 = ORIENTED_EDGE ( 'NONE', *, *, #82, .F. ) ;
#454 = DIRECTION ( 'NONE',  ( 0.000000000000000000, 1.000000000000000000, -2.775557561562888984E-15 ) ) ;
#455 = CARTESIAN_POINT ( 'NONE',  ( 3.999999999999996447, 38.50000000000001421, 28.50000000000000355 ) ) ;
#456 = ORIENTED_EDGE ( 'NONE', *, *, #129, .T. ) ;
#457 = CARTESIAN_POINT ( 'NONE',  ( 3.999999999999996447, 38.50000000000001421, 42.00000000000000000 ) ) ;
#458 = FACE_OUTER_BOUND ( 'NONE', #197, .T. ) ;
#459 = ORIENTED_EDGE ( 'NONE', *, *, #1000, .F. ) ;
#460 = DIRECTION ( 'NONE',  ( 0.000000000000000000, 0.000000000000000000, 1.000000000000000000 ) ) ;
#461 = ORIENTED_EDGE ( 'NONE', *, *, #1245, .T. ) ;
#462 = CARTESIAN_POINT ( 'NONE',  ( 3.999999999999996447, 26.80865704891002110, 20.50000000000011013 ) ) ;
#463 = CARTESIAN_POINT ( 'NONE',  ( 3.999999999999996447, 26.80865704891002110, 21.75000000000011369 ) ) ;
#464 = CYLINDRICAL_SURFACE ( 'NONE', #492, 1.250000000000007994 ) ;
#465 = AXIS2_PLACEMENT_3D ( 'NONE', #1045, #1175, #622 ) ;
#466 = DIRECTION ( 'NONE',  ( 1.000000000000000000, -2.376180356554565451E-17, 0.000000000000000000 ) ) ;
#467 = EDGE_LOOP ( 'NONE', ( #766, #1172 ) ) ;
#468 = DIRECTION ( 'NONE',  ( 0.000000000000000000, 0.000000000000000000, 1.000000000000000000 ) ) ;
#469 = CARTESIAN_POINT ( 'NONE',  ( 41.93502884254456831, 3.999999999999996447, 16.31497115745577275 ) ) ;
#470 = CARTESIAN_POINT ( 'NONE',  ( 28.49999999999999289, 3.999999999999996447, 28.50000000000000355 ) ) ;
#471 = FACE_BOUND ( 'NONE', #220, .T. ) ;
#472 = ORIENTED_EDGE ( 'NONE', *, *, #271, .F. ) ;
#473 = CARTESIAN_POINT ( 'NONE',  ( 3.999999999999999112, 38.50000000000002132, 51.00000000000000711 ) ) ;
#474 = EDGE_CURVE ( 'NONE', #1108, #1006, #1098, .T. ) ;
#475 = CARTESIAN_POINT ( 'NONE',  ( 57.00000000000000000, 50.19134295108990074, 21.74999999999995026 ) ) ;
#476 = AXIS2_PLACEMENT_3D ( 'NONE', #1242, #684, #147 ) ;
#477 = APPROVAL_PERSON_ORGANIZATION ( #1386, #231, #75 ) ;
#478 = CARTESIAN_POINT ( 'NONE',  ( 57.00000000000000000, 50.19134295108990074, 22.99999999999995381 ) ) ;
#479 = AXIS2_PLACEMENT_3D ( 'NONE', #627, #1044, #66 ) ;
#480 = VECTOR ( 'NONE', #1071, 1000.000000000000000 ) ;
#481 = CALENDAR_DATE ( 2026, 25, 4 ) ;
#482 = ORIENTED_EDGE ( 'NONE', *, *, #1089, .F. ) ;
#483 = CARTESIAN_POINT ( 'NONE',  ( 28.50000000000000000, 3.999999999999996447, 57.00000000000000000 ) ) ;
#484 = VERTEX_POINT ( 'NONE', #968 ) ;
#485 = EDGE_CURVE ( 'NONE', #1222, #990, #1395, .T. ) ;
#486 = DIRECTION ( 'NONE',  ( 1.000000000000000000, 0.000000000000000000, 0.000000000000000000 ) ) ;
#487 = EDGE_CURVE ( 'NONE', #93, #1264, #50, .T. ) ;
#488 = ADVANCED_FACE ( 'NONE', ( #992 ), #1299, .F. ) ;
#489 = CYLINDRICAL_SURFACE ( 'NONE', #585, 1.250000000000001110 ) ;
#490 = CARTESIAN_POINT ( 'NONE',  ( 0.000000000000000000, 38.50000000000002132, 51.00000000000000711 ) ) ;
#491 = EDGE_LOOP ( 'NONE', ( #712, #665 ) ) ;
#492 = AXIS2_PLACEMENT_3D ( 'NONE', #143, #1030, #53 ) ;
#493 = APPROVAL_STATUS ( 'not_yet_approved' ) ;
#494 = AXIS2_PLACEMENT_3D ( 'NONE', #977, #427, #755 ) ;
#495 = ORIENTED_EDGE ( 'NONE', *, *, #60, .T. ) ;
#496 = CIRCLE ( 'NONE', #812, 1.250000000000007994 ) ;
#497 = FACE_BOUND ( 'NONE', #1389, .T. ) ;
#498 = DIRECTION ( 'NONE',  ( -1.000000000000000000, 8.260587980841936314E-17, 0.000000000000000000 ) ) ;
#499 = VERTEX_POINT ( 'NONE', #1191 ) ;
#500 = ADVANCED_FACE ( 'NONE', ( #226 ), #1415, .F. ) ;
#501 = ORIENTED_EDGE ( 'NONE', *, *, #1134, .T. ) ;
#502 = CARTESIAN_POINT ( 'NONE',  ( 41.93502884254437646, 3.999999999999996447, 40.68502884254441909 ) ) ;
#503 = LINE ( 'NONE', #64, #850 ) ;
#504 = VERTEX_POINT ( 'NONE', #13 ) ;
#505 = ADVANCED_FACE ( 'NONE', ( #853 ), #1316, .F. ) ;
#506 = CIRCLE ( 'NONE', #476, 28.50000000000000711 ) ;
#507 = EDGE_LOOP ( 'NONE', ( #1184, #1310 ) ) ;
#508 = CARTESIAN_POINT ( 'NONE',  ( 15.06497115745562887, 57.00000000000000000, 16.31497115745557736 ) ) ;
#509 = DIRECTION ( 'NONE',  ( -0.000000000000000000, -1.000000000000000000, -0.000000000000000000 ) ) ;
#510 = ORIENTED_EDGE ( 'NONE', *, *, #485, .T. ) ;
#511 = ORIENTED_EDGE ( 'NONE', *, *, #548, .F. ) ;
#512 = ORIENTED_EDGE ( 'NONE', *, *, #351, .F. ) ;
#513 = CIRCLE ( 'NONE', #49, 1.250000000000007994 ) ;
#514 = DIRECTION ( 'NONE',  ( 0.000000000000000000, -1.000000000000000000, 0.000000000000000000 ) ) ;
#515 = CIRCLE ( 'NONE', #852, 1.250000000000004885 ) ;
#516 = FACE_BOUND ( 'NONE', #89, .T. ) ;
#517 = DATE_AND_TIME ( #481, #40 ) ;
#518 = ORIENTED_EDGE ( 'NONE', *, *, #54, .T. ) ;
#519 = FACE_OUTER_BOUND ( 'NONE', #56, .T. ) ;
#520 = CYLINDRICAL_SURFACE ( 'NONE', #418, 1.250000000000004663 ) ;
#521 = APPROVAL_ROLE ( '' ) ;
#522 = EDGE_LOOP ( 'NONE', ( #893, #55, #1038, #796 ) ) ;
#523 =( GEOMETRIC_REPRESENTATION_CONTEXT ( 3 ) GLOBAL_UNCERTAINTY_ASSIGNED_CONTEXT ( ( #568 ) ) GLOBAL_UNIT_ASSIGNED_CONTEXT ( ( #579, #23, #795 ) ) REPRESENTATION_CONTEXT ( 'NONE', 'WORKASPACE' ) );
#524 = CARTESIAN_POINT ( 'NONE',  ( 57.00000000000000000, 50.19134295108990074, 20.49999999999994671 ) ) ;
#525 = VERTEX_POINT ( 'NONE', #96 ) ;
#526 = CARTESIAN_POINT ( 'NONE',  ( 0.000000000000000000, 38.50000000000001421, 36.00000000000000000 ) ) ;
#527 = CARTESIAN_POINT ( 'NONE',  ( 0.000000000000000000, 38.50000000000000711, 5.999999999999998224 ) ) ;
#528 = APPROVAL_DATE_TIME ( #726, #1180 ) ;
#529 = EDGE_CURVE ( 'NONE', #933, #929, #373, .T. ) ;
#530 = ORIENTED_EDGE ( 'NONE', *, *, #567, .T. ) ;
#531 = DIRECTION ( 'NONE',  ( 1.145572106777136491E-16, -1.000000000000000000, 0.000000000000000000 ) ) ;
#532 = ORIENTED_EDGE ( 'NONE', *, *, #221, .T. ) ;
#533 = CARTESIAN_POINT ( 'NONE',  ( 3.999999999999996447, 38.50000000000001421, 28.50000000000000355 ) ) ;
#534 = AXIS2_PLACEMENT_3D ( 'NONE', #538, #115, #454 ) ;
#535 = AXIS2_PLACEMENT_3D ( 'NONE', #334, #551, #207 ) ;
#536 = DIRECTION ( 'NONE',  ( 0.000000000000000000, 0.000000000000000000, -1.000000000000000000 ) ) ;
#537 = VERTEX_POINT ( 'NONE', #559 ) ;
#538 = CARTESIAN_POINT ( 'NONE',  ( 0.000000000000000000, 61.00000000000002842, 28.49999999999991473 ) ) ;
#539 = EDGE_CURVE ( 'NONE', #734, #93, #1308, .T. ) ;
#540 = DIRECTION ( 'NONE',  ( -1.000000000000000000, -0.000000000000000000, -0.000000000000000000 ) ) ;
#541 = ORIENTED_EDGE ( 'NONE', *, *, #129, .F. ) ;
#542 = FACE_BOUND ( 'NONE', #592, .T. ) ;
#543 = CARTESIAN_POINT ( 'NONE',  ( 41.93502884254456831, 0.000000000000000000, 15.06497115745576743 ) ) ;
#544 = EDGE_LOOP ( 'NONE', ( #288, #195, #978, #671, #400, #530 ) ) ;
#545 = CYLINDRICAL_SURFACE ( 'NONE', #1159, 1.250000000000007994 ) ;
#546 = ORIENTED_EDGE ( 'NONE', *, *, #310, .F. ) ;
#547 = VECTOR ( 'NONE', #217, 1000.000000000000000 ) ;
#548 = EDGE_CURVE ( 'NONE', #624, #390, #1182, .T. ) ;
#549 = VECTOR ( 'NONE', #1123, 1000.000000000000000 ) ;
#550 = FACE_BOUND ( 'NONE', #1280, .T. ) ;
#551 = DIRECTION ( 'NONE',  ( -1.000000000000000000, -0.000000000000000000, -0.000000000000000000 ) ) ;
#552 = ORIENTED_EDGE ( 'NONE', *, *, #229, .F. ) ;
#553 = ORIENTED_EDGE ( 'NONE', *, *, #1238, .T. ) ;
#554 = DIRECTION ( 'NONE',  ( 1.000000000000000000, 0.000000000000000000, 0.000000000000000000 ) ) ;
#555 = EDGE_LOOP ( 'NONE', ( #1122, #1296, #553, #816 ) ) ;
#556 = CYLINDRICAL_SURFACE ( 'NONE', #667, 1.250000000000007994 ) ;
#557 = AXIS2_PLACEMENT_3D ( 'NONE', #999, #498, #1105 ) ;
#558 = EDGE_CURVE ( 'NONE', #890, #657, #1034, .T. ) ;
#559 = CARTESIAN_POINT ( 'NONE',  ( 0.000000000000000000, 38.50000000000001421, 13.75000000000000178 ) ) ;
#560 = EDGE_LOOP ( 'NONE', ( #786, #722, #1268, #750 ) ) ;
#561 = VECTOR ( 'NONE', #1127, 1000.000000000000000 ) ;
#562 = CARTESIAN_POINT ( 'NONE',  ( 57.00000000000000000, 26.80865704891002110, 23.00000000000011724 ) ) ;
#563 = ORIENTED_EDGE ( 'NONE', *, *, #335, .T. ) ;
#564 = CARTESIAN_POINT ( 'NONE',  ( 4.000000000000003553, 50.19134295108995047, 36.49999999999997868 ) ) ;
#565 = EDGE_CURVE ( 'NONE', #982, #1003, #1355, .T. ) ;
#566 = CARTESIAN_POINT ( 'NONE',  ( 4.000000000000003553, 50.19134295108990074, 20.49999999999994671 ) ) ;
#567 = EDGE_CURVE ( 'NONE', #1080, #789, #792, .T. ) ;
#568 = UNCERTAINTY_MEASURE_WITH_UNIT (LENGTH_MEASURE( 1.000000000000000082E-05 ), #579, 'distance_accuracy_value', 'NONE');
#569 = ORIENTED_EDGE ( 'NONE', *, *, #651, .F. ) ;
#570 = DIRECTION ( 'NONE',  ( -1.000000000000000000, 8.260587980841936314E-17, 0.000000000000000000 ) ) ;
#571 = ORIENTED_EDGE ( 'NONE', *, *, #638, .T. ) ;
#572 = DIRECTION ( 'NONE',  ( 0.000000000000000000, -1.000000000000000000, 0.000000000000000000 ) ) ;
#573 = LOCAL_TIME ( 13, 3, 17.00000000000000000, #953 ) ;
#574 = DIRECTION ( 'NONE',  ( -1.000000000000000000, 0.000000000000000000, 0.000000000000000000 ) ) ;
#575 = VECTOR ( 'NONE', #1181, 1000.000000000000000 ) ;
#576 = DIRECTION ( 'NONE',  ( -0.000000000000000000, -1.000000000000000000, -0.000000000000000000 ) ) ;
#577 = EDGE_CURVE ( 'NONE', #450, #1, #515, .T. ) ;
#578 = EDGE_CURVE ( 'NONE', #775, #624, #376, .T. ) ;
#579 =( LENGTH_UNIT ( ) NAMED_UNIT ( * ) SI_UNIT ( .MILLI., .METRE. ) );
#580 = ORIENTED_EDGE ( 'NONE', *, *, #578, .F. ) ;
#581 = DIRECTION ( 'NONE',  ( -1.000000000000000000, 8.260587980841936314E-17, 0.000000000000000000 ) ) ;
#582 = DIRECTION ( 'NONE',  ( 0.000000000000000000, -1.000000000000000000, 0.000000000000000000 ) ) ;
#583 = DIRECTION ( 'NONE',  ( 1.145572106777136491E-16, -1.000000000000000000, 0.000000000000000000 ) ) ;
#584 = EDGE_LOOP ( 'NONE', ( #98, #1056 ) ) ;
#585 = AXIS2_PLACEMENT_3D ( 'NONE', #386, #576, #251 ) ;
#586 = FACE_BOUND ( 'NONE', #216, .T. ) ;
#587 = EDGE_LOOP ( 'NONE', ( #541, #1177, #106, #1254 ) ) ;
#588 = EDGE_CURVE ( 'NONE', #414, #1124, #739, .T. ) ;
#589 = DIRECTION ( 'NONE',  ( 1.000000000000000000, 0.000000000000000000, 0.000000000000000000 ) ) ;
#590 = DIRECTION ( 'NONE',  ( -0.000000000000000000, -1.000000000000000000, -0.000000000000000000 ) ) ;
#591 = DIRECTION ( 'NONE',  ( 0.000000000000000000, 0.000000000000000000, -1.000000000000000000 ) ) ;
#592 = EDGE_LOOP ( 'NONE', ( #211, #1142 ) ) ;
#593 = DIRECTION ( 'NONE',  ( -1.000000000000000000, -0.000000000000000000, -0.000000000000000000 ) ) ;
#594 = ORIENTED_EDGE ( 'NONE', *, *, #606, .T. ) ;
#595 = ADVANCED_FACE ( 'NONE', ( #458 ), #1227, .F. ) ;
#596 = DIRECTION ( 'NONE',  ( 1.000000000000000000, 0.000000000000000000, -0.000000000000000000 ) ) ;
#597 = CARTESIAN_POINT ( 'NONE',  ( 0.000000000000000000, 50.19134295108990074, 21.74999999999995026 ) ) ;
#598 = AXIS2_PLACEMENT_3D ( 'NONE', #10, #238, #889 ) ;
#599 = CARTESIAN_POINT ( 'NONE',  ( 57.00000000000000000, 26.80865704891002110, 20.50000000000011013 ) ) ;
#600 = VECTOR ( 'NONE', #1158, 1000.000000000000000 ) ;
#601 = EDGE_LOOP ( 'NONE', ( #1231, #350, #343, #637 ) ) ;
#602 = COORDINATED_UNIVERSAL_TIME_OFFSET ( 8, 0, .AHEAD. ) ;
#603 = DIRECTION ( 'NONE',  ( -1.000000000000000000, 8.260587980841936314E-17, 0.000000000000000000 ) ) ;
#604 = ORIENTED_EDGE ( 'NONE', *, *, #1201, .F. ) ;
#605 = DIRECTION ( 'NONE',  ( -1.000000000000000000, -0.000000000000000000, -0.000000000000000000 ) ) ;
#606 = EDGE_CURVE ( 'NONE', #611, #1375, #43, .T. ) ;
#607 = DIRECTION ( 'NONE',  ( 1.000000000000000000, 1.387778780781445676E-16, 0.000000000000000000 ) ) ;
#608 = DIRECTION ( 'NONE',  ( -1.000000000000000000, -0.000000000000000000, -0.000000000000000000 ) ) ;
#609 = ORIENTED_EDGE ( 'NONE', *, *, #204, .T. ) ;
#610 = AXIS2_PLACEMENT_3D ( 'NONE', #1121, #803, #607 ) ;
#611 = VERTEX_POINT ( 'NONE', #1249 ) ;
#612 = AXIS2_PLACEMENT_3D ( 'NONE', #168, #616, #721 ) ;
#613 = AXIS2_PLACEMENT_3D ( 'NONE', #597, #614, #834 ) ;
#614 = DIRECTION ( 'NONE',  ( -1.000000000000000000, 0.000000000000000000, -0.000000000000000000 ) ) ;
#615 = EDGE_CURVE ( 'NONE', #30, #382, #1027, .T. ) ;
#616 = DIRECTION ( 'NONE',  ( -0.000000000000000000, -1.000000000000000000, -0.000000000000000000 ) ) ;
#617 = CC_DESIGN_PERSON_AND_ORGANIZATION_ASSIGNMENT ( #1053, #292, ( #1114 ) ) ;
#618 = VERTEX_POINT ( 'NONE', #702 ) ;
#619 = ORIENTED_EDGE ( 'NONE', *, *, #1378, .F. ) ;
#620 = ORIENTED_EDGE ( 'NONE', *, *, #1274, .F. ) ;
#621 = LINE ( 'NONE', #289, #600 ) ;
#622 = DIRECTION ( 'NONE',  ( 0.000000000000000000, 0.000000000000000000, -1.000000000000000000 ) ) ;
#623 = SECURITY_CLASSIFICATION ( '', '', #372 ) ;
#624 = VERTEX_POINT ( 'NONE', #814 ) ;
#625 = EDGE_CURVE ( 'NONE', #537, #132, #675, .T. ) ;
#626 = AXIS2_PLACEMENT_3D ( 'NONE', #914, #581, #133 ) ;
#627 = CARTESIAN_POINT ( 'NONE',  ( 0.000000000000000000, 38.50000000000001421, 42.00000000000000000 ) ) ;
#628 = CARTESIAN_POINT ( 'NONE',  ( 41.93502884254456831, 0.000000000000000000, 13.81497115745576210 ) ) ;
#629 = COORDINATED_UNIVERSAL_TIME_OFFSET ( 8, 0, .AHEAD. ) ;
#630 = EDGE_LOOP ( 'NONE', ( #318, #778, #849, #1106 ) ) ;
#631 = ADVANCED_FACE ( 'NONE', ( #686 ), #1112, .F. ) ;
#632 = AXIS2_PLACEMENT_3D ( 'NONE', #971, #237, #1208 ) ;
#633 = CARTESIAN_POINT ( 'NONE',  ( 9.148294372735077986E-16, 38.50000000000001421, 57.00000000000000000 ) ) ;
#634 = AXIS2_PLACEMENT_3D ( 'NONE', #134, #582, #158 ) ;
#635 = CARTESIAN_POINT ( 'NONE',  ( 57.00000000000000000, 4.000000000000000000, 57.00000000000000000 ) ) ;
#636 = COORDINATED_UNIVERSAL_TIME_OFFSET ( 8, 0, .AHEAD. ) ;
#637 = ORIENTED_EDGE ( 'NONE', *, *, #558, .T. ) ;
#638 = EDGE_CURVE ( 'NONE', #1264, #93, #267, .T. ) ;
#639 = DIRECTION ( 'NONE',  ( 0.000000000000000000, 0.000000000000000000, 1.000000000000000000 ) ) ;
#640 = EDGE_LOOP ( 'NONE', ( #704, #818 ) ) ;
#641 = CC_DESIGN_DATE_AND_TIME_ASSIGNMENT ( #946, #399, ( #623 ) ) ;
#642 = EDGE_CURVE ( 'NONE', #1405, #947, #800, .T. ) ;
#643 = DIRECTION ( 'NONE',  ( 0.000000000000000000, 0.000000000000000000, 1.000000000000000000 ) ) ;
#644 = PLANE ( 'NONE',  #1096 ) ;
#645 = ORIENTED_EDGE ( 'NONE', *, *, #243, .F. ) ;
#646 = DIRECTION ( 'NONE',  ( -1.000000000000000000, -0.000000000000000000, -0.000000000000000000 ) ) ;
#647 = EDGE_LOOP ( 'NONE', ( #48, #1188, #805, #384 ) ) ;
#648 = AXIS2_PLACEMENT_3D ( 'NONE', #272, #705, #1133 ) ;
#649 = DIRECTION ( 'NONE',  ( 0.000000000000000000, -1.000000000000000000, 0.000000000000000000 ) ) ;
#650 = CARTESIAN_POINT ( 'NONE',  ( 0.000000000000000000, 0.000000000000000000, 57.00000000000000000 ) ) ;
#651 = EDGE_CURVE ( 'NONE', #160, #1309, #923, .T. ) ;
#652 = ORIENTED_EDGE ( 'NONE', *, *, #176, .T. ) ;
#653 = DIRECTION ( 'NONE',  ( 0.000000000000000000, -1.000000000000000000, 0.000000000000000000 ) ) ;
#654 = ORIENTED_EDGE ( 'NONE', *, *, #138, .F. ) ;
#655 = CARTESIAN_POINT ( 'NONE',  ( 0.000000000000000000, 61.00000000000002842, 28.49999999999991473 ) ) ;
#656 = DIRECTION ( 'NONE',  ( -1.000000000000000000, 0.000000000000000000, 0.000000000000000000 ) ) ;
#657 = VERTEX_POINT ( 'NONE', #1234 ) ;
#658 = DIRECTION ( 'NONE',  ( 0.000000000000000000, -1.000000000000000000, 0.000000000000000000 ) ) ;
#659 = CARTESIAN_POINT ( 'NONE',  ( 15.06497115745562887, 0.000000000000000000, 15.06497115745557203 ) ) ;
#660 = ORIENTED_EDGE ( 'NONE', *, *, #1238, .F. ) ;
#661 = FACE_BOUND ( 'NONE', #584, .T. ) ;
#662 = CARTESIAN_POINT ( 'NONE',  ( 3.999999999999996447, 26.80865704891002110, 23.00000000000011724 ) ) ;
#663 = ORIENTED_EDGE ( 'NONE', *, *, #1413, .T. ) ;
#664 = CARTESIAN_POINT ( 'NONE',  ( 57.00000000000000000, 38.50000000000001421, 36.00000000000000000 ) ) ;
#665 = ORIENTED_EDGE ( 'NONE', *, *, #176, .F. ) ;
#666 = DIRECTION ( 'NONE',  ( -8.260587980841936314E-17, -1.000000000000000000, 0.000000000000000000 ) ) ;
#667 = AXIS2_PLACEMENT_3D ( 'NONE', #773, #1400, #1390 ) ;
#668 = DIRECTION ( 'NONE',  ( 0.000000000000000000, -0.8660254037844425934, -0.4999999999999930611 ) ) ;
#669 = DIRECTION ( 'NONE',  ( -0.000000000000000000, -1.000000000000000000, -0.000000000000000000 ) ) ;
#670 = FACE_BOUND ( 'NONE', #507, .T. ) ;
#671 = ORIENTED_EDGE ( 'NONE', *, *, #548, .T. ) ;
#672 = DIRECTION ( 'NONE',  ( -1.000000000000000000, 8.260587980841936314E-17, 0.000000000000000000 ) ) ;
#673 = DIRECTION ( 'NONE',  ( -1.000000000000000000, -0.000000000000000000, 0.000000000000000000 ) ) ;
#674 = VECTOR ( 'NONE', #835, 1000.000000000000000 ) ;
#675 = CIRCLE ( 'NONE', #1120, 1.250000000000004663 ) ;
#676 = ORIENTED_EDGE ( 'NONE', *, *, #487, .F. ) ;
#677 = ORIENTED_EDGE ( 'NONE', *, *, #1192, .T. ) ;
#678 = LINE ( 'NONE', #907, #295 ) ;
#679 = CARTESIAN_POINT ( 'NONE',  ( 57.00000000000000000, 4.000000000000000000, 0.000000000000000000 ) ) ;
#680 = DIRECTION ( 'NONE',  ( 8.260587980841936314E-17, 1.000000000000000000, 0.000000000000000000 ) ) ;
#681 = ORIENTED_EDGE ( 'NONE', *, *, #25, .F. ) ;
#682 = CYLINDRICAL_SURFACE ( 'NONE', #1207, 1.250000000000001110 ) ;
#683 = VERTEX_POINT ( 'NONE', #469 ) ;
#684 = DIRECTION ( 'NONE',  ( 1.145572106777136491E-16, -1.000000000000000000, 0.000000000000000000 ) ) ;
#685 = PRODUCT_DEFINITION_FORMATION_WITH_SPECIFIED_SOURCE ( 'ä»', '', #1114, .NOT_KNOWN. ) ;
#686 = FACE_OUTER_BOUND ( 'NONE', #1285, .T. ) ;
#687 = VECTOR ( 'NONE', #1187, 1000.000000000000000 ) ;
#688 = CARTESIAN_POINT ( 'NONE',  ( 57.00000000000000000, 26.80865704891002110, 21.75000000000011369 ) ) ;
#689 = EDGE_CURVE ( 'NONE', #683, #1364, #151, .T. ) ;
#690 = EDGE_LOOP ( 'NONE', ( #78, #171, #139, #1204 ) ) ;
#691 = CARTESIAN_POINT ( 'NONE',  ( 10.00000000000000000, 61.00000000000002842, 27.24999999999991118 ) ) ;
#692 = DIRECTION ( 'NONE',  ( 1.145572106777136491E-16, -1.000000000000000000, 0.000000000000000000 ) ) ;
#693 = CARTESIAN_POINT ( 'NONE',  ( 28.49999999999999289, 57.00000000000000000, 28.50000000000000355 ) ) ;
#694 = EDGE_CURVE ( 'NONE', #734, #316, #70, .T. ) ;
#695 = VECTOR ( 'NONE', #1277, 1000.000000000000000 ) ;
#696 = ADVANCED_FACE ( 'NONE', ( #359 ), #35, .F. ) ;
#697 = DIRECTION ( 'NONE',  ( -1.000000000000000000, -0.000000000000000000, -0.000000000000000000 ) ) ;
#698 = EDGE_LOOP ( 'NONE', ( #422, #259 ) ) ;
#699 = VECTOR ( 'NONE', #126, 1000.000000000000000 ) ;
#700 = DIRECTION ( 'NONE',  ( -1.000000000000000000, 8.260587980841936314E-17, 0.000000000000000000 ) ) ;
#701 = DESIGN_CONTEXT ( 'detailed design', #926, 'design' ) ;
#702 = CARTESIAN_POINT ( 'NONE',  ( 28.49999999999999289, 0.000000000000000000, 41.00000000000000711 ) ) ;
#703 = CARTESIAN_POINT ( 'NONE',  ( 3.999999999999999112, 38.50000000000000711, 7.250000000000002665 ) ) ;
#704 = ORIENTED_EDGE ( 'NONE', *, *, #1019, .T. ) ;
#705 = DIRECTION ( 'NONE',  ( -1.000000000000000000, 8.260587980841936314E-17, 0.000000000000000000 ) ) ;
#706 = DIRECTION ( 'NONE',  ( -1.000000000000000000, -1.145572106777136491E-16, 0.000000000000000000 ) ) ;
#707 = AXIS2_PLACEMENT_3D ( 'NONE', #429, #1079, #99 ) ;
#708 = DIRECTION ( 'NONE',  ( 0.000000000000000000, -1.000000000000000000, 0.000000000000000000 ) ) ;
#709 = LINE ( 'NONE', #1138, #1311 ) ;
#710 = VERTEX_POINT ( 'NONE', #368 ) ;
#711 = VERTEX_POINT ( 'NONE', #808 ) ;
#712 = ORIENTED_EDGE ( 'NONE', *, *, #529, .F. ) ;
#713 = CARTESIAN_POINT ( 'NONE',  ( 57.00000000000000000, 38.50000000000001421, 28.50000000000000355 ) ) ;
#714 = DIRECTION ( 'NONE',  ( 0.000000000000000000, 0.000000000000000000, 1.000000000000000000 ) ) ;
#715 = ORIENTED_EDGE ( 'NONE', *, *, #1235, .T. ) ;
#716 = CARTESIAN_POINT ( 'NONE',  ( 57.00000000000000000, 38.50000000000001421, 57.00000000000000711 ) ) ;
#717 = CIRCLE ( 'NONE', #1118, 1.250000000000007994 ) ;
#718 = EDGE_LOOP ( 'NONE', ( #681, #1150, #1394, #938 ) ) ;
#719 = FACE_BOUND ( 'NONE', #219, .T. ) ;
#720 = EDGE_CURVE ( 'NONE', #1042, #61, #5, .T. ) ;
#721 = DIRECTION ( 'NONE',  ( 0.000000000000000000, 0.000000000000000000, -1.000000000000000000 ) ) ;
#722 = ORIENTED_EDGE ( 'NONE', *, *, #52, .T. ) ;
#723 = DIRECTION ( 'NONE',  ( -1.000000000000000000, 8.260587980841936314E-17, 0.000000000000000000 ) ) ;
#724 = CARTESIAN_POINT ( 'NONE',  ( 57.00000000000000000, 38.50000000000001421, 43.25000000000001421 ) ) ;
#725 = AXIS2_PLACEMENT_3D ( 'NONE', #248, #1326, #121 ) ;
#726 = DATE_AND_TIME ( #193, #1382 ) ;
#727 = EDGE_CURVE ( 'NONE', #920, #1168, #934, .T. ) ;
#728 = ORIENTED_EDGE ( 'NONE', *, *, #1000, .T. ) ;
#729 = EDGE_CURVE ( 'NONE', #1367, #890, #944, .T. ) ;
#730 = VECTOR ( 'NONE', #851, 1000.000000000000000 ) ;
#731 = CARTESIAN_POINT ( 'NONE',  ( 0.000000000000000000, 38.50000000000001421, 42.00000000000000000 ) ) ;
#732 = CYLINDRICAL_SURFACE ( 'NONE', #612, 28.50000000000001066 ) ;
#733 = MECHANICAL_CONTEXT ( 'NONE', #1314, 'mechanical' ) ;
#734 = VERTEX_POINT ( 'NONE', #502 ) ;
#735 = EDGE_CURVE ( 'NONE', #1003, #982, #496, .T. ) ;
#736 = CARTESIAN_POINT ( 'NONE',  ( 15.06497115745553117, 3.999999999999989786, 41.93502884254432672 ) ) ;
#737 = VECTOR ( 'NONE', #218, 1000.000000000000000 ) ;
#738 = DIRECTION ( 'NONE',  ( 0.000000000000000000, 0.000000000000000000, 1.000000000000000000 ) ) ;
#739 = CIRCLE ( 'NONE', #787, 1.250000000000004663 ) ;
#740 = DIRECTION ( 'NONE',  ( -1.000000000000000000, 0.000000000000000000, 0.000000000000000000 ) ) ;
#741 = ORIENTED_EDGE ( 'NONE', *, *, #615, .T. ) ;
#742 = CARTESIAN_POINT ( 'NONE',  ( 0.000000000000000000, 0.000000000000000000, 0.000000000000000000 ) ) ;
#743 = VERTEX_POINT ( 'NONE', #930 ) ;
#744 = CARTESIAN_POINT ( 'NONE',  ( 41.93502884254456831, 57.00000000000000000, 13.81497115745576210 ) ) ;
#745 = EDGE_CURVE ( 'NONE', #1006, #1108, #988, .T. ) ;
#746 = DIRECTION ( 'NONE',  ( -1.000000000000000000, -0.000000000000000000, -0.000000000000000000 ) ) ;
#747 = ORIENTED_EDGE ( 'NONE', *, *, #727, .T. ) ;
#748 = CARTESIAN_POINT ( 'NONE',  ( 0.000000000000000000, 38.50000000000001421, 15.00000000000000711 ) ) ;
#749 = DIRECTION ( 'NONE',  ( -0.000000000000000000, -1.000000000000000000, -0.000000000000000000 ) ) ;
#750 = ORIENTED_EDGE ( 'NONE', *, *, #729, .F. ) ;
#751 = AXIS2_PLACEMENT_3D ( 'NONE', #736, #531, #222 ) ;
#752 = ADVANCED_FACE ( 'NONE', ( #830 ), #1270, .F. ) ;
#753 = CARTESIAN_POINT ( 'NONE',  ( 0.000000000000000000, 38.50000000000001421, 21.00000000000001066 ) ) ;
#754 = ADVANCED_FACE ( 'NONE', ( #410 ), #1372, .F. ) ;
#755 = DIRECTION ( 'NONE',  ( 0.000000000000000000, -1.000000000000000000, 0.000000000000000000 ) ) ;
#756 = EDGE_LOOP ( 'NONE', ( #430, #407, #1304, #1155 ) ) ;
#757 = ORIENTED_EDGE ( 'NONE', *, *, #91, .F. ) ;
#758 = CARTESIAN_POINT ( 'NONE',  ( 28.50000000000000000, 4.000000000000023981, 0.000000000000000000 ) ) ;
#759 = CARTESIAN_POINT ( 'NONE',  ( 10.00000000000000000, 61.00000000000002842, 28.49999999999991473 ) ) ;
#760 = EDGE_LOOP ( 'NONE', ( #913, #358 ) ) ;
#761 = CARTESIAN_POINT ( 'NONE',  ( 15.06497115745562887, 3.999999999999989786, 16.31497115745557736 ) ) ;
#762 = DIRECTION ( 'NONE',  ( -1.000000000000000000, 0.000000000000000000, 0.000000000000000000 ) ) ;
#763 = EDGE_LOOP ( 'NONE', ( #1083, #747, #161, #604 ) ) ;
#764 = CARTESIAN_POINT ( 'NONE',  ( 41.93502884254456831, 0.000000000000000000, 15.06497115745576743 ) ) ;
#765 = LINE ( 'NONE', #524, #1275 ) ;
#766 = ORIENTED_EDGE ( 'NONE', *, *, #31, .F. ) ;
#767 = DIRECTION ( 'NONE',  ( -1.000000000000000000, 8.260587980841936314E-17, 0.000000000000000000 ) ) ;
#768 = DIRECTION ( 'NONE',  ( 0.000000000000000000, 0.000000000000000000, -1.000000000000000000 ) ) ;
#769 = ORIENTED_EDGE ( 'NONE', *, *, #329, .F. ) ;
#770 = ADVANCED_FACE ( 'NONE', ( #62, #1368, #391, #497, #719, #519 ), #825, .F. ) ;
#771 = FACE_BOUND ( 'NONE', #1151, .T. ) ;
#772 = EDGE_LOOP ( 'NONE', ( #1402, #46, #282, #757 ) ) ;
#773 = CARTESIAN_POINT ( 'NONE',  ( 10.00000000000000000, 38.50000000000002132, 51.00000000000000711 ) ) ;
#774 = CARTESIAN_POINT ( 'NONE',  ( 3.999999999999996447, 38.50000000000001421, 28.50000000000000355 ) ) ;
#775 = VERTEX_POINT ( 'NONE', #633 ) ;
#776 = EDGE_CURVE ( 'NONE', #789, #382, #298, .T. ) ;
#777 = DIRECTION ( 'NONE',  ( -1.000000000000000000, -0.000000000000000000, -0.000000000000000000 ) ) ;
#778 = ORIENTED_EDGE ( 'NONE', *, *, #485, .F. ) ;
#779 = ADVANCED_FACE ( 'NONE', ( #1174 ), #925, .F. ) ;
#780 = CARTESIAN_POINT ( 'NONE',  ( 4.000000000000000888, 61.00000000000002842, 29.74999999999991829 ) ) ;
#781 = EDGE_LOOP ( 'NONE', ( #1163, #472 ) ) ;
#782 = CIRCLE ( 'NONE', #534, 1.250000000000001110 ) ;
#783 = DIRECTION ( 'NONE',  ( -1.000000000000000000, -1.145572106777136491E-16, 0.000000000000000000 ) ) ;
#784 = CIRCLE ( 'NONE', #306, 1.250000000000007994 ) ;
#785 = AXIS2_PLACEMENT_3D ( 'NONE', #279, #1261, #189 ) ;
#786 = ORIENTED_EDGE ( 'NONE', *, *, #7, .F. ) ;
#787 = AXIS2_PLACEMENT_3D ( 'NONE', #463, #354, #1119 ) ;
#788 = CARTESIAN_POINT ( 'NONE',  ( 0.000000000000000000, 38.50000000000002132, 49.75000000000000000 ) ) ;
#789 = VERTEX_POINT ( 'NONE', #385 ) ;
#790 = DIRECTION ( 'NONE',  ( -1.000000000000000000, -0.000000000000000000, -0.000000000000000000 ) ) ;
#791 = EDGE_CURVE ( 'NONE', #484, #1054, #1219, .T. ) ;
#792 = LINE ( 'NONE', #915, #194 ) ;
#793 = DIRECTION ( 'NONE',  ( -1.000000000000000000, -0.000000000000000000, -0.000000000000000000 ) ) ;
#794 = EDGE_LOOP ( 'NONE', ( #388, #175, #1224, #645 ) ) ;
#795 =( NAMED_UNIT ( * ) SI_UNIT ( $, .STERADIAN. ) SOLID_ANGLE_UNIT ( ) );
#796 = ORIENTED_EDGE ( 'NONE', *, *, #60, .F. ) ;
#797 = CIRCLE ( 'NONE', #840, 1.250000000000001110 ) ;
#798 = CARTESIAN_POINT ( 'NONE',  ( 0.000000000000000000, 0.000000000000000000, 57.00000000000000000 ) ) ;
#799 = EDGE_CURVE ( 'NONE', #819, #947, #1073, .T. ) ;
#800 = LINE ( 'NONE', #244, #699 ) ;
#801 = EDGE_CURVE ( 'NONE', #611, #118, #1135, .T. ) ;
#802 = AXIS2_PLACEMENT_3D ( 'NONE', #798, #367, #596 ) ;
#803 = DIRECTION ( 'NONE',  ( 1.145572106777136491E-16, -1.000000000000000000, 0.000000000000000000 ) ) ;
#804 = CARTESIAN_POINT ( 'NONE',  ( 41.93502884254437646, 57.00000000000000000, 41.93502884254442620 ) ) ;
#805 = ORIENTED_EDGE ( 'NONE', *, *, #876, .F. ) ;
#806 = PRODUCT_DEFINITION_SHAPE ( 'NONE', 'NONE',  #1086 ) ;
#807 = CARTESIAN_POINT ( 'NONE',  ( 0.000000000000000000, 50.19134295108990074, 20.49999999999994671 ) ) ;
#808 = CARTESIAN_POINT ( 'NONE',  ( 3.999999999999996447, 38.50000000000001421, 21.00000000000001066 ) ) ;
#809 = CIRCLE ( 'NONE', #557, 1.250000000000001110 ) ;
#810 = FACE_OUTER_BOUND ( 'NONE', #1131, .T. ) ;
#811 = SHAPE_DEFINITION_REPRESENTATION ( #806, #94 ) ;
#812 = AXIS2_PLACEMENT_3D ( 'NONE', #304, #723, #1051 ) ;
#813 = CARTESIAN_POINT ( 'NONE',  ( 15.06497115745562887, 3.999999999999989786, 13.81497115745556847 ) ) ;
#814 = CARTESIAN_POINT ( 'NONE',  ( 0.000000000000000000, 0.000000000000000000, 57.00000000000000000 ) ) ;
#815 = DIRECTION ( 'NONE',  ( 0.000000000000000000, 0.000000000000000000, -1.000000000000000000 ) ) ;
#816 = ORIENTED_EDGE ( 'NONE', *, *, #529, .T. ) ;
#817 = EDGE_CURVE ( 'NONE', #499, #1325, #621, .T. ) ;
#818 = ORIENTED_EDGE ( 'NONE', *, *, #1154, .T. ) ;
#819 = VERTEX_POINT ( 'NONE', #180 ) ;
#820 = DIRECTION ( 'NONE',  ( -1.000000000000000000, -0.000000000000000000, -0.000000000000000000 ) ) ;
#821 = DIRECTION ( 'NONE',  ( -1.000000000000000000, 8.260587980841936314E-17, 0.000000000000000000 ) ) ;
#822 = AXIS2_PLACEMENT_3D ( 'NONE', #892, #1332, #589 ) ;
#823 = ORIENTED_EDGE ( 'NONE', *, *, #383, .F. ) ;
#824 = ORIENTED_EDGE ( 'NONE', *, *, #791, .T. ) ;
#825 = PLANE ( 'NONE',  #785 ) ;
#826 = EDGE_CURVE ( 'NONE', #947, #819, #297, .T. ) ;
#827 = DIRECTION ( 'NONE',  ( 0.000000000000000000, 0.000000000000000000, -1.000000000000000000 ) ) ;
#828 = ORIENTED_EDGE ( 'NONE', *, *, #1099, .T. ) ;
#829 = VECTOR ( 'NONE', #1153, 1000.000000000000000 ) ;
#830 = FACE_OUTER_BOUND ( 'NONE', #555, .T. ) ;
#831 = DIRECTION ( 'NONE',  ( 1.000000000000000000, 0.000000000000000000, 5.551115123125762192E-15 ) ) ;
#832 = ORIENTED_EDGE ( 'NONE', *, *, #361, .T. ) ;
#833 = EDGE_LOOP ( 'NONE', ( #1033, #995, #899, #964 ) ) ;
#834 = DIRECTION ( 'NONE',  ( 0.000000000000000000, 0.8660254037844358210, -0.5000000000000051070 ) ) ;
#835 = DIRECTION ( 'NONE',  ( -1.000000000000000000, -0.000000000000000000, -0.000000000000000000 ) ) ;
#836 = AXIS2_PLACEMENT_3D ( 'NONE', #804, #232, #879 ) ;
#837 = EDGE_CURVE ( 'NONE', #209, #445, #1271, .T. ) ;
#838 = CC_DESIGN_APPROVAL ( #186, ( #623 ) ) ;
#839 = ORIENTED_EDGE ( 'NONE', *, *, #1028, .F. ) ;
#840 = AXIS2_PLACEMENT_3D ( 'NONE', #655, #111, #86 ) ;
#841 = ORIENTED_EDGE ( 'NONE', *, *, #136, .F. ) ;
#842 = CARTESIAN_POINT ( 'NONE',  ( 15.06497115745553117, 57.00000000000000000, 40.68502884254432672 ) ) ;
#843 = CARTESIAN_POINT ( 'NONE',  ( 41.93502884254437646, 57.00000000000000000, 41.93502884254442620 ) ) ;
#844 = APPROVAL_DATE_TIME ( #921, #231 ) ;
#845 = VERTEX_POINT ( 'NONE', #967 ) ;
#846 = AXIS2_PLACEMENT_3D ( 'NONE', #307, #412, #714 ) ;
#847 = EDGE_CURVE ( 'NONE', #1124, #414, #1358, .T. ) ;
#848 = LINE ( 'NONE', #215, #1302 ) ;
#849 = ORIENTED_EDGE ( 'NONE', *, *, #82, .T. ) ;
#850 = VECTOR ( 'NONE', #509, 1000.000000000000000 ) ;
#851 = DIRECTION ( 'NONE',  ( -0.000000000000000000, -1.000000000000000000, -0.000000000000000000 ) ) ;
#852 = AXIS2_PLACEMENT_3D ( 'NONE', #1136, #1334, #21 ) ;
#853 = FACE_OUTER_BOUND ( 'NONE', #162, .T. ) ;
#854 = ORIENTED_EDGE ( 'NONE', *, *, #1026, .T. ) ;
#855 = EDGE_CURVE ( 'NONE', #920, #1022, #169, .T. ) ;
#856 = DIRECTION ( 'NONE',  ( -1.000000000000000000, 0.000000000000000000, 0.000000000000000000 ) ) ;
#857 = ORIENTED_EDGE ( 'NONE', *, *, #1286, .F. ) ;
#858 = CARTESIAN_POINT ( 'NONE',  ( 3.999999999999996447, 38.50000000000001421, 13.75000000000000178 ) ) ;
#859 = DIRECTION ( 'NONE',  ( 0.000000000000000000, -1.000000000000000000, 0.000000000000000000 ) ) ;
#860 = VERTEX_POINT ( 'NONE', #865 ) ;
#861 = CARTESIAN_POINT ( 'NONE',  ( 57.00000000000000000, 26.80865704891017032, 34.00000000000012790 ) ) ;
#862 = CYLINDRICAL_SURFACE ( 'NONE', #1185, 1.250000000000004663 ) ;
#863 = EDGE_LOOP ( 'NONE', ( #1116, #594, #97, #1381 ) ) ;
#864 = CIRCLE ( 'NONE', #1090, 1.250000000000004663 ) ;
#865 = CARTESIAN_POINT ( 'NONE',  ( 15.06497115745562887, 0.000000000000000000, 13.81497115745556847 ) ) ;
#866 = DIRECTION ( 'NONE',  ( 0.000000000000000000, 0.000000000000000000, 1.000000000000000000 ) ) ;
#867 = ORIENTED_EDGE ( 'NONE', *, *, #539, .F. ) ;
#868 = LINE ( 'NONE', #861, #88 ) ;
#869 = CARTESIAN_POINT ( 'NONE',  ( 0.000000000000000000, 61.00000000000002842, 27.24999999999991118 ) ) ;
#870 = ORIENTED_EDGE ( 'NONE', *, *, #1037, .F. ) ;
#871 = VECTOR ( 'NONE', #680, 1000.000000000000000 ) ;
#872 = FACE_BOUND ( 'NONE', #1032, .T. ) ;
#873 = CIRCLE ( 'NONE', #347, 1.250000000000007994 ) ;
#874 = DIRECTION ( 'NONE',  ( 0.000000000000000000, 0.000000000000000000, 1.000000000000000000 ) ) ;
#875 = AXIS2_PLACEMENT_3D ( 'NONE', #257, #692, #486 ) ;
#876 = EDGE_CURVE ( 'NONE', #789, #710, #441, .T. ) ;
#877 = VERTEX_POINT ( 'NONE', #224 ) ;
#878 = CARTESIAN_POINT ( 'NONE',  ( 0.000000000000000000, 50.19134295108995047, 33.99999999999997158 ) ) ;
#879 = DIRECTION ( 'NONE',  ( 0.000000000000000000, 0.000000000000000000, -1.000000000000000000 ) ) ;
#880 = ORIENTED_EDGE ( 'NONE', *, *, #1274, .T. ) ;
#881 = CARTESIAN_POINT ( 'NONE',  ( 15.06497115745553117, 0.000000000000000000, 40.68502884254432672 ) ) ;
#882 = CARTESIAN_POINT ( 'NONE',  ( 0.000000000000000000, 0.000000000000000000, 0.000000000000000000 ) ) ;
#883 = CYLINDRICAL_SURFACE ( 'NONE', #598, 1.250000000000004663 ) ;
#884 = ORIENTED_EDGE ( 'NONE', *, *, #1226, .F. ) ;
#885 = CIRCLE ( 'NONE', #1085, 7.499999999999992895 ) ;
#886 = DIRECTION ( 'NONE',  ( 0.000000000000000000, -1.000000000000000000, 0.000000000000000000 ) ) ;
#887 = CARTESIAN_POINT ( 'NONE',  ( 4.000000000000003553, 50.19134295108995047, 35.24999999999997868 ) ) ;
#888 = DIRECTION ( 'NONE',  ( 1.145572106777136491E-16, -1.000000000000000000, 0.000000000000000000 ) ) ;
#889 = DIRECTION ( 'NONE',  ( 0.000000000000000000, 0.000000000000000000, 1.000000000000000000 ) ) ;
#890 = VERTEX_POINT ( 'NONE', #881 ) ;
#891 = ADVANCED_FACE ( 'NONE', ( #79 ), #234, .F. ) ;
#892 = CARTESIAN_POINT ( 'NONE',  ( 41.93502884254437646, 3.999999999999996447, 41.93502884254442620 ) ) ;
#893 = ORIENTED_EDGE ( 'NONE', *, *, #565, .F. ) ;
#894 = CIRCLE ( 'NONE', #983, 12.50000000000000000 ) ;
#895 = DIRECTION ( 'NONE',  ( -1.000000000000000000, 8.260587980841936314E-17, 0.000000000000000000 ) ) ;
#896 = AXIS2_PLACEMENT_3D ( 'NONE', #713, #820, #738 ) ;
#897 = DIRECTION ( 'NONE',  ( 0.000000000000000000, 0.000000000000000000, 1.000000000000000000 ) ) ;
#898 = DIRECTION ( 'NONE',  ( -1.000000000000000000, 0.000000000000000000, 0.000000000000000000 ) ) ;
#899 = ORIENTED_EDGE ( 'NONE', *, *, #383, .T. ) ;
#900 = CARTESIAN_POINT ( 'NONE',  ( 28.49999999999999289, 57.00000000000000000, 41.00000000000000711 ) ) ;
#901 = EDGE_CURVE ( 'NONE', #1210, #1064, #797, .T. ) ;
#902 = CARTESIAN_POINT ( 'NONE',  ( 41.93502884254456831, 57.00000000000000000, 16.31497115745577275 ) ) ;
#903 = DIRECTION ( 'NONE',  ( -1.000000000000000000, 0.000000000000000000, 0.000000000000000000 ) ) ;
#904 = FACE_BOUND ( 'NONE', #973, .T. ) ;
#905 = ORIENTED_EDGE ( 'NONE', *, *, #1260, .F. ) ;
#906 = VECTOR ( 'NONE', #1065, 1000.000000000000000 ) ;
#907 = CARTESIAN_POINT ( 'NONE',  ( 57.00000000000000000, 38.50000000000001421, 21.00000000000001066 ) ) ;
#908 = APPROVAL_PERSON_ORGANIZATION ( #1392, #1180, #521 ) ;
#909 = DIRECTION ( 'NONE',  ( -1.000000000000000000, -0.000000000000000000, -0.000000000000000000 ) ) ;
#910 = CIRCLE ( 'NONE', #822, 1.250000000000007994 ) ;
#911 = DIRECTION ( 'NONE',  ( 0.000000000000000000, -1.000000000000000000, 0.000000000000000000 ) ) ;
#912 = PERSON_AND_ORGANIZATION_ROLE ( 'creator' ) ;
#913 = ORIENTED_EDGE ( 'NONE', *, *, #799, .F. ) ;
#914 = CARTESIAN_POINT ( 'NONE',  ( 3.999999999999996447, 26.80865704891017032, 35.25000000000013500 ) ) ;
#915 = CARTESIAN_POINT ( 'NONE',  ( 57.00000000000000000, 4.000000000000000000, 57.00000000000000000 ) ) ;
#916 = CIRCLE ( 'NONE', #305, 1.250000000000004663 ) ;
#917 = CARTESIAN_POINT ( 'NONE',  ( 28.49999999999999289, 57.00000000000000000, 28.50000000000000355 ) ) ;
#918 = AXIS2_PLACEMENT_3D ( 'NONE', #1100, #762, #327 ) ;
#919 = EDGE_CURVE ( 'NONE', #1080, #390, #1074, .T. ) ;
#920 = VERTEX_POINT ( 'NONE', #761 ) ;
#921 = DATE_AND_TIME ( #1359, #408 ) ;
#922 = EDGE_LOOP ( 'NONE', ( #677, #1374, #1088, #580 ) ) ;
#923 = CIRCLE ( 'NONE', #308, 1.250000000000007994 ) ;
#924 = ORIENTED_EDGE ( 'NONE', *, *, #1288, .F. ) ;
#925 = CYLINDRICAL_SURFACE ( 'NONE', #166, 7.499999999999992895 ) ;
#926 = APPLICATION_CONTEXT ( 'configuration controlled 3d designs of mechanical parts and assemblies' ) ;
#927 = CYLINDRICAL_SURFACE ( 'NONE', #1029, 1.250000000000004663 ) ;
#928 = EDGE_LOOP ( 'NONE', ( #620, #512 ) ) ;
#929 = VERTEX_POINT ( 'NONE', #753 ) ;
#930 = CARTESIAN_POINT ( 'NONE',  ( 0.000000000000000000, 26.80865704891017032, 34.00000000000012790 ) ) ;
#931 = FACE_BOUND ( 'NONE', #1416, .T. ) ;
#932 = AXIS2_PLACEMENT_3D ( 'NONE', #1279, #302, #981 ) ;
#933 = VERTEX_POINT ( 'NONE', #526 ) ;
#934 = LINE ( 'NONE', #508, #1101 ) ;
#935 = CARTESIAN_POINT ( 'NONE',  ( 15.06497115745562887, 57.00000000000000000, 15.06497115745557203 ) ) ;
#936 = ORIENTED_EDGE ( 'NONE', *, *, #54, .F. ) ;
#937 = EDGE_LOOP ( 'NONE', ( #252, #1252 ) ) ;
#938 = ORIENTED_EDGE ( 'NONE', *, *, #1378, .T. ) ;
#939 = ADVANCED_FACE ( 'NONE', ( #1406 ), #556, .F. ) ;
#940 = CARTESIAN_POINT ( 'NONE',  ( 4.000000000000003553, 50.19134295108990074, 21.74999999999995026 ) ) ;
#941 = LINE ( 'NONE', #68, #1393 ) ;
#942 = ORIENTED_EDGE ( 'NONE', *, *, #1260, .T. ) ;
#943 = ORIENTED_EDGE ( 'NONE', *, *, #243, .T. ) ;
#944 = LINE ( 'NONE', #842, #447 ) ;
#945 = FACE_OUTER_BOUND ( 'NONE', #1062, .T. ) ;
#946 = DATE_AND_TIME ( #270, #1253 ) ;
#947 = VERTEX_POINT ( 'NONE', #1291 ) ;
#948 = AXIS2_PLACEMENT_3D ( 'NONE', #731, #1152, #1362 ) ;
#949 = CARTESIAN_POINT ( 'NONE',  ( 41.93502884254437646, 0.000000000000000000, 43.18502884254444041 ) ) ;
#950 = EDGE_LOOP ( 'NONE', ( #546, #439, #495, #76 ) ) ;
#951 = PLANE ( 'NONE',  #1157 ) ;
#952 = LINE ( 'NONE', #724, #674 ) ;
#953 = COORDINATED_UNIVERSAL_TIME_OFFSET ( 8, 0, .AHEAD. ) ;
#954 = EDGE_CURVE ( 'NONE', #710, #993, #364, .T. ) ;
#955 = ORIENTED_EDGE ( 'NONE', *, *, #1050, .F. ) ;
#956 = ADVANCED_FACE ( 'NONE', ( #1315, #333, #984, #6, #1059, #661, #542, #426, #550, #872, #432 ), #951, .F. ) ;
#957 = EDGE_CURVE ( 'NONE', #316, #1264, #340, .T. ) ;
#958 = AXIS2_PLACEMENT_3D ( 'NONE', #693, #1363, #591 ) ;
#959 = DIRECTION ( 'NONE',  ( 0.000000000000000000, 0.000000000000000000, -1.000000000000000000 ) ) ;
#960 = ORIENTED_EDGE ( 'NONE', *, *, #720, .T. ) ;
#961 = CIRCLE ( 'NONE', #918, 1.250000000000005773 ) ;
#962 = CARTESIAN_POINT ( 'NONE',  ( 57.00000000000000000, 38.50000000000001421, 13.75000000000000178 ) ) ;
#963 = CARTESIAN_POINT ( 'NONE',  ( 0.000000000000000000, 38.50000000000001421, 28.50000000000000355 ) ) ;
#964 = ORIENTED_EDGE ( 'NONE', *, *, #380, .T. ) ;
#965 = DIRECTION ( 'NONE',  ( 0.000000000000000000, 0.000000000000000000, 1.000000000000000000 ) ) ;
#966 = ORIENTED_EDGE ( 'NONE', *, *, #1235, .F. ) ;
#967 = CARTESIAN_POINT ( 'NONE',  ( 28.49999999999999289, 3.999999999999996447, 41.00000000000000711 ) ) ;
#968 = CARTESIAN_POINT ( 'NONE',  ( 3.999999999999996447, 26.80865704891017032, 36.50000000000014211 ) ) ;
#969 = ORIENTED_EDGE ( 'NONE', *, *, #1403, .F. ) ;
#970 = AXIS2_PLACEMENT_3D ( 'NONE', #473, #700, #572 ) ;
#971 = CARTESIAN_POINT ( 'NONE',  ( 57.00000000000000000, 26.80865704891002110, 21.75000000000011369 ) ) ;
#972 = FACE_OUTER_BOUND ( 'NONE', #630, .T. ) ;
#973 = EDGE_LOOP ( 'NONE', ( #214, #255 ) ) ;
#974 = EDGE_CURVE ( 'NONE', #990, #537, #1189, .T. ) ;
#975 = AXIS2_PLACEMENT_3D ( 'NONE', #26, #1247, #468 ) ;
#976 = DIRECTION ( 'NONE',  ( 1.145572106777136491E-16, -1.000000000000000000, 0.000000000000000000 ) ) ;
#977 = CARTESIAN_POINT ( 'NONE',  ( 3.999999999999996447, 38.50000000000001421, 15.00000000000000711 ) ) ;
#978 = ORIENTED_EDGE ( 'NONE', *, *, #578, .T. ) ;
#979 = ORIENTED_EDGE ( 'NONE', *, *, #1026, .F. ) ;
#980 = EDGE_LOOP ( 'NONE', ( #955, #741, #1164, #1241 ) ) ;
#981 = DIRECTION ( 'NONE',  ( 0.000000000000000000, 0.000000000000000000, 1.000000000000000000 ) ) ;
#982 = VERTEX_POINT ( 'NONE', #1081 ) ;
#983 = AXIS2_PLACEMENT_3D ( 'NONE', #470, #583, #135 ) ;
#984 = FACE_BOUND ( 'NONE', #640, .T. ) ;
#985 = AXIS2_PLACEMENT_3D ( 'NONE', #774, #1082, #113 ) ;
#986 = EDGE_CURVE ( 'NONE', #525, #303, #313, .T. ) ;
#987 = DIRECTION ( 'NONE',  ( -0.000000000000000000, -1.000000000000000000, -0.000000000000000000 ) ) ;
#988 = CIRCLE ( 'NONE', #1397, 1.250000000000004441 ) ;
#989 = CARTESIAN_POINT ( 'NONE',  ( 3.999999999999996447, 38.50000000000001421, 40.74999999999999289 ) ) ;
#990 = VERTEX_POINT ( 'NONE', #858 ) ;
#991 = CYLINDRICAL_SURFACE ( 'NONE', #975, 1.250000000000007994 ) ;
#992 = FACE_OUTER_BOUND ( 'NONE', #690, .T. ) ;
#993 = VERTEX_POINT ( 'NONE', #212 ) ;
#994 = ADVANCED_FACE ( 'NONE', ( #41 ), #1002, .F. ) ;
#995 = ORIENTED_EDGE ( 'NONE', *, *, #112, .F. ) ;
#996 = CIRCLE ( 'NONE', #1300, 1.250000000000001110 ) ;
#997 = CARTESIAN_POINT ( 'NONE',  ( 41.93502884254456831, 3.999999999999996447, 15.06497115745576743 ) ) ;
#998 = DIRECTION ( 'NONE',  ( -1.000000000000000000, 0.000000000000000000, 0.000000000000000000 ) ) ;
#999 = CARTESIAN_POINT ( 'NONE',  ( 4.000000000000000888, 61.00000000000002842, 28.49999999999991473 ) ) ;
#1000 = EDGE_CURVE ( 'NONE', #1054, #484, #1341, .T. ) ;
#1001 = ORIENTED_EDGE ( 'NONE', *, *, #901, .F. ) ;
#1002 = CYLINDRICAL_SURFACE ( 'NONE', #725, 1.250000000000004663 ) ;
#1003 = VERTEX_POINT ( 'NONE', #564 ) ;
#1004 = CARTESIAN_POINT ( 'NONE',  ( 0.000000000000000000, 38.50000000000002132, 51.00000000000000711 ) ) ;
#1005 = LINE ( 'NONE', #28, #1262 ) ;
#1006 = VERTEX_POINT ( 'NONE', #345 ) ;
#1007 = CARTESIAN_POINT ( 'NONE',  ( 0.000000000000000000, 0.000000000000000000, 0.000000000000000000 ) ) ;
#1008 = VERTEX_POINT ( 'NONE', #1016 ) ;
#1009 = LINE ( 'NONE', #900, #1162 ) ;
#1010 = EDGE_CURVE ( 'NONE', #711, #929, #678, .T. ) ;
#1011 = DIRECTION ( 'NONE',  ( 0.000000000000000000, 0.000000000000000000, 1.000000000000000000 ) ) ;
#1012 = LINE ( 'NONE', #478, #190 ) ;
#1013 = FACE_BOUND ( 'NONE', #1294, .T. ) ;
#1014 = ORIENTED_EDGE ( 'NONE', *, *, #1019, .F. ) ;
#1015 = AXIS2_PLACEMENT_3D ( 'NONE', #1319, #898, #254 ) ;
#1016 = CARTESIAN_POINT ( 'NONE',  ( 4.000000000000000888, 61.00000000000002842, 27.24999999999991118 ) ) ;
#1017 = ADVANCED_FACE ( 'NONE', ( #352 ), #991, .F. ) ;
#1018 = AXIS2_PLACEMENT_3D ( 'NONE', #51, #173, #514 ) ;
#1019 = EDGE_CURVE ( 'NONE', #1371, #1248, #1084, .T. ) ;
#1020 = DIRECTION ( 'NONE',  ( -0.000000000000000000, -1.000000000000000000, 0.000000000000000000 ) ) ;
#1021 = DIRECTION ( 'NONE',  ( -1.000000000000000000, -0.000000000000000000, -0.000000000000000000 ) ) ;
#1022 = VERTEX_POINT ( 'NONE', #813 ) ;
#1023 = DATE_AND_TIME ( #1161, #573 ) ;
#1024 = ORIENTED_EDGE ( 'NONE', *, *, #380, .F. ) ;
#1025 = DIRECTION ( 'NONE',  ( 0.000000000000000000, -1.000000000000000000, 0.000000000000000000 ) ) ;
#1026 = EDGE_CURVE ( 'NONE', #1048, #1064, #374, .T. ) ;
#1027 = LINE ( 'NONE', #679, #421 ) ;
#1028 = EDGE_CURVE ( 'NONE', #233, #1405, #103, .T. ) ;
#1029 = AXIS2_PLACEMENT_3D ( 'NONE', #688, #1228, #1128 ) ;
#1030 = DIRECTION ( 'NONE',  ( -1.000000000000000000, -0.000000000000000000, -0.000000000000000000 ) ) ;
#1031 = AXIS2_PLACEMENT_3D ( 'NONE', #1408, #859, #768 ) ;
#1032 = EDGE_LOOP ( 'NONE', ( #172, #456 ) ) ;
#1033 = ORIENTED_EDGE ( 'NONE', *, *, #1043, .F. ) ;
#1034 = CIRCLE ( 'NONE', #1170, 1.250000000000004663 ) ;
#1035 = DIRECTION ( 'NONE',  ( 0.000000000000000000, 0.000000000000000000, -1.000000000000000000 ) ) ;
#1036 = DIRECTION ( 'NONE',  ( 0.000000000000000000, 0.000000000000000000, -1.000000000000000000 ) ) ;
#1037 = EDGE_CURVE ( 'NONE', #1048, #1008, #1111, .T. ) ;
#1038 = ORIENTED_EDGE ( 'NONE', *, *, #1288, .T. ) ;
#1039 = DIRECTION ( 'NONE',  ( -0.000000000000000000, -1.000000000000000000, -0.000000000000000000 ) ) ;
#1040 = CARTESIAN_POINT ( 'NONE',  ( 28.49999999999999289, 0.000000000000000000, 28.50000000000000355 ) ) ;
#1041 = AXIS2_PLACEMENT_3D ( 'NONE', #1196, #311, #1055 ) ;
#1042 = VERTEX_POINT ( 'NONE', #807 ) ;
#1043 = EDGE_CURVE ( 'NONE', #845, #618, #1009, .T. ) ;
#1044 = DIRECTION ( 'NONE',  ( -1.000000000000000000, 0.000000000000000000, 0.000000000000000000 ) ) ;
#1045 = CARTESIAN_POINT ( 'NONE',  ( 28.50000000000000000, 0.000000000000000000, 28.50000000000000000 ) ) ;
#1046 = EDGE_LOOP ( 'NONE', ( #510, #100 ) ) ;
#1047 = VECTOR ( 'NONE', #300, 1000.000000000000000 ) ;
#1048 = VERTEX_POINT ( 'NONE', #780 ) ;
#1049 = AXIS2_PLACEMENT_3D ( 'NONE', #475, #909, #1347 ) ;
#1050 = EDGE_CURVE ( 'NONE', #30, #1080, #506, .T. ) ;
#1051 = DIRECTION ( 'NONE',  ( 0.000000000000000000, -1.000000000000000000, 0.000000000000000000 ) ) ;
#1052 = DIRECTION ( 'NONE',  ( 0.000000000000000000, 0.000000000000000000, 1.000000000000000000 ) ) ;
#1053 = PERSON_AND_ORGANIZATION ( #1140, #105 ) ;
#1054 = VERTEX_POINT ( 'NONE', #1217 ) ;
#1055 = DIRECTION ( 'NONE',  ( 0.000000000000000000, 0.8660254037844358210, -0.5000000000000051070 ) ) ;
#1056 = ORIENTED_EDGE ( 'NONE', *, *, #565, .T. ) ;
#1057 = ADVANCED_FACE ( 'NONE', ( #1103 ), #1345, .T. ) ;
#1058 = DIRECTION ( 'NONE',  ( 1.145572106777136491E-16, -1.000000000000000000, 0.000000000000000000 ) ) ;
#1059 = FACE_BOUND ( 'NONE', #239, .T. ) ;
#1060 = FACE_OUTER_BOUND ( 'NONE', #1340, .T. ) ;
#1061 = DATE_TIME_ROLE ( 'creation_date' ) ;
#1062 = EDGE_LOOP ( 'NONE', ( #356, #839, #59, #401 ) ) ;
#1063 = CARTESIAN_POINT ( 'NONE',  ( 3.999999999999999112, 38.50000000000000711, 5.999999999999998224 ) ) ;
#1064 = VERTEX_POINT ( 'NONE', #242 ) ;
#1065 = DIRECTION ( 'NONE',  ( 8.260587980841936314E-17, 1.000000000000000000, 0.000000000000000000 ) ) ;
#1066 = DIRECTION ( 'NONE',  ( 1.000000000000000000, 0.000000000000000000, 0.000000000000000000 ) ) ;
#1067 = PERSON_AND_ORGANIZATION_ROLE ( 'classification_officer' ) ;
#1068 = EDGE_LOOP ( 'NONE', ( #1237, #532 ) ) ;
#1069 = LINE ( 'NONE', #230, #1144 ) ;
#1070 = CIRCLE ( 'NONE', #465, 28.50000000000001066 ) ;
#1071 = DIRECTION ( 'NONE',  ( -1.000000000000000000, -0.000000000000000000, -0.000000000000000000 ) ) ;
#1072 = ORIENTED_EDGE ( 'NONE', *, *, #651, .T. ) ;
#1073 = CIRCLE ( 'NONE', #948, 1.250000000000007994 ) ;
#1074 = LINE ( 'NONE', #1306, #321 ) ;
#1075 = DIRECTION ( 'NONE',  ( -0.000000000000000000, -1.000000000000000000, -0.000000000000000000 ) ) ;
#1076 = ORIENTED_EDGE ( 'NONE', *, *, #539, .T. ) ;
#1077 = ORIENTED_EDGE ( 'NONE', *, *, #406, .T. ) ;
#1078 = ADVANCED_FACE ( 'NONE', ( #357 ), #1125, .T. ) ;
#1079 = DIRECTION ( 'NONE',  ( -1.000000000000000000, 8.260587980841936314E-17, 0.000000000000000000 ) ) ;
#1080 = VERTEX_POINT ( 'NONE', #483 ) ;
#1081 = CARTESIAN_POINT ( 'NONE',  ( 4.000000000000003553, 50.19134295108995047, 33.99999999999997158 ) ) ;
#1082 = DIRECTION ( 'NONE',  ( -1.000000000000000000, 8.260587980841936314E-17, 0.000000000000000000 ) ) ;
#1083 = ORIENTED_EDGE ( 'NONE', *, *, #855, .F. ) ;
#1084 = CIRCLE ( 'NONE', #970, 1.250000000000001110 ) ;
#1085 = AXIS2_PLACEMENT_3D ( 'NONE', #455, #570, #1214 ) ;
#1086 = PRODUCT_DEFINITION ( 'æœ', '', #685, #701 ) ;
#1087 = LINE ( 'NONE', #196, #411 ) ;
#1088 = ORIENTED_EDGE ( 'NONE', *, *, #1216, .F. ) ;
#1089 = EDGE_CURVE ( 'NONE', #1008, #1210, #1232, .T. ) ;
#1090 = AXIS2_PLACEMENT_3D ( 'NONE', #202, #331, #554 ) ;
#1091 = CARTESIAN_POINT ( 'NONE',  ( 10.00000000000000000, 38.50000000000000711, 5.999999999999998224 ) ) ;
#1092 = CARTESIAN_POINT ( 'NONE',  ( 10.00000000000000000, 61.00000000000002842, 28.49999999999991473 ) ) ;
#1093 = DIRECTION ( 'NONE',  ( -1.000000000000000000, 0.000000000000000000, -1.110223024625149441E-14 ) ) ;
#1094 = CARTESIAN_POINT ( 'NONE',  ( 3.999999999999999112, 38.50000000000002132, 52.25000000000002132 ) ) ;
#1095 = ORIENTED_EDGE ( 'NONE', *, *, #615, .F. ) ;
#1096 = AXIS2_PLACEMENT_3D ( 'NONE', #635, #1266, #1379 ) ;
#1097 = DIRECTION ( 'NONE',  ( 1.145572106777136491E-16, -1.000000000000000000, 0.000000000000000000 ) ) ;
#1098 = CIRCLE ( 'NONE', #1287, 1.250000000000004441 ) ;
#1099 = EDGE_CURVE ( 'NONE', #525, #683, #107, .T. ) ;
#1100 = CARTESIAN_POINT ( 'NONE',  ( 0.000000000000000000, 26.80865704891017032, 35.25000000000013500 ) ) ;
#1101 = VECTOR ( 'NONE', #397, 1000.000000000000000 ) ;
#1102 = ORIENTED_EDGE ( 'NONE', *, *, #1190, .T. ) ;
#1103 = FACE_OUTER_BOUND ( 'NONE', #772, .T. ) ;
#1104 = CARTESIAN_POINT ( 'NONE',  ( 1.592040838891558701E-15, 67.00000000000000000, 57.00000000000000000 ) ) ;
#1105 = DIRECTION ( 'NONE',  ( 0.000000000000000000, -1.000000000000000000, 0.000000000000000000 ) ) ;
#1106 = ORIENTED_EDGE ( 'NONE', *, *, #9, .T. ) ;
#1107 = CARTESIAN_POINT ( 'NONE',  ( 15.06497115745553117, 3.999999999999989786, 40.68502884254432672 ) ) ;
#1108 = VERTEX_POINT ( 'NONE', #20 ) ;
#1109 = CC_DESIGN_SECURITY_CLASSIFICATION ( #623, ( #685 ) ) ;
#1110 = DIRECTION ( 'NONE',  ( 0.000000000000000000, 0.000000000000000000, 1.000000000000000000 ) ) ;
#1111 = CIRCLE ( 'NONE', #1407, 1.250000000000001110 ) ;
#1112 = CYLINDRICAL_SURFACE ( 'NONE', #375, 1.250000000000004663 ) ;
#1113 = CARTESIAN_POINT ( 'NONE',  ( 4.000000000000003553, 50.19134295108990074, 22.99999999999995381 ) ) ;
#1114 = PRODUCT ( '56\X2\8f748fde63a54ef6\X0\', '56\X2\8f748fde63a54ef6\X0\', '', ( #733 ) ) ;
#1115 = CARTESIAN_POINT ( 'NONE',  ( 0.000000000000000000, 38.50000000000000711, 4.749999999999993783 ) ) ;
#1116 = ORIENTED_EDGE ( 'NONE', *, *, #801, .F. ) ;
#1117 = DIRECTION ( 'NONE',  ( 1.000000000000000000, 0.000000000000000000, 0.000000000000000000 ) ) ;
#1118 = AXIS2_PLACEMENT_3D ( 'NONE', #764, #658, #1093 ) ;
#1119 = DIRECTION ( 'NONE',  ( 0.000000000000000000, -1.000000000000000000, 0.000000000000000000 ) ) ;
#1120 = AXIS2_PLACEMENT_3D ( 'NONE', #273, #998, #27 ) ;
#1121 = CARTESIAN_POINT ( 'NONE',  ( 28.49999999999999289, 3.999999999999996447, 28.50000000000000355 ) ) ;
#1122 = ORIENTED_EDGE ( 'NONE', *, *, #1010, .F. ) ;
#1123 = DIRECTION ( 'NONE',  ( -1.000000000000000000, -0.000000000000000000, -0.000000000000000000 ) ) ;
#1124 = VERTEX_POINT ( 'NONE', #462 ) ;
#1125 = PLANE ( 'NONE',  #802 ) ;
#1126 = ORIENTED_EDGE ( 'NONE', *, *, #344, .F. ) ;
#1127 = DIRECTION ( 'NONE',  ( -2.376180356554565142E-17, -1.000000000000000000, 0.000000000000000000 ) ) ;
#1128 = DIRECTION ( 'NONE',  ( 0.000000000000000000, 0.000000000000000000, 1.000000000000000000 ) ) ;
#1129 = EDGE_LOOP ( 'NONE', ( #715, #148 ) ) ;
#1130 = COORDINATED_UNIVERSAL_TIME_OFFSET ( 8, 0, .AHEAD. ) ;
#1131 = EDGE_LOOP ( 'NONE', ( #203, #339, #1179, #823 ) ) ;
#1132 = CC_DESIGN_PERSON_AND_ORGANIZATION_ASSIGNMENT ( #405, #1067, ( #623 ) ) ;
#1133 = DIRECTION ( 'NONE',  ( 0.000000000000000000, -1.000000000000000000, 0.000000000000000000 ) ) ;
#1134 = EDGE_CURVE ( 'NONE', #316, #734, #910, .T. ) ;
#1135 = CIRCLE ( 'NONE', #1018, 1.250000000000001110 ) ;
#1136 = CARTESIAN_POINT ( 'NONE',  ( 0.000000000000000000, 50.19134295108995047, 35.24999999999997868 ) ) ;
#1137 = LINE ( 'NONE', #245, #871 ) ;
#1138 = CARTESIAN_POINT ( 'NONE',  ( 57.00000000000000000, 38.50000000000001421, 16.25000000000001066 ) ) ;
#1139 = ORIENTED_EDGE ( 'NONE', *, *, #31, .T. ) ;
#1140 = PERSON ( 'æœª', 'æœª', 'æœª', ('æœª'), ('æœª'), ('æœª') ) ;
#1141 = ORIENTED_EDGE ( 'NONE', *, *, #1050, .T. ) ;
#1142 = ORIENTED_EDGE ( 'NONE', *, *, #1145, .T. ) ;
#1143 = CARTESIAN_POINT ( 'NONE',  ( 3.999999999999996447, 26.80865704891017032, 35.25000000000013500 ) ) ;
#1144 = VECTOR ( 'NONE', #669, 1000.000000000000000 ) ;
#1145 = EDGE_CURVE ( 'NONE', #445, #209, #37, .T. ) ;
#1146 = FACE_OUTER_BOUND ( 'NONE', #332, .T. ) ;
#1147 = CIRCLE ( 'NONE', #985, 7.499999999999992895 ) ;
#1148 = AXIS2_PLACEMENT_3D ( 'NONE', #1143, #165, #1265 ) ;
#1149 = EDGE_LOOP ( 'NONE', ( #824, #728 ) ) ;
#1150 = ORIENTED_EDGE ( 'NONE', *, *, #791, .F. ) ;
#1151 = EDGE_LOOP ( 'NONE', ( #569, #1412 ) ) ;
#1152 = DIRECTION ( 'NONE',  ( -1.000000000000000000, 0.000000000000000000, 0.000000000000000000 ) ) ;
#1153 = DIRECTION ( 'NONE',  ( -1.000000000000000000, -0.000000000000000000, -0.000000000000000000 ) ) ;
#1154 = EDGE_CURVE ( 'NONE', #1248, #1371, #17, .T. ) ;
#1155 = ORIENTED_EDGE ( 'NONE', *, *, #474, .T. ) ;
#1156 = ORIENTED_EDGE ( 'NONE', *, *, #847, .T. ) ;
#1157 = AXIS2_PLACEMENT_3D ( 'NONE', #102, #451, #666 ) ;
#1158 = DIRECTION ( 'NONE',  ( -2.376180356554565142E-17, -1.000000000000000000, 0.000000000000000000 ) ) ;
#1159 = AXIS2_PLACEMENT_3D ( 'NONE', #1209, #593, #338 ) ;
#1160 = DIRECTION ( 'NONE',  ( 0.000000000000000000, 0.000000000000000000, -1.000000000000000000 ) ) ;
#1161 = CALENDAR_DATE ( 2026, 25, 4 ) ;
#1162 = VECTOR ( 'NONE', #1351, 1000.000000000000000 ) ;
#1163 = ORIENTED_EDGE ( 'NONE', *, *, #558, .F. ) ;
#1164 = ORIENTED_EDGE ( 'NONE', *, *, #776, .F. ) ;
#1165 = DIRECTION ( 'NONE',  ( 0.000000000000000000, -0.8660254037844425934, -0.4999999999999930611 ) ) ;
#1166 = DIRECTION ( 'NONE',  ( 0.000000000000000000, -1.000000000000000000, 0.000000000000000000 ) ) ;
#1167 = AXIS2_PLACEMENT_3D ( 'NONE', #1410, #888, #1328 ) ;
#1168 = VERTEX_POINT ( 'NONE', #108 ) ;
#1169 = AXIS2_PLACEMENT_3D ( 'NONE', #963, #656, #866 ) ;
#1170 = AXIS2_PLACEMENT_3D ( 'NONE', #87, #1020, #1354 ) ;
#1171 = LINE ( 'NONE', #664, #480 ) ;
#1172 = ORIENTED_EDGE ( 'NONE', *, *, #433, .F. ) ;
#1173 = ADVANCED_FACE ( 'NONE', ( #449 ), #862, .F. ) ;
#1174 = FACE_OUTER_BOUND ( 'NONE', #188, .T. ) ;
#1175 = DIRECTION ( 'NONE',  ( 0.000000000000000000, -1.000000000000000000, 0.000000000000000000 ) ) ;
#1176 = DIRECTION ( 'NONE',  ( 0.000000000000000000, 0.000000000000000000, 1.000000000000000000 ) ) ;
#1177 = ORIENTED_EDGE ( 'NONE', *, *, #642, .T. ) ;
#1178 = DIRECTION ( 'NONE',  ( 0.000000000000000000, -1.000000000000000000, 0.000000000000000000 ) ) ;
#1179 = ORIENTED_EDGE ( 'NONE', *, *, #187, .T. ) ;
#1180 = APPROVAL ( #413, 'æœª' ) ;
#1181 = DIRECTION ( 'NONE',  ( -0.000000000000000000, -1.000000000000000000, -0.000000000000000000 ) ) ;
#1182 = LINE ( 'NONE', #650, #1289 ) ;
#1183 = CIRCLE ( 'NONE', #707, 1.250000000000007994 ) ;
#1184 = ORIENTED_EDGE ( 'NONE', *, *, #474, .F. ) ;
#1185 = AXIS2_PLACEMENT_3D ( 'NONE', #759, #317, #424 ) ;
#1186 = DIRECTION ( 'NONE',  ( 0.000000000000000000, 0.000000000000000000, -1.000000000000000000 ) ) ;
#1187 = DIRECTION ( 'NONE',  ( -0.000000000000000000, -0.000000000000000000, -1.000000000000000000 ) ) ;
#1188 = ORIENTED_EDGE ( 'NONE', *, *, #954, .F. ) ;
#1189 = LINE ( 'NONE', #962, #547 ) ;
#1190 = EDGE_CURVE ( 'NONE', #1367, #39, #389, .T. ) ;
#1191 = CARTESIAN_POINT ( 'NONE',  ( 0.000000000000000000, 38.50000000000001421, 0.000000000000000000 ) ) ;
#1192 = EDGE_CURVE ( 'NONE', #775, #499, #130, .T. ) ;
#1193 = ORIENTED_EDGE ( 'NONE', *, *, #837, .F. ) ;
#1194 = CYLINDRICAL_SURFACE ( 'NONE', #632, 1.250000000000004663 ) ;
#1195 = CIRCLE ( 'NONE', #67, 1.250000000000004663 ) ;
#1196 = CARTESIAN_POINT ( 'NONE',  ( 0.000000000000000000, 50.19134295108990074, 21.74999999999995026 ) ) ;
#1197 = EDGE_LOOP ( 'NONE', ( #1399, #247, #571, #867 ) ) ;
#1198 = DIRECTION ( 'NONE',  ( -9.130123557772668334E-17, -1.000000000000000000, 0.000000000000000000 ) ) ;
#1199 = CARTESIAN_POINT ( 'NONE',  ( 15.06497115745562887, 57.00000000000000000, 15.06497115745557203 ) ) ;
#1200 = EDGE_LOOP ( 'NONE', ( #884, #1126 ) ) ;
#1201 = EDGE_CURVE ( 'NONE', #1022, #860, #848, .T. ) ;
#1202 = FACE_OUTER_BOUND ( 'NONE', #756, .T. ) ;
#1203 = PLANE ( 'NONE',  #1211 ) ;
#1204 = ORIENTED_EDGE ( 'NONE', *, *, #986, .F. ) ;
#1205 = DIRECTION ( 'NONE',  ( 1.000000000000000000, 0.000000000000000000, 0.000000000000000000 ) ) ;
#1206 = DIRECTION ( 'NONE',  ( -1.000000000000000000, 0.000000000000000000, -1.110223024625149441E-14 ) ) ;
#1207 = AXIS2_PLACEMENT_3D ( 'NONE', #262, #697, #460 ) ;
#1208 = DIRECTION ( 'NONE',  ( 0.000000000000000000, 0.000000000000000000, 1.000000000000000000 ) ) ;
#1209 = CARTESIAN_POINT ( 'NONE',  ( 10.00000000000000000, 38.50000000000002132, 51.00000000000000711 ) ) ;
#1210 = VERTEX_POINT ( 'NONE', #869 ) ;
#1211 = AXIS2_PLACEMENT_3D ( 'NONE', #742, #1303, #415 ) ;
#1212 = CARTESIAN_POINT ( 'NONE',  ( 3.999999999999996447, 3.999999999999994227, 57.00000000000000000 ) ) ;
#1213 = CARTESIAN_POINT ( 'NONE',  ( 0.000000000000000000, 26.80865704891002110, 21.75000000000011369 ) ) ;
#1214 = DIRECTION ( 'NONE',  ( -1.156482317317872465E-16, -1.000000000000000000, 0.000000000000000000 ) ) ;
#1215 = ORIENTED_EDGE ( 'NONE', *, *, #1201, .T. ) ;
#1216 = EDGE_CURVE ( 'NONE', #624, #1325, #1312, .T. ) ;
#1217 = CARTESIAN_POINT ( 'NONE',  ( 3.999999999999996447, 26.80865704891017032, 34.00000000000012790 ) ) ;
#1218 = CIRCLE ( 'NONE', #164, 1.250000000000004663 ) ;
#1219 = CIRCLE ( 'NONE', #1148, 1.250000000000004663 ) ;
#1220 = DIRECTION ( 'NONE',  ( 0.000000000000000000, 0.000000000000000000, -1.000000000000000000 ) ) ;
#1221 = VECTOR ( 'NONE', #1338, 1000.000000000000000 ) ;
#1222 = VERTEX_POINT ( 'NONE', #1290 ) ;
#1223 = CARTESIAN_POINT ( 'NONE',  ( 28.50000000000000000, 0.000000000000000000, 0.000000000000000000 ) ) ;
#1224 = ORIENTED_EDGE ( 'NONE', *, *, #65, .T. ) ;
#1225 = DIRECTION ( 'NONE',  ( -1.000000000000000000, 8.260587980841936314E-17, 0.000000000000000000 ) ) ;
#1226 = EDGE_CURVE ( 'NONE', #877, #1375, #299, .T. ) ;
#1227 = CYLINDRICAL_SURFACE ( 'NONE', #167, 1.250000000000004663 ) ;
#1228 = DIRECTION ( 'NONE',  ( -1.000000000000000000, -0.000000000000000000, -0.000000000000000000 ) ) ;
#1229 = EDGE_LOOP ( 'NONE', ( #1409, #1193, #137, #942 ) ) ;
#1230 = DIRECTION ( 'NONE',  ( 2.376180356554565451E-17, 1.000000000000000000, 0.000000000000000000 ) ) ;
#1231 = ORIENTED_EDGE ( 'NONE', *, *, #52, .F. ) ;
#1232 = LINE ( 'NONE', #691, #1346 ) ;
#1233 = AXIS2_PLACEMENT_3D ( 'NONE', #1414, #976, #1205 ) ;
#1234 = CARTESIAN_POINT ( 'NONE',  ( 15.06497115745553117, 0.000000000000000000, 43.18502884254432672 ) ) ;
#1235 = EDGE_CURVE ( 'NONE', #1022, #920, #864, .T. ) ;
#1236 = DIRECTION ( 'NONE',  ( -1.000000000000000000, -0.000000000000000000, -0.000000000000000000 ) ) ;
#1237 = ORIENTED_EDGE ( 'NONE', *, *, #112, .T. ) ;
#1238 = EDGE_CURVE ( 'NONE', #263, #933, #1171, .T. ) ;
#1239 = LINE ( 'NONE', #144, #1331 ) ;
#1240 = CARTESIAN_POINT ( 'NONE',  ( 1.592040838891558701E-15, 67.00000000000000000, 57.00000000000000000 ) ) ;
#1241 = ORIENTED_EDGE ( 'NONE', *, *, #567, .F. ) ;
#1242 = CARTESIAN_POINT ( 'NONE',  ( 28.50000000000000000, 3.999999999999996447, 28.50000000000000000 ) ) ;
#1243 = CARTESIAN_POINT ( 'NONE',  ( 41.93502884254456831, 57.00000000000000000, 15.06497115745576743 ) ) ;
#1244 = CARTESIAN_POINT ( 'NONE',  ( 0.000000000000000000, 38.50000000000002132, 52.25000000000002132 ) ) ;
#1245 = EDGE_CURVE ( 'NONE', #445, #1042, #765, .T. ) ;
#1246 = CARTESIAN_POINT ( 'NONE',  ( 0.000000000000000000, 0.000000000000000000, 0.000000000000000000 ) ) ;
#1247 = DIRECTION ( 'NONE',  ( -1.000000000000000000, -0.000000000000000000, -0.000000000000000000 ) ) ;
#1248 = VERTEX_POINT ( 'NONE', #3 ) ;
#1249 = CARTESIAN_POINT ( 'NONE',  ( 3.999999999999999112, 38.50000000000000711, 4.749999999999993783 ) ) ;
#1250 = CARTESIAN_POINT ( 'NONE',  ( 41.93502884254456831, 3.999999999999996447, 15.06497115745576743 ) ) ;
#1251 = FACE_OUTER_BOUND ( 'NONE', #1197, .T. ) ;
#1252 = ORIENTED_EDGE ( 'NONE', *, *, #136, .T. ) ;
#1253 = LOCAL_TIME ( 13, 3, 17.00000000000000000, #636 ) ;
#1254 = ORIENTED_EDGE ( 'NONE', *, *, #336, .F. ) ;
#1255 = DIRECTION ( 'NONE',  ( -1.000000000000000000, -0.000000000000000000, 0.000000000000000000 ) ) ;
#1256 = CARTESIAN_POINT ( 'NONE',  ( 28.50000000000000000, 57.00000000000000000, -3.469446951953614189E-15 ) ) ;
#1257 = DIRECTION ( 'NONE',  ( -1.000000000000000000, -0.000000000000000000, -0.000000000000000000 ) ) ;
#1258 = ORIENTED_EDGE ( 'NONE', *, *, #817, .F. ) ;
#1259 = LINE ( 'NONE', #716, #695 ) ;
#1260 = EDGE_CURVE ( 'NONE', #61, #1042, #253, .T. ) ;
#1261 = DIRECTION ( 'NONE',  ( 0.000000000000000000, 1.000000000000000000, 0.000000000000000000 ) ) ;
#1262 = VECTOR ( 'NONE', #1021, 1000.000000000000000 ) ;
#1263 = FACE_BOUND ( 'NONE', #1129, .T. ) ;
#1264 = VERTEX_POINT ( 'NONE', #949 ) ;
#1265 = DIRECTION ( 'NONE',  ( 0.000000000000000000, -1.000000000000000000, 0.000000000000000000 ) ) ;
#1266 = DIRECTION ( 'NONE',  ( 1.145572106777136491E-16, -1.000000000000000000, 0.000000000000000000 ) ) ;
#1267 = ADVANCED_FACE ( 'NONE', ( #438 ), #1203, .F. ) ;
#1268 = ORIENTED_EDGE ( 'NONE', *, *, #271, .T. ) ;
#1269 = AXIS2_PLACEMENT_3D ( 'NONE', #1337, #266, #1110 ) ;
#1270 = CYLINDRICAL_SURFACE ( 'NONE', #896, 7.499999999999992895 ) ;
#1271 = CIRCLE ( 'NONE', #377, 1.250000000000001110 ) ;
#1272 = CARTESIAN_POINT ( 'NONE',  ( 15.06497115745562887, 0.000000000000000000, 15.06497115745557203 ) ) ;
#1273 = PERSON_AND_ORGANIZATION_ROLE ( 'creator' ) ;
#1274 = EDGE_CURVE ( 'NONE', #860, #1168, #42, .T. ) ;
#1275 = VECTOR ( 'NONE', #84, 1000.000000000000000 ) ;
#1276 = ORIENTED_EDGE ( 'NONE', *, *, #577, .F. ) ;
#1277 = DIRECTION ( 'NONE',  ( -1.000000000000000000, -0.000000000000000000, -0.000000000000000000 ) ) ;
#1278 = EDGE_CURVE ( 'NONE', #1248, #1309, #1087, .T. ) ;
#1279 = CARTESIAN_POINT ( 'NONE',  ( 0.000000000000000000, 38.50000000000001421, 28.50000000000000355 ) ) ;
#1280 = EDGE_LOOP ( 'NONE', ( #83, #663 ) ) ;
#1281 = DIRECTION ( 'NONE',  ( -0.000000000000000000, -0.000000000000000000, -1.000000000000000000 ) ) ;
#1282 = FACE_OUTER_BOUND ( 'NONE', #980, .T. ) ;
#1283 = APPROVAL_DATE_TIME ( #517, #186 ) ;
#1284 = CLOSED_SHELL ( 'NONE', ( #1173, #891, #1307, #403, #157, #488, #261, #249, #1396, #120, #440, #696, #150, #779, #500, #1365, #956, #1267, #1078, #770, #286, #370, #1057, #293, #752, #1017, #994, #1376, #34, #1298, #110, #1366, #631, #754, #290, #939, #595, #505 ) ) ;
#1285 = EDGE_LOOP ( 'NONE', ( #416, #170, #276, #1139 ) ) ;
#1286 = EDGE_CURVE ( 'NONE', #118, #611, #996, .T. ) ;
#1287 = AXIS2_PLACEMENT_3D ( 'NONE', #1213, #673, #668 ) ;
#1288 = EDGE_CURVE ( 'NONE', #1, #450, #227, .T. ) ;
#1289 = VECTOR ( 'NONE', #1066, 1000.000000000000000 ) ;
#1290 = CARTESIAN_POINT ( 'NONE',  ( 3.999999999999996447, 38.50000000000001421, 16.25000000000001066 ) ) ;
#1291 = CARTESIAN_POINT ( 'NONE',  ( 0.000000000000000000, 38.50000000000001421, 40.74999999999999289 ) ) ;
#1292 = CARTESIAN_POINT ( 'NONE',  ( 41.93502884254437646, 57.00000000000000000, 40.68502884254441909 ) ) ;
#1293 = PERSON_AND_ORGANIZATION ( #1140, #105 ) ;
#1294 = EDGE_LOOP ( 'NONE', ( #619, #177 ) ) ;
#1295 = DIRECTION ( 'NONE',  ( 0.000000000000000000, 0.8660254037844394848, 0.4999999999999985012 ) ) ;
#1296 = ORIENTED_EDGE ( 'NONE', *, *, #423, .F. ) ;
#1297 = DIRECTION ( 'NONE',  ( -1.000000000000000000, -0.000000000000000000, -0.000000000000000000 ) ) ;
#1298 = ADVANCED_FACE ( 'NONE', ( #972 ), #210, .F. ) ;
#1299 = CYLINDRICAL_SURFACE ( 'NONE', #116, 1.250000000000004663 ) ;
#1300 = AXIS2_PLACEMENT_3D ( 'NONE', #1063, #1398, #653 ) ;
#1301 = ORIENTED_EDGE ( 'NONE', *, *, #727, .F. ) ;
#1302 = VECTOR ( 'NONE', #749, 1000.000000000000000 ) ;
#1303 = DIRECTION ( 'NONE',  ( 0.000000000000000000, 0.000000000000000000, 1.000000000000000000 ) ) ;
#1304 = ORIENTED_EDGE ( 'NONE', *, *, #1403, .T. ) ;
#1305 = EDGE_CURVE ( 'NONE', #990, #1222, #1183, .T. ) ;
#1306 = CARTESIAN_POINT ( 'NONE',  ( 28.50000000000000000, 57.00000000000000000, 57.00000000000000711 ) ) ;
#1307 = ADVANCED_FACE ( 'NONE', ( #1411 ), #545, .F. ) ;
#1308 = LINE ( 'NONE', #1292, #419 ) ;
#1309 = VERTEX_POINT ( 'NONE', #788 ) ;
#1310 = ORIENTED_EDGE ( 'NONE', *, *, #745, .F. ) ;
#1311 = VECTOR ( 'NONE', #608, 1000.000000000000000 ) ;
#1312 = LINE ( 'NONE', #77, #687 ) ;
#1313 = ORIENTED_EDGE ( 'NONE', *, *, #638, .F. ) ;
#1314 = APPLICATION_CONTEXT ( 'configuration controlled 3d designs of mechanical parts and assemblies' ) ;
#1315 = FACE_BOUND ( 'NONE', #937, .T. ) ;
#1316 = CYLINDRICAL_SURFACE ( 'NONE', #2, 1.250000000000004663 ) ;
#1317 = ORIENTED_EDGE ( 'NONE', *, *, #7, .T. ) ;
#1318 = DIRECTION ( 'NONE',  ( -1.000000000000000000, 0.000000000000000000, 0.000000000000000000 ) ) ;
#1319 = CARTESIAN_POINT ( 'NONE',  ( 0.000000000000000000, 26.80865704891017032, 35.25000000000013500 ) ) ;
#1320 = ORIENTED_EDGE ( 'NONE', *, *, #361, .F. ) ;
#1321 = DIRECTION ( 'NONE',  ( -1.000000000000000000, 8.260587980841936314E-17, 0.000000000000000000 ) ) ;
#1322 = CYLINDRICAL_SURFACE ( 'NONE', #535, 1.250000000000001110 ) ;
#1323 = CARTESIAN_POINT ( 'NONE',  ( 28.49999999999999289, 3.999999999999996447, 16.00000000000000355 ) ) ;
#1324 = FACE_BOUND ( 'NONE', #1200, .T. ) ;
#1325 = VERTEX_POINT ( 'NONE', #1007 ) ;
#1326 = DIRECTION ( 'NONE',  ( -1.000000000000000000, -0.000000000000000000, -0.000000000000000000 ) ) ;
#1327 = DIRECTION ( 'NONE',  ( 0.000000000000000000, 0.000000000000000000, 1.000000000000000000 ) ) ;
#1328 = DIRECTION ( 'NONE',  ( 1.000000000000000000, 0.000000000000000000, 0.000000000000000000 ) ) ;
#1329 = FACE_OUTER_BOUND ( 'NONE', #366, .T. ) ;
#1330 = EDGE_LOOP ( 'NONE', ( #1276, #924 ) ) ;
#1331 = VECTOR ( 'NONE', #1257, 1000.000000000000000 ) ;
#1332 = DIRECTION ( 'NONE',  ( 1.145572106777136491E-16, -1.000000000000000000, 0.000000000000000000 ) ) ;
#1333 = CIRCLE ( 'NONE', #191, 1.250000000000004663 ) ;
#1334 = DIRECTION ( 'NONE',  ( -1.000000000000000000, 0.000000000000000000, 0.000000000000000000 ) ) ;
#1335 = CARTESIAN_POINT ( 'NONE',  ( 28.49999999999999289, 0.000000000000000000, 28.50000000000000355 ) ) ;
#1336 = ORIENTED_EDGE ( 'NONE', *, *, #406, .F. ) ;
#1337 = CARTESIAN_POINT ( 'NONE',  ( 57.00000000000000000, 38.50000000000001421, 28.50000000000000355 ) ) ;
#1338 = DIRECTION ( 'NONE',  ( -0.000000000000000000, -1.000000000000000000, -0.000000000000000000 ) ) ;
#1339 = CARTESIAN_POINT ( 'NONE',  ( 3.999999999999996447, 38.50000000000001421, 43.25000000000001421 ) ) ;
#1340 = EDGE_LOOP ( 'NONE', ( #1301, #966, #1215, #880 ) ) ;
#1341 = CIRCLE ( 'NONE', #626, 1.250000000000004663 ) ;
#1342 = FACE_BOUND ( 'NONE', #491, .T. ) ;
#1343 = ORIENTED_EDGE ( 'NONE', *, *, #1089, .T. ) ;
#1344 = CIRCLE ( 'NONE', #1015, 1.250000000000005773 ) ;
#1345 = CYLINDRICAL_SURFACE ( 'NONE', #1269, 28.50000000000000355 ) ;
#1346 = VECTOR ( 'NONE', #32, 1000.000000000000000 ) ;
#1347 = DIRECTION ( 'NONE',  ( 0.000000000000000000, 0.000000000000000000, 1.000000000000000000 ) ) ;
#1348 = EDGE_CURVE ( 'NONE', #993, #499, #349, .T. ) ;
#1349 = DIRECTION ( 'NONE',  ( -1.000000000000000000, -0.000000000000000000, -0.000000000000000000 ) ) ;
#1350 = PERSON_AND_ORGANIZATION ( #1140, #105 ) ;
#1351 = DIRECTION ( 'NONE',  ( -0.000000000000000000, -1.000000000000000000, -0.000000000000000000 ) ) ;
#1352 = VECTOR ( 'NONE', #1349, 1000.000000000000000 ) ;
#1353 = AXIS2_PLACEMENT_3D ( 'NONE', #1040, #1166, #1036 ) ;
#1354 = DIRECTION ( 'NONE',  ( 1.000000000000000000, 0.000000000000000000, 5.551115123125762192E-15 ) ) ;
#1355 = CIRCLE ( 'NONE', #241, 1.250000000000007994 ) ;
#1356 = DIRECTION ( 'NONE',  ( -0.000000000000000000, -1.000000000000000000, -0.000000000000000000 ) ) ;
#1357 = ORIENTED_EDGE ( 'NONE', *, *, #606, .F. ) ;
#1358 = CIRCLE ( 'NONE', #265, 1.250000000000004663 ) ;
#1359 = CALENDAR_DATE ( 2026, 25, 4 ) ;
#1360 = VERTEX_POINT ( 'NONE', #1223 ) ;
#1361 = ORIENTED_EDGE ( 'NONE', *, *, #1145, .F. ) ;
#1362 = DIRECTION ( 'NONE',  ( 0.000000000000000000, 0.000000000000000000, 1.000000000000000000 ) ) ;
#1363 = DIRECTION ( 'NONE',  ( -0.000000000000000000, -1.000000000000000000, -0.000000000000000000 ) ) ;
#1364 = VERTEX_POINT ( 'NONE', #29 ) ;
#1365 = ADVANCED_FACE ( 'NONE', ( #471, #1324, #771, #904, #670, #38, #586, #1013, #1342, #342, #18 ), #365, .F. ) ;
#1366 = ADVANCED_FACE ( 'NONE', ( #1329 ), #246, .F. ) ;
#1367 = VERTEX_POINT ( 'NONE', #1107 ) ;
#1368 = FACE_BOUND ( 'NONE', #781, .T. ) ;
#1369 = VECTOR ( 'NONE', #12, 1000.000000000000000 ) ;
#1370 = LINE ( 'NONE', #1256, #1047 ) ;
#1371 = VERTEX_POINT ( 'NONE', #1094 ) ;
#1372 = CYLINDRICAL_SURFACE ( 'NONE', #285, 1.250000000000001110 ) ;
#1373 = CARTESIAN_POINT ( 'NONE',  ( 28.50000000000000000, 0.000000000000000000, 57.00000000000000000 ) ) ;
#1374 = ORIENTED_EDGE ( 'NONE', *, *, #817, .T. ) ;
#1375 = VERTEX_POINT ( 'NONE', #1115 ) ;
#1376 = ADVANCED_FACE ( 'NONE', ( #145 ), #682, .F. ) ;
#1377 = DIRECTION ( 'NONE',  ( -1.000000000000000000, 8.260587980841936314E-17, 0.000000000000000000 ) ) ;
#1378 = EDGE_CURVE ( 'NONE', #72, #743, #1344, .T. ) ;
#1379 = DIRECTION ( 'NONE',  ( 1.000000000000000000, 1.145572106777136491E-16, 0.000000000000000000 ) ) ;
#1380 = ORIENTED_EDGE ( 'NONE', *, *, #720, .F. ) ;
#1381 = ORIENTED_EDGE ( 'NONE', *, *, #335, .F. ) ;
#1382 = LOCAL_TIME ( 13, 3, 17.00000000000000000, #1130 ) ;
#1383 = CARTESIAN_POINT ( 'NONE',  ( 3.999999999999996447, 3.999999999999994227, 57.00000000000000000 ) ) ;
#1384 = DIRECTION ( 'NONE',  ( 0.000000000000000000, -1.000000000000000000, 0.000000000000000000 ) ) ;
#1385 = CC_DESIGN_PERSON_AND_ORGANIZATION_ASSIGNMENT ( #183, #200, ( #685 ) ) ;
#1386 = PERSON_AND_ORGANIZATION ( #1140, #105 ) ;
#1387 = EDGE_LOOP ( 'NONE', ( #841, #1343, #323, #979 ) ) ;
#1388 = DIRECTION ( 'NONE',  ( -1.000000000000000000, 0.000000000000000000, 0.000000000000000000 ) ) ;
#1389 = EDGE_LOOP ( 'NONE', ( #676, #1313 ) ) ;
#1390 = DIRECTION ( 'NONE',  ( 0.000000000000000000, 0.000000000000000000, 1.000000000000000000 ) ) ;
#1391 = DIRECTION ( 'NONE',  ( -1.000000000000000000, -0.000000000000000000, -0.000000000000000000 ) ) ;
#1392 = PERSON_AND_ORGANIZATION ( #1140, #105 ) ;
#1393 = VECTOR ( 'NONE', #1391, 1000.000000000000000 ) ;
#1394 = ORIENTED_EDGE ( 'NONE', *, *, #229, .T. ) ;
#1395 = CIRCLE ( 'NONE', #494, 1.250000000000007994 ) ;
#1396 = ADVANCED_FACE ( 'NONE', ( #131 ), #883, .F. ) ;
#1397 = AXIS2_PLACEMENT_3D ( 'NONE', #73, #1255, #1165 ) ;
#1398 = DIRECTION ( 'NONE',  ( -1.000000000000000000, 8.260587980841936314E-17, 0.000000000000000000 ) ) ;
#1399 = ORIENTED_EDGE ( 'NONE', *, *, #1134, .F. ) ;
#1400 = DIRECTION ( 'NONE',  ( -1.000000000000000000, -0.000000000000000000, -0.000000000000000000 ) ) ;
#1401 = DIRECTION ( 'NONE',  ( -0.000000000000000000, -1.000000000000000000, -0.000000000000000000 ) ) ;
#1402 = ORIENTED_EDGE ( 'NONE', *, *, #954, .T. ) ;
#1403 = EDGE_CURVE ( 'NONE', #414, #1108, #117, .T. ) ;
#1404 = CARTESIAN_POINT ( 'NONE',  ( 0.000000000000000000, 50.19134295108995047, 35.24999999999997868 ) ) ;
#1405 = VERTEX_POINT ( 'NONE', #989 ) ;
#1406 = FACE_OUTER_BOUND ( 'NONE', #223, .T. ) ;
#1407 = AXIS2_PLACEMENT_3D ( 'NONE', #256, #1225, #125 ) ;
#1408 = CARTESIAN_POINT ( 'NONE',  ( 41.93502884254437646, 0.000000000000000000, 41.93502884254442620 ) ) ;
#1409 = ORIENTED_EDGE ( 'NONE', *, *, #1245, .F. ) ;
#1410 = CARTESIAN_POINT ( 'NONE',  ( 15.06497115745553117, 3.999999999999989786, 41.93502884254432672 ) ) ;
#1411 = FACE_OUTER_BOUND ( 'NONE', #794, .T. ) ;
#1412 = ORIENTED_EDGE ( 'NONE', *, *, #65, .F. ) ;
#1413 = EDGE_CURVE ( 'NONE', #711, #263, #885, .T. ) ;
#1414 = CARTESIAN_POINT ( 'NONE',  ( 15.06497115745562887, 3.999999999999989786, 15.06497115745557203 ) ) ;
#1415 = CYLINDRICAL_SURFACE ( 'NONE', #444, 1.250000000000007994 ) ;
#1416 = EDGE_LOOP ( 'NONE', ( #828, #301 ) ) ;
#1417 = CIRCLE ( 'NONE', #395, 7.499999999999992895 ) ;
ENDSEC;
END-ISO-10303-21;
